%TF.GenerationSoftware,Altium Limited,Altium Designer,25.3.3 (18)*%
G04 Layer_Color=255*
%FSLAX45Y45*%
%MOMM*%
%TF.SameCoordinates,5E11F917-F8F9-4F0F-A2E6-9E88ADDE2E03*%
%TF.FilePolarity,Positive*%
%TF.FileFunction,Pads,Top*%
%TF.Part,Single*%
G01*
G75*
%TA.AperFunction,SMDPad,CuDef*%
%ADD12R,0.58000X0.50000*%
%ADD13R,0.80000X0.75000*%
%ADD14R,0.90000X1.00000*%
%ADD15R,0.61000X0.63500*%
%ADD16R,0.35000X0.60000*%
%ADD17R,0.50000X0.60000*%
%TA.AperFunction,ConnectorPad*%
%ADD18R,4.56000X1.00000*%
%ADD19R,4.56000X0.85000*%
%ADD20R,1.00000X4.56000*%
%ADD21R,0.85000X4.56000*%
%TA.AperFunction,SMDPad,CuDef*%
%ADD22R,0.75000X0.80000*%
%ADD23R,0.50000X0.58000*%
%ADD24R,0.63500X0.61000*%
%ADD25R,0.30000X0.50000*%
%ADD26R,1.05000X0.95000*%
%ADD27R,0.60000X0.45000*%
%ADD28R,0.81213X0.65872*%
%ADD29R,0.65872X0.81213*%
%ADD30R,1.22000X0.62000*%
%ADD31R,1.75000X3.20000*%
%ADD32R,1.75000X0.95000*%
%ADD33R,0.91213X0.85872*%
%ADD34R,0.95000X1.05000*%
G04:AMPARAMS|DCode=35|XSize=1.1mm|YSize=0.4mm|CornerRadius=0.05mm|HoleSize=0mm|Usage=FLASHONLY|Rotation=0.000|XOffset=0mm|YOffset=0mm|HoleType=Round|Shape=RoundedRectangle|*
%AMROUNDEDRECTD35*
21,1,1.10000,0.30000,0,0,0.0*
21,1,1.00000,0.40000,0,0,0.0*
1,1,0.10000,0.50000,-0.15000*
1,1,0.10000,-0.50000,-0.15000*
1,1,0.10000,-0.50000,0.15000*
1,1,0.10000,0.50000,0.15000*
%
%ADD35ROUNDEDRECTD35*%
%TA.AperFunction,ConnectorPad*%
%ADD36R,0.80000X1.20000*%
%ADD37R,0.76000X1.20000*%
%ADD38R,0.70000X1.20000*%
%TA.AperFunction,SMDPad,CuDef*%
%ADD39R,0.96213X0.93504*%
%ADD40R,1.38000X2.10000*%
%ADD41R,0.60000X0.50000*%
%ADD42R,0.45000X0.60000*%
%ADD43R,0.60000X0.35000*%
%TA.AperFunction,ComponentPad*%
%ADD45C,1.65000*%
%ADD46R,1.65000X1.65000*%
%ADD47R,1.65000X1.65000*%
%ADD48C,1.50000*%
%ADD49R,1.50000X1.50000*%
%ADD50C,2.17500*%
%ADD51R,2.17500X2.17500*%
%ADD52R,1.50000X1.50000*%
%ADD53C,1.57500*%
%ADD54R,1.57500X1.57500*%
G04:AMPARAMS|DCode=55|XSize=1.1mm|YSize=1.7mm|CornerRadius=0.55mm|HoleSize=0mm|Usage=FLASHONLY|Rotation=0.000|XOffset=0mm|YOffset=0mm|HoleType=Round|Shape=RoundedRectangle|*
%AMROUNDEDRECTD55*
21,1,1.10000,0.60000,0,0,0.0*
21,1,0.00000,1.70000,0,0,0.0*
1,1,1.10000,0.00000,-0.30000*
1,1,1.10000,0.00000,-0.30000*
1,1,1.10000,0.00000,0.30000*
1,1,1.10000,0.00000,0.30000*
%
%ADD55ROUNDEDRECTD55*%
%ADD56R,1.20000X1.20000*%
%ADD57C,1.20000*%
D12*
X5663495Y10745000D02*
D03*
X5431495D02*
D03*
D13*
X5452495Y10642500D02*
D03*
X5642495D02*
D03*
Y10847500D02*
D03*
X5452495D02*
D03*
D14*
X7060000Y6455000D02*
D03*
Y6275000D02*
D03*
D15*
X5882000Y10624900D02*
D03*
Y10744300D02*
D03*
D16*
X6099999Y10745001D02*
D03*
X6034999D02*
D03*
D17*
X8327502Y10780000D02*
D03*
X8477498D02*
D03*
X5455002Y7592500D02*
D03*
X5604998D02*
D03*
X5045004Y7497500D02*
D03*
X5195001D02*
D03*
X5455002Y7400000D02*
D03*
X5604998D02*
D03*
X8327504Y10590000D02*
D03*
X8477500D02*
D03*
D18*
X4415000Y10583500D02*
D03*
Y11107500D02*
D03*
D19*
Y10845500D02*
D03*
D20*
X5426500Y11470000D02*
D03*
X4902500D02*
D03*
D21*
X5164500D02*
D03*
D22*
X5155001Y10460005D02*
D03*
Y10270005D02*
D03*
X4950001D02*
D03*
Y10460005D02*
D03*
D23*
X5052501Y10481005D02*
D03*
Y10249005D02*
D03*
D24*
X5052803Y10027504D02*
D03*
X5172203D02*
D03*
D25*
X5162400Y10844500D02*
D03*
X5107400D02*
D03*
X5052400D02*
D03*
Y10744500D02*
D03*
X5107400D02*
D03*
X5162400D02*
D03*
D26*
X4822500Y6425000D02*
D03*
Y6280000D02*
D03*
X7255000Y7222500D02*
D03*
Y7077500D02*
D03*
X9322500Y7737500D02*
D03*
Y7592500D02*
D03*
D27*
X6304999Y10650000D02*
D03*
Y10745000D02*
D03*
D28*
X9824999Y10590000D02*
D03*
Y10725342D02*
D03*
X6950000Y7535170D02*
D03*
Y7399829D02*
D03*
X6512500Y10609829D02*
D03*
Y10745171D02*
D03*
D29*
X9027329Y11302500D02*
D03*
X9162670D02*
D03*
X6152333Y8127489D02*
D03*
X6287674D02*
D03*
X5180171Y9422501D02*
D03*
X5044829D02*
D03*
D30*
X9289500Y10780000D02*
D03*
Y10590000D02*
D03*
X9027500D02*
D03*
Y10685000D02*
D03*
Y10780000D02*
D03*
X6413505Y7590000D02*
D03*
Y7400000D02*
D03*
X6151505D02*
D03*
Y7495000D02*
D03*
Y7590000D02*
D03*
D31*
X5755000Y6372500D02*
D03*
D32*
X5125000Y6142500D02*
D03*
Y6372500D02*
D03*
Y6602500D02*
D03*
D33*
X6382505Y6272329D02*
D03*
Y6427671D02*
D03*
X9480000Y6462329D02*
D03*
Y6617670D02*
D03*
D34*
X6750000Y6042505D02*
D03*
X6895000D02*
D03*
X6750000Y5790005D02*
D03*
X6895000D02*
D03*
X5312500Y4820000D02*
D03*
X5457500D02*
D03*
D35*
X6645000Y5540000D02*
D03*
Y5475000D02*
D03*
Y5410000D02*
D03*
Y5345000D02*
D03*
X7025000D02*
D03*
Y5410000D02*
D03*
Y5475000D02*
D03*
Y5540000D02*
D03*
D36*
X4775000Y4582998D02*
D03*
X5325000D02*
D03*
D37*
X4898000D02*
D03*
X5202000D02*
D03*
D38*
X5000000D02*
D03*
X5100000D02*
D03*
D39*
X5230000Y5269420D02*
D03*
Y5412499D02*
D03*
X4920000Y5269420D02*
D03*
Y5412499D02*
D03*
D40*
X9546000Y5082496D02*
D03*
Y4172496D02*
D03*
X9994000Y5082496D02*
D03*
Y4172496D02*
D03*
D41*
X7945001Y10610002D02*
D03*
Y10759998D02*
D03*
D42*
X5141602Y9617605D02*
D03*
X5046602D02*
D03*
D43*
X5049999Y9820005D02*
D03*
Y9885005D02*
D03*
D45*
X8484000Y4330006D02*
D03*
X8230000D02*
D03*
X10017511Y7667499D02*
D03*
Y7921499D02*
D03*
D46*
X7976000Y4330006D02*
D03*
X6027500Y5602500D02*
D03*
X5700000D02*
D03*
D47*
X10017511Y7413499D02*
D03*
D48*
X9080000Y4987000D02*
D03*
Y5241000D02*
D03*
Y5495000D02*
D03*
Y5749000D02*
D03*
Y6003000D02*
D03*
Y6257000D02*
D03*
Y6511000D02*
D03*
Y6765000D02*
D03*
Y7019000D02*
D03*
Y7273000D02*
D03*
Y7527000D02*
D03*
Y7781000D02*
D03*
Y8035000D02*
D03*
Y8289000D02*
D03*
Y8543000D02*
D03*
Y8797000D02*
D03*
Y9051000D02*
D03*
Y9305000D02*
D03*
Y9559000D02*
D03*
Y9813000D02*
D03*
X7556000Y4987000D02*
D03*
Y5241000D02*
D03*
Y5495000D02*
D03*
Y5749000D02*
D03*
Y6003000D02*
D03*
Y6257000D02*
D03*
Y6511000D02*
D03*
Y6765000D02*
D03*
Y7019000D02*
D03*
Y7273000D02*
D03*
Y7527000D02*
D03*
Y7781000D02*
D03*
Y8035000D02*
D03*
Y8289000D02*
D03*
Y8543000D02*
D03*
Y8797000D02*
D03*
Y9051000D02*
D03*
Y9305000D02*
D03*
Y9559000D02*
D03*
X10057511Y6322505D02*
D03*
Y6572505D02*
D03*
D49*
X7556000Y9813000D02*
D03*
D50*
X10017561Y8718000D02*
D03*
Y8972000D02*
D03*
Y9226000D02*
D03*
Y9480000D02*
D03*
D51*
Y9734000D02*
D03*
D52*
X10057511Y6072505D02*
D03*
D53*
X7059000Y4591500D02*
D03*
Y4337500D02*
D03*
X6805000Y4591500D02*
D03*
Y4337500D02*
D03*
X6551000Y4591500D02*
D03*
Y4337500D02*
D03*
X6297000Y4591500D02*
D03*
D54*
Y4337500D02*
D03*
D55*
X4618000Y4574998D02*
D03*
X5482000D02*
D03*
X4618000Y4194998D02*
D03*
X5482000D02*
D03*
D56*
X6750005Y7033800D02*
D03*
D57*
Y6271200D02*
D03*
%TF.MD5,295c81dd1f06a342f9292a9274302f5e*%
M02*
