%TF.GenerationSoftware,Altium Limited,Altium Designer,25.3.3 (18)*%
G04 Layer_Color=0*
%FSLAX45Y45*%
%MOMM*%
%TF.SameCoordinates,5E11F917-F8F9-4F0F-A2E6-9E88ADDE2E03*%
%TF.FilePolarity,Positive*%
%TF.FileFunction,Other,Top_Component_Center*%
%TF.Part,Single*%
G01*
G75*
%TA.AperFunction,NonConductor*%
%ADD60C,0.10000*%
D60*
X7010000Y6365000D02*
X7110000D01*
X7060000Y6315000D02*
Y6415000D01*
X5882000Y10634600D02*
Y10734600D01*
X5832000Y10684600D02*
X5932000D01*
X6017499Y10745001D02*
X6117499D01*
X6067499Y10695001D02*
Y10795001D01*
X8352500Y10780000D02*
X8452500D01*
X8402500Y10730000D02*
Y10829999D01*
X3712000Y10795500D02*
Y10895500D01*
X3662000Y10845500D02*
X3762000D01*
X5164500Y12123000D02*
Y12223000D01*
X5114500Y12173000D02*
X5214500D01*
X5112503Y9977504D02*
Y10077504D01*
X5062503Y10027504D02*
X5162503D01*
X9824999Y10607671D02*
Y10707671D01*
X9774999Y10657671D02*
X9874999D01*
X9044999Y11302500D02*
X9144999D01*
X9094999Y11252500D02*
Y11352500D01*
X6900000Y7467500D02*
X7000000D01*
X6950000Y7417500D02*
Y7517500D01*
X6382505Y6300000D02*
Y6400000D01*
X6332505Y6350000D02*
X6432505D01*
X6785000Y5442500D02*
X6885000D01*
X6835000Y5392500D02*
Y5492500D01*
X5000000Y4279998D02*
X5100000D01*
X5050000Y4229998D02*
Y4329998D01*
X5230000Y5290960D02*
Y5390960D01*
X5180000Y5340960D02*
X5280000D01*
X4920000Y5290960D02*
Y5390960D01*
X4870000Y5340960D02*
X4970000D01*
X6170004Y8127489D02*
X6270004D01*
X6220004Y8077489D02*
Y8177489D01*
X5480000Y7592500D02*
X5580000D01*
X5530000Y7542500D02*
Y7642500D01*
X9770000Y4577496D02*
Y4677496D01*
X9720000Y4627496D02*
X9820000D01*
X6750005Y6602500D02*
Y6702500D01*
X6700005Y6652500D02*
X6800005D01*
X9480000Y6490000D02*
Y6590000D01*
X9430000Y6540000D02*
X9530000D01*
X5070003Y7497500D02*
X5170002D01*
X5120002Y7447500D02*
Y7547500D01*
X5480000Y7400000D02*
X5580000D01*
X5530000Y7350000D02*
Y7450000D01*
X8352502Y10590000D02*
X8452502D01*
X8402502Y10540000D02*
Y10640000D01*
X7945001Y10635000D02*
Y10735000D01*
X7895001Y10685000D02*
X7995001D01*
X6512500Y10627500D02*
Y10727500D01*
X6462500Y10677500D02*
X6562500D01*
X5062500Y9422501D02*
X5162500D01*
X5112500Y9372501D02*
Y9472500D01*
X5049999Y9802505D02*
Y9902505D01*
X4999999Y9852505D02*
X5099999D01*
%TF.MD5,5c11ca0246b0ccc17f12a6b8c771b436*%
M02*
