%TF.GenerationSoftware,Altium Limited,Altium Designer,26.3.0 (6)*%
G04 Layer_Physical_Order=2*
G04 Layer_Color=16711680*
%FSLAX45Y45*%
%MOMM*%
%TF.SameCoordinates,54D30E38-9BAD-47A9-95B5-4C9EBDA9D8EF*%
%TF.FilePolarity,Positive*%
%TF.FileFunction,Copper,L2,Bot,Signal*%
%TF.Part,Single*%
G01*
G75*
%TA.AperFunction,Conductor*%
%ADD10C,0.71900*%
%ADD11C,0.30000*%
%ADD41C,0.71000*%
%TA.AperFunction,ComponentPad*%
%ADD42R,1.50000X1.50000*%
%ADD43C,1.50000*%
%ADD44C,2.17500*%
%ADD45C,1.57500*%
%ADD46C,1.65000*%
%ADD47C,2.20000*%
%ADD48R,1.20000X1.20000*%
%ADD49R,1.65000X1.65000*%
%ADD50R,2.00000X2.00000*%
%ADD51R,2.00000X2.00000*%
%ADD52R,1.65000X1.65000*%
%ADD53R,2.17500X2.17500*%
%ADD54R,1.50000X1.50000*%
%ADD55R,1.57500X1.57500*%
G04:AMPARAMS|DCode=56|XSize=1.1mm|YSize=1.7mm|CornerRadius=0.55mm|HoleSize=0mm|Usage=FLASHONLY|Rotation=0.000|XOffset=0mm|YOffset=0mm|HoleType=Round|Shape=RoundedRectangle|*
%AMROUNDEDRECTD56*
21,1,1.10000,0.60000,0,0,0.0*
21,1,0.00000,1.70000,0,0,0.0*
1,1,1.10000,0.00000,-0.30000*
1,1,1.10000,0.00000,-0.30000*
1,1,1.10000,0.00000,0.30000*
1,1,1.10000,0.00000,0.30000*
%
%ADD56ROUNDEDRECTD56*%
%ADD57C,1.20000*%
%TA.AperFunction,ViaPad*%
%ADD58C,0.60000*%
%ADD59C,1.27000*%
G36*
X10102501Y11987500D02*
X10122164Y11987500D01*
X10161154Y11982367D01*
X10199140Y11972188D01*
X10235472Y11957139D01*
X10269529Y11937476D01*
X10300729Y11913535D01*
X10328536Y11885728D01*
X10352476Y11854528D01*
X10372139Y11820470D01*
X10387188Y11784138D01*
X10397366Y11746152D01*
X10401396Y11715535D01*
X10402498Y11687533D01*
Y11687499D01*
X10402498Y11687499D01*
X10402500Y11687498D01*
X10402499Y4217499D01*
X10402499Y4197836D01*
X10397367Y4158846D01*
X10387189Y4120860D01*
X10372139Y4084527D01*
X10352476Y4050470D01*
X10328536Y4019270D01*
X10300728Y3991462D01*
X10269529Y3967522D01*
X10235471Y3947860D01*
X10199138Y3932810D01*
X10161152Y3922632D01*
X10122162Y3917500D01*
X10102499Y3917500D01*
X4468244D01*
X4448532Y3917500D01*
X4409445Y3922645D01*
X4371365Y3932849D01*
X4334942Y3947935D01*
X4300800Y3967647D01*
X4269524Y3991647D01*
X4241647Y4019524D01*
X4217647Y4050800D01*
X4197935Y4084942D01*
X4182849Y4121365D01*
X4172645Y4159445D01*
X4167500Y4198531D01*
X4167500Y4218243D01*
Y11686756D01*
X4167500Y11706468D01*
X4172645Y11745554D01*
X4182849Y11783634D01*
X4197936Y11820057D01*
X4217648Y11854199D01*
X4241647Y11885476D01*
X4269524Y11913352D01*
X4300801Y11937352D01*
X4334943Y11957064D01*
X4371365Y11972150D01*
X4409446Y11982354D01*
X4448532Y11987500D01*
X4468244Y11987500D01*
X4468244Y11987500D01*
X10102501Y11987500D01*
D02*
G37*
%LPC*%
G36*
X5282498Y11719999D02*
X5042498D01*
Y11479999D01*
X5282498D01*
Y11719999D01*
D02*
G37*
G36*
X8160335Y10971000D02*
X8139665D01*
X8119700Y10965650D01*
X8101800Y10955316D01*
X8090932Y10944448D01*
X7609000D01*
X7608539Y10944356D01*
X7561148Y10940627D01*
X7514474Y10929421D01*
X7470128Y10911052D01*
X7429201Y10885972D01*
X7392701Y10854799D01*
X7361528Y10818299D01*
X7336448Y10777372D01*
X7318079Y10733026D01*
X7306873Y10686352D01*
X7303144Y10638961D01*
X7303052Y10638500D01*
Y9361568D01*
X7292184Y9350700D01*
X7281850Y9332800D01*
X7276500Y9312835D01*
Y9292165D01*
X7281850Y9272200D01*
X7292184Y9254300D01*
X7306800Y9239684D01*
X7324700Y9229350D01*
X7344665Y9224000D01*
X7365335D01*
X7385300Y9229350D01*
X7403200Y9239684D01*
X7414068Y9250552D01*
X7483513D01*
X7483982Y9249739D01*
X7500739Y9232982D01*
X7521262Y9221133D01*
X7544152Y9215000D01*
X7567849D01*
X7590739Y9221133D01*
X7611261Y9232982D01*
X7628018Y9249739D01*
X7639867Y9270261D01*
X7646000Y9293151D01*
Y9316848D01*
X7639867Y9339738D01*
X7628018Y9360261D01*
X7611261Y9377017D01*
X7590739Y9388866D01*
X7567849Y9394999D01*
X7544152D01*
X7521262Y9388866D01*
X7500739Y9377017D01*
X7483982Y9360261D01*
X7480627Y9354448D01*
X7414068D01*
X7406948Y9361568D01*
Y10638500D01*
X7406477Y10640869D01*
X7410139Y10678056D01*
X7421677Y10716092D01*
X7440414Y10751145D01*
X7465629Y10781870D01*
X7496355Y10807086D01*
X7531408Y10825823D01*
X7569444Y10837361D01*
X7606631Y10841023D01*
X7609000Y10840552D01*
X8090932D01*
X8101800Y10829684D01*
X8119700Y10819349D01*
X8139665Y10814000D01*
X8160335D01*
X8180300Y10819349D01*
X8198200Y10829684D01*
X8212816Y10844300D01*
X8223150Y10862200D01*
X8228500Y10882165D01*
Y10902835D01*
X8223150Y10922800D01*
X8212816Y10940700D01*
X8198200Y10955316D01*
X8180300Y10965650D01*
X8160335Y10971000D01*
D02*
G37*
G36*
X4675001Y10962499D02*
X4435001D01*
Y10722499D01*
X4675001D01*
Y10962499D01*
D02*
G37*
G36*
X9091849Y9902999D02*
X9068152D01*
X9045262Y9896866D01*
X9024739Y9885017D01*
X9007982Y9868261D01*
X8996134Y9847738D01*
X8990000Y9824848D01*
Y9801151D01*
X8996134Y9778261D01*
X9007982Y9757739D01*
X9024739Y9740982D01*
X9045262Y9729133D01*
X9068152Y9723000D01*
X9091849D01*
X9114739Y9729133D01*
X9135261Y9740982D01*
X9152018Y9757739D01*
X9163867Y9778261D01*
X9170000Y9801151D01*
Y9824848D01*
X9163867Y9847738D01*
X9152018Y9868261D01*
X9135261Y9885017D01*
X9114739Y9896866D01*
X9091849Y9902999D01*
D02*
G37*
G36*
Y9648999D02*
X9068152D01*
X9045262Y9642866D01*
X9024739Y9631017D01*
X9007982Y9614261D01*
X8996134Y9593738D01*
X8990000Y9570848D01*
Y9547151D01*
X8996134Y9524261D01*
X9007982Y9503739D01*
X9024739Y9486982D01*
X9045262Y9475133D01*
X9068152Y9469000D01*
X9091849D01*
X9114739Y9475133D01*
X9135261Y9486982D01*
X9152018Y9503739D01*
X9163867Y9524261D01*
X9170000Y9547151D01*
Y9570848D01*
X9163867Y9593738D01*
X9152018Y9614261D01*
X9135261Y9631017D01*
X9114739Y9642866D01*
X9091849Y9648999D01*
D02*
G37*
G36*
X7567849D02*
X7544152D01*
X7521262Y9642866D01*
X7500739Y9631017D01*
X7483982Y9614261D01*
X7472134Y9593738D01*
X7466000Y9570848D01*
Y9547151D01*
X7472134Y9524261D01*
X7483982Y9503739D01*
X7500739Y9486982D01*
X7521262Y9475133D01*
X7544152Y9469000D01*
X7567849D01*
X7590739Y9475133D01*
X7611261Y9486982D01*
X7628018Y9503739D01*
X7639867Y9524261D01*
X7646000Y9547151D01*
Y9570848D01*
X7639867Y9593738D01*
X7628018Y9614261D01*
X7611261Y9631017D01*
X7590739Y9642866D01*
X7567849Y9648999D01*
D02*
G37*
G36*
X10141311Y9857750D02*
X9893811D01*
Y9610250D01*
X9935661D01*
X9943700Y9580250D01*
X9941577Y9579025D01*
X9918536Y9555984D01*
X9902244Y9527766D01*
X9893811Y9496292D01*
Y9463708D01*
X9902244Y9432234D01*
X9918536Y9404016D01*
X9941577Y9380976D01*
X9969795Y9364684D01*
X10001269Y9356250D01*
X10033853D01*
X10065327Y9364684D01*
X10093545Y9380976D01*
X10116585Y9404016D01*
X10132877Y9432234D01*
X10141311Y9463708D01*
Y9496292D01*
X10132877Y9527766D01*
X10116585Y9555984D01*
X10093545Y9579025D01*
X10091422Y9580250D01*
X10099461Y9610250D01*
X10141311D01*
Y9857750D01*
D02*
G37*
G36*
X9091849Y9394999D02*
X9068152D01*
X9045262Y9388866D01*
X9024739Y9377017D01*
X9007982Y9360261D01*
X8996134Y9339738D01*
X8990000Y9316848D01*
Y9293151D01*
X8996134Y9270261D01*
X9007982Y9249739D01*
X9024739Y9232982D01*
X9045262Y9221133D01*
X9068152Y9215000D01*
X9091849D01*
X9114739Y9221133D01*
X9135261Y9232982D01*
X9152018Y9249739D01*
X9163867Y9270261D01*
X9170000Y9293151D01*
Y9316848D01*
X9163867Y9339738D01*
X9152018Y9360261D01*
X9135261Y9377017D01*
X9114739Y9388866D01*
X9091849Y9394999D01*
D02*
G37*
G36*
Y9140999D02*
X9068152D01*
X9045262Y9134866D01*
X9024739Y9123017D01*
X9007982Y9106261D01*
X8996134Y9085738D01*
X8990000Y9062848D01*
Y9039151D01*
X8996134Y9016261D01*
X9007982Y8995739D01*
X9024739Y8978982D01*
X9045262Y8967133D01*
X9068152Y8961000D01*
X9091849D01*
X9114739Y8967133D01*
X9135261Y8978982D01*
X9152018Y8995739D01*
X9163867Y9016261D01*
X9170000Y9039151D01*
Y9062848D01*
X9163867Y9085738D01*
X9152018Y9106261D01*
X9135261Y9123017D01*
X9114739Y9134866D01*
X9091849Y9140999D01*
D02*
G37*
G36*
X7567849D02*
X7544152D01*
X7521262Y9134866D01*
X7500739Y9123017D01*
X7483982Y9106261D01*
X7472134Y9085738D01*
X7466000Y9062848D01*
Y9039151D01*
X7472134Y9016261D01*
X7483982Y8995739D01*
X7500739Y8978982D01*
X7521262Y8967133D01*
X7544152Y8961000D01*
X7567849D01*
X7590739Y8967133D01*
X7611261Y8978982D01*
X7628018Y8995739D01*
X7639867Y9016261D01*
X7646000Y9039151D01*
Y9062848D01*
X7639867Y9085738D01*
X7628018Y9106261D01*
X7611261Y9123017D01*
X7590739Y9134866D01*
X7567849Y9140999D01*
D02*
G37*
G36*
X9091849Y8886999D02*
X9068152D01*
X9045262Y8880866D01*
X9024739Y8869017D01*
X9007982Y8852261D01*
X8996134Y8831738D01*
X8990000Y8808848D01*
Y8785151D01*
X8996134Y8762261D01*
X9007982Y8741739D01*
X9024739Y8724982D01*
X9045262Y8713133D01*
X9068152Y8707000D01*
X9091849D01*
X9114739Y8713133D01*
X9135261Y8724982D01*
X9152018Y8741739D01*
X9163867Y8762261D01*
X9170000Y8785151D01*
Y8808848D01*
X9163867Y8831738D01*
X9152018Y8852261D01*
X9135261Y8869017D01*
X9114739Y8880866D01*
X9091849Y8886999D01*
D02*
G37*
G36*
X10033853Y9095750D02*
X10001269D01*
X9969795Y9087317D01*
X9941577Y9071025D01*
X9918536Y9047984D01*
X9902244Y9019766D01*
X9893811Y8988292D01*
Y8955708D01*
X9902244Y8924234D01*
X9918536Y8896016D01*
X9941577Y8872976D01*
X9961192Y8861651D01*
X9963323Y8854630D01*
Y8835370D01*
X9961192Y8828349D01*
X9941577Y8817025D01*
X9918536Y8793984D01*
X9902244Y8765766D01*
X9893811Y8734292D01*
Y8701708D01*
X9902244Y8670234D01*
X9918536Y8642016D01*
X9941577Y8618976D01*
X9969795Y8602684D01*
X10001269Y8594250D01*
X10033853D01*
X10065327Y8602684D01*
X10093545Y8618976D01*
X10116585Y8642016D01*
X10132877Y8670234D01*
X10141311Y8701708D01*
Y8734292D01*
X10132877Y8765766D01*
X10116585Y8793984D01*
X10093545Y8817025D01*
X10073930Y8828349D01*
X10071798Y8835370D01*
Y8854630D01*
X10073930Y8861651D01*
X10093545Y8872976D01*
X10116585Y8896016D01*
X10132877Y8924234D01*
X10141311Y8955708D01*
Y8988292D01*
X10132877Y9019766D01*
X10116585Y9047984D01*
X10093545Y9071025D01*
X10065327Y9087317D01*
X10033853Y9095750D01*
D02*
G37*
G36*
X9091849Y8632999D02*
X9068152D01*
X9045262Y8626866D01*
X9024739Y8615017D01*
X9007982Y8598261D01*
X8996134Y8577738D01*
X8990000Y8554848D01*
Y8531151D01*
X8996134Y8508261D01*
X9007982Y8487739D01*
X9024739Y8470982D01*
X9045262Y8459133D01*
X9068152Y8453000D01*
X9091849D01*
X9114739Y8459133D01*
X9135261Y8470982D01*
X9152018Y8487739D01*
X9163867Y8508261D01*
X9170000Y8531151D01*
Y8554848D01*
X9163867Y8577738D01*
X9152018Y8598261D01*
X9135261Y8615017D01*
X9114739Y8626866D01*
X9091849Y8632999D01*
D02*
G37*
G36*
X7567849D02*
X7544152D01*
X7521262Y8626866D01*
X7500739Y8615017D01*
X7483982Y8598261D01*
X7472134Y8577738D01*
X7466000Y8554848D01*
Y8531151D01*
X7472134Y8508261D01*
X7483982Y8487739D01*
X7500739Y8470982D01*
X7521262Y8459133D01*
X7544152Y8453000D01*
X7567849D01*
X7590739Y8459133D01*
X7611261Y8470982D01*
X7628018Y8487739D01*
X7639867Y8508261D01*
X7646000Y8531151D01*
Y8554848D01*
X7639867Y8577738D01*
X7628018Y8598261D01*
X7611261Y8615017D01*
X7590739Y8626866D01*
X7567849Y8632999D01*
D02*
G37*
G36*
X9091849Y8378999D02*
X9068152D01*
X9045262Y8372866D01*
X9024739Y8361017D01*
X9007982Y8344261D01*
X8996134Y8323738D01*
X8990000Y8300848D01*
Y8277151D01*
X8996134Y8254261D01*
X9007982Y8233739D01*
X9024739Y8216982D01*
X9045262Y8205133D01*
X9068152Y8199000D01*
X9091849D01*
X9114739Y8205133D01*
X9135261Y8216982D01*
X9152018Y8233739D01*
X9163867Y8254261D01*
X9170000Y8277151D01*
Y8300848D01*
X9163867Y8323738D01*
X9152018Y8344261D01*
X9135261Y8361017D01*
X9114739Y8372866D01*
X9091849Y8378999D01*
D02*
G37*
G36*
X7567849D02*
X7544152D01*
X7521262Y8372866D01*
X7500739Y8361017D01*
X7483982Y8344261D01*
X7472134Y8323738D01*
X7466000Y8300848D01*
Y8277151D01*
X7472134Y8254261D01*
X7483982Y8233739D01*
X7500739Y8216982D01*
X7521262Y8205133D01*
X7544152Y8199000D01*
X7567849D01*
X7590739Y8205133D01*
X7611261Y8216982D01*
X7628018Y8233739D01*
X7639867Y8254261D01*
X7646000Y8277151D01*
Y8300848D01*
X7639867Y8323738D01*
X7628018Y8344261D01*
X7611261Y8361017D01*
X7590739Y8372866D01*
X7567849Y8378999D01*
D02*
G37*
G36*
X9091849Y8124999D02*
X9068152D01*
X9045262Y8118866D01*
X9024739Y8107017D01*
X9007982Y8090261D01*
X8996134Y8069738D01*
X8990000Y8046848D01*
Y8023151D01*
X8996134Y8000261D01*
X9007982Y7979739D01*
X9024739Y7962982D01*
X9045262Y7951133D01*
X9068152Y7945000D01*
X9091849D01*
X9114739Y7951133D01*
X9135261Y7962982D01*
X9152018Y7979739D01*
X9163867Y8000261D01*
X9170000Y8023151D01*
Y8046848D01*
X9163867Y8069738D01*
X9152018Y8090261D01*
X9135261Y8107017D01*
X9114739Y8118866D01*
X9091849Y8124999D01*
D02*
G37*
G36*
X7567849D02*
X7544152D01*
X7521262Y8118866D01*
X7500739Y8107017D01*
X7483982Y8090261D01*
X7472134Y8069738D01*
X7466000Y8046848D01*
Y8023151D01*
X7472134Y8000261D01*
X7483982Y7979739D01*
X7500739Y7962982D01*
X7521262Y7951133D01*
X7544152Y7945000D01*
X7567849D01*
X7590739Y7951133D01*
X7611261Y7962982D01*
X7628018Y7979739D01*
X7639867Y8000261D01*
X7646000Y8023151D01*
Y8046848D01*
X7639867Y8069738D01*
X7628018Y8090261D01*
X7611261Y8107017D01*
X7590739Y8118866D01*
X7567849Y8124999D01*
D02*
G37*
G36*
X10030347Y8018999D02*
X10004675D01*
X9979877Y8012354D01*
X9957645Y7999518D01*
X9939491Y7981365D01*
X9926656Y7959133D01*
X9920011Y7934335D01*
Y7908663D01*
X9926656Y7883865D01*
X9939491Y7861633D01*
X9957645Y7843480D01*
X9979877Y7830644D01*
X10004675Y7823999D01*
X10030347D01*
X10055144Y7830644D01*
X10077377Y7843480D01*
X10095530Y7861633D01*
X10108366Y7883865D01*
X10115011Y7908663D01*
Y7934335D01*
X10108366Y7959133D01*
X10095530Y7981365D01*
X10077377Y7999518D01*
X10055144Y8012354D01*
X10030347Y8018999D01*
D02*
G37*
G36*
X7567849Y7870999D02*
X7544152D01*
X7521262Y7864866D01*
X7500739Y7853017D01*
X7483982Y7836261D01*
X7472134Y7815738D01*
X7466000Y7792848D01*
Y7769151D01*
X7472134Y7746261D01*
X7483982Y7725739D01*
X7500739Y7708982D01*
X7521262Y7697133D01*
X7544152Y7691000D01*
X7567849D01*
X7590739Y7697133D01*
X7611261Y7708982D01*
X7628018Y7725739D01*
X7639867Y7746261D01*
X7646000Y7769151D01*
Y7792848D01*
X7639867Y7815738D01*
X7628018Y7836261D01*
X7611261Y7853017D01*
X7590739Y7864866D01*
X7567849Y7870999D01*
D02*
G37*
G36*
Y8886999D02*
X7544152D01*
X7521262Y8880866D01*
X7500739Y8869017D01*
X7483982Y8852261D01*
X7472134Y8831738D01*
X7466000Y8808848D01*
Y8785151D01*
X7472134Y8762261D01*
X7483982Y8741739D01*
X7500739Y8724982D01*
X7521262Y8713133D01*
X7544152Y8707000D01*
X7567849D01*
X7583144Y8711098D01*
X8552764Y7741478D01*
X8573772Y7720059D01*
X8573772Y7720060D01*
X8607764Y7691028D01*
X8645879Y7667671D01*
X8687179Y7650564D01*
X8730646Y7640128D01*
X8775211Y7636621D01*
Y7636911D01*
X9924768D01*
X9926656Y7629865D01*
X9939491Y7607633D01*
X9957645Y7589480D01*
X9979877Y7576644D01*
X10004675Y7569999D01*
X10030347D01*
X10055144Y7576644D01*
X10077377Y7589480D01*
X10095530Y7607633D01*
X10108366Y7629865D01*
X10115011Y7654663D01*
Y7680335D01*
X10108366Y7705133D01*
X10095530Y7727365D01*
X10077377Y7745518D01*
X10055144Y7758354D01*
X10030347Y7764999D01*
X10004675D01*
X9979877Y7758354D01*
X9957645Y7745518D01*
X9939491Y7727365D01*
X9926656Y7705133D01*
X9924768Y7698087D01*
X9166792D01*
X9156064Y7718165D01*
X9153373Y7728087D01*
X9163867Y7746261D01*
X9170000Y7769151D01*
Y7792848D01*
X9163867Y7815738D01*
X9152018Y7836261D01*
X9135261Y7853017D01*
X9114739Y7864866D01*
X9091849Y7870999D01*
X9068152D01*
X9045262Y7864866D01*
X9024739Y7853017D01*
X9007982Y7836261D01*
X8996134Y7815738D01*
X8990000Y7792848D01*
Y7769151D01*
X8996134Y7746261D01*
X9006627Y7728087D01*
X9003936Y7718165D01*
X8993208Y7698087D01*
X8775211D01*
X8773882Y7697822D01*
X8731548Y7701992D01*
X8689564Y7714728D01*
X8650870Y7735410D01*
X8639467Y7744768D01*
X8617235Y7763523D01*
X8617234Y7763523D01*
X7632044Y8748713D01*
X7639867Y8762261D01*
X7646000Y8785151D01*
Y8808848D01*
X7639867Y8831738D01*
X7628018Y8852261D01*
X7611261Y8869017D01*
X7590739Y8880866D01*
X7567849Y8886999D01*
D02*
G37*
G36*
Y7616999D02*
X7544152D01*
X7521262Y7610866D01*
X7500739Y7599017D01*
X7483982Y7582261D01*
X7472134Y7561738D01*
X7466000Y7538848D01*
Y7515151D01*
X7472134Y7492261D01*
X7483982Y7471739D01*
X7500739Y7454982D01*
X7521262Y7443133D01*
X7544152Y7437000D01*
X7567849D01*
X7590739Y7443133D01*
X7611261Y7454982D01*
X7628018Y7471739D01*
X7639867Y7492261D01*
X7646000Y7515151D01*
Y7538848D01*
X7639867Y7561738D01*
X7628018Y7582261D01*
X7611261Y7599017D01*
X7590739Y7610866D01*
X7567849Y7616999D01*
D02*
G37*
G36*
X10115011Y7510999D02*
X9920011D01*
Y7461131D01*
X9880892Y7451739D01*
X9842137Y7435686D01*
X9806371Y7413769D01*
X9774473Y7386526D01*
X9747230Y7354628D01*
X9725313Y7318862D01*
X9709260Y7280107D01*
X9699467Y7239319D01*
X9696284Y7198875D01*
X9696011Y7197500D01*
Y4845500D01*
X9696477Y4843154D01*
X9692804Y4805856D01*
X9681240Y4767735D01*
X9662461Y4732603D01*
X9637190Y4701810D01*
X9606397Y4676538D01*
X9571264Y4657760D01*
X9533144Y4646196D01*
X9495846Y4642523D01*
X9493500Y4642989D01*
X7222503D01*
X7211022Y4670706D01*
X7352013Y4811696D01*
X7352239Y4812035D01*
X7383107Y4848176D01*
X7408151Y4889043D01*
X7426492Y4933324D01*
X7436338Y4974335D01*
X7466000Y4975151D01*
X7472134Y4952261D01*
X7483982Y4931739D01*
X7500739Y4914982D01*
X7521262Y4903133D01*
X7544152Y4897000D01*
X7567849D01*
X7590739Y4903133D01*
X7611261Y4914982D01*
X7628018Y4931739D01*
X7639867Y4952261D01*
X7646000Y4975151D01*
Y4998848D01*
X7639867Y5021738D01*
X7628018Y5042261D01*
X7611261Y5059017D01*
X7590739Y5070866D01*
X7567849Y5076999D01*
X7544152D01*
X7521262Y5070866D01*
X7500739Y5059017D01*
X7483982Y5042261D01*
X7472134Y5021738D01*
X7442554Y5027257D01*
X7441489Y5027711D01*
Y5204716D01*
X7471489Y5208666D01*
X7472134Y5206261D01*
X7483982Y5185739D01*
X7500739Y5168982D01*
X7521262Y5157133D01*
X7544152Y5151000D01*
X7567849D01*
X7590739Y5157133D01*
X7611261Y5168982D01*
X7628018Y5185739D01*
X7639867Y5206261D01*
X7646000Y5229151D01*
Y5252848D01*
X7639867Y5275738D01*
X7628018Y5296261D01*
X7611261Y5313017D01*
X7590739Y5324866D01*
X7567849Y5330999D01*
X7544152D01*
X7521262Y5324866D01*
X7500739Y5313017D01*
X7483982Y5296261D01*
X7472134Y5275738D01*
X7471489Y5273333D01*
X7441489Y5277283D01*
Y5379970D01*
X7441377Y5380534D01*
X7437741Y5426736D01*
X7426790Y5472351D01*
X7408838Y5515691D01*
X7384327Y5555689D01*
X7354227Y5590932D01*
X7353908Y5591408D01*
X7353937Y5591437D01*
X7321553Y5618013D01*
X7284606Y5637762D01*
X7244517Y5649923D01*
X7202825Y5654029D01*
Y5653989D01*
X6125000D01*
Y5700000D01*
X6063651D01*
X6045651Y5743457D01*
X6020607Y5784324D01*
X5989739Y5820466D01*
X5989514Y5820803D01*
X5448500Y6361817D01*
Y6377835D01*
X5443150Y6397800D01*
X5432816Y6415700D01*
X5418200Y6430316D01*
X5400300Y6440651D01*
X5380335Y6446000D01*
X5359665D01*
X5339700Y6440651D01*
X5321800Y6430316D01*
X5307184Y6415700D01*
X5296849Y6397800D01*
X5291500Y6377835D01*
Y6357165D01*
X5296849Y6337200D01*
X5307184Y6319300D01*
X5321800Y6304684D01*
X5339700Y6294350D01*
X5359665Y6289000D01*
X5375683D01*
X5916697Y5747986D01*
X5918685Y5746658D01*
X5932356Y5730000D01*
X5930000Y5700000D01*
X5930000D01*
Y5505000D01*
X6125000D01*
Y5551010D01*
X7202825D01*
X7204858Y5551415D01*
X7231647Y5547888D01*
X7258504Y5536764D01*
X7279940Y5520315D01*
X7281092Y5518592D01*
X7282991Y5517322D01*
X7306026Y5489254D01*
X7324204Y5455246D01*
X7335397Y5418346D01*
X7338956Y5382211D01*
X7338511Y5379970D01*
Y5027710D01*
X7338977Y5025364D01*
X7335304Y4988066D01*
X7323740Y4949946D01*
X7304962Y4914814D01*
X7281186Y4885842D01*
X7279197Y4884513D01*
X7078117Y4683434D01*
X7071342Y4685250D01*
X7046657D01*
X7022814Y4678861D01*
X7001436Y4666518D01*
X6983981Y4649064D01*
X6971639Y4627686D01*
X6965250Y4603842D01*
Y4579157D01*
X6971639Y4555314D01*
X6983981Y4533936D01*
X7001436Y4516481D01*
X7022814Y4504139D01*
X7028412Y4502639D01*
Y4426361D01*
X7022814Y4424861D01*
X7001436Y4412518D01*
X6983981Y4395064D01*
X6971639Y4373686D01*
X6965250Y4349842D01*
Y4325157D01*
X6971639Y4301314D01*
X6983981Y4279936D01*
X7001436Y4262481D01*
X7022814Y4250139D01*
X7046657Y4243750D01*
X7071342D01*
X7095186Y4250139D01*
X7116564Y4262481D01*
X7134018Y4279936D01*
X7146361Y4301314D01*
X7152750Y4325157D01*
Y4349842D01*
X7146361Y4373686D01*
X7134018Y4395064D01*
X7116564Y4412518D01*
X7095186Y4424861D01*
X7089588Y4426361D01*
Y4502639D01*
X7095186Y4504139D01*
X7116564Y4516481D01*
X7134018Y4533936D01*
X7137525Y4540010D01*
X9493500D01*
X9493897Y4540089D01*
X9541282Y4543819D01*
X9587887Y4555008D01*
X9632167Y4573349D01*
X9673034Y4598392D01*
X9709480Y4629520D01*
X9740607Y4665966D01*
X9765651Y4706832D01*
X9783992Y4751113D01*
X9795181Y4797718D01*
X9798910Y4845103D01*
X9798989Y4845500D01*
Y7197500D01*
X9798646Y7199228D01*
X9801646Y7229694D01*
X9811037Y7260652D01*
X9826287Y7289182D01*
X9846810Y7314189D01*
X9871817Y7334712D01*
X9890011Y7344437D01*
X9920011Y7330232D01*
Y7315999D01*
X10115011D01*
Y7510999D01*
D02*
G37*
G36*
X9091849Y7362999D02*
X9068152D01*
X9045262Y7356866D01*
X9024739Y7345017D01*
X9007982Y7328261D01*
X8996134Y7307738D01*
X8990000Y7284848D01*
Y7261151D01*
X8996134Y7238261D01*
X9007982Y7217739D01*
X9024739Y7200982D01*
X9045262Y7189133D01*
X9068152Y7183000D01*
X9091849D01*
X9114739Y7189133D01*
X9135261Y7200982D01*
X9152018Y7217739D01*
X9163867Y7238261D01*
X9170000Y7261151D01*
Y7284848D01*
X9163867Y7307738D01*
X9152018Y7328261D01*
X9135261Y7345017D01*
X9114739Y7356866D01*
X9091849Y7362999D01*
D02*
G37*
G36*
X7567849D02*
X7544152D01*
X7521262Y7356866D01*
X7500739Y7345017D01*
X7483982Y7328261D01*
X7472134Y7307738D01*
X7466000Y7284848D01*
Y7261151D01*
X7472134Y7238261D01*
X7483982Y7217739D01*
X7500739Y7200982D01*
X7521262Y7189133D01*
X7544152Y7183000D01*
X7567849D01*
X7590739Y7189133D01*
X7611261Y7200982D01*
X7628018Y7217739D01*
X7639867Y7238261D01*
X7646000Y7261151D01*
Y7284848D01*
X7639867Y7307738D01*
X7628018Y7328261D01*
X7611261Y7345017D01*
X7590739Y7356866D01*
X7567849Y7362999D01*
D02*
G37*
G36*
X6825005Y7108800D02*
X6675005D01*
Y6958800D01*
X6825005D01*
Y7108800D01*
D02*
G37*
G36*
X9091849Y7108999D02*
X9068152D01*
X9045262Y7102866D01*
X9024739Y7091017D01*
X9007982Y7074261D01*
X8996134Y7053738D01*
X8990000Y7030848D01*
Y7007151D01*
X8996134Y6984261D01*
X9007982Y6963739D01*
X9024739Y6946982D01*
X9045262Y6935133D01*
X9068152Y6929000D01*
X9091849D01*
X9114739Y6935133D01*
X9135261Y6946982D01*
X9152018Y6963739D01*
X9163867Y6984261D01*
X9170000Y7007151D01*
Y7030848D01*
X9163867Y7053738D01*
X9152018Y7074261D01*
X9135261Y7091017D01*
X9114739Y7102866D01*
X9091849Y7108999D01*
D02*
G37*
G36*
Y6854999D02*
X9068152D01*
X9045262Y6848866D01*
X9024739Y6837017D01*
X9007982Y6820261D01*
X8996134Y6799738D01*
X8990000Y6776848D01*
Y6753151D01*
X8996134Y6730261D01*
X9007982Y6709739D01*
X9024739Y6692982D01*
X9045262Y6681133D01*
X9068152Y6675000D01*
X9091849D01*
X9114739Y6681133D01*
X9135261Y6692982D01*
X9152018Y6709739D01*
X9163867Y6730261D01*
X9170000Y6753151D01*
Y6776848D01*
X9163867Y6799738D01*
X9152018Y6820261D01*
X9135261Y6837017D01*
X9114739Y6848866D01*
X9091849Y6854999D01*
D02*
G37*
G36*
X7567849D02*
X7544152D01*
X7521262Y6848866D01*
X7500739Y6837017D01*
X7483982Y6820261D01*
X7472134Y6799738D01*
X7466000Y6776848D01*
Y6753151D01*
X7472134Y6730261D01*
X7483982Y6709739D01*
X7500739Y6692982D01*
X7521262Y6681133D01*
X7544152Y6675000D01*
X7567849D01*
X7590739Y6681133D01*
X7611261Y6692982D01*
X7628018Y6709739D01*
X7639867Y6730261D01*
X7646000Y6753151D01*
Y6776848D01*
X7639867Y6799738D01*
X7628018Y6820261D01*
X7611261Y6837017D01*
X7590739Y6848866D01*
X7567849Y6854999D01*
D02*
G37*
G36*
X10069360Y6662505D02*
X10045662D01*
X10022772Y6656372D01*
X10002250Y6644523D01*
X9985493Y6627766D01*
X9973645Y6607244D01*
X9967511Y6584354D01*
Y6560657D01*
X9973645Y6537767D01*
X9985493Y6517244D01*
X10002250Y6500488D01*
X10022772Y6488639D01*
X10045662Y6482505D01*
X10069360D01*
X10092250Y6488639D01*
X10112772Y6500488D01*
X10129529Y6517244D01*
X10141377Y6537767D01*
X10147511Y6560657D01*
Y6584354D01*
X10141377Y6607244D01*
X10129529Y6627766D01*
X10112772Y6644523D01*
X10092250Y6656372D01*
X10069360Y6662505D01*
D02*
G37*
G36*
X9091849Y6600999D02*
X9068152D01*
X9045262Y6594866D01*
X9024739Y6583017D01*
X9007982Y6566261D01*
X8996134Y6545738D01*
X8990000Y6522848D01*
Y6499151D01*
X8996134Y6476261D01*
X9007982Y6455739D01*
X9024739Y6438982D01*
X9045262Y6427133D01*
X9068152Y6421000D01*
X9091849D01*
X9114739Y6427133D01*
X9135261Y6438982D01*
X9152018Y6455739D01*
X9163867Y6476261D01*
X9170000Y6499151D01*
Y6522848D01*
X9163867Y6545738D01*
X9152018Y6566261D01*
X9135261Y6583017D01*
X9114739Y6594866D01*
X9091849Y6600999D01*
D02*
G37*
G36*
X7567849D02*
X7544152D01*
X7521262Y6594866D01*
X7500739Y6583017D01*
X7483982Y6566261D01*
X7472134Y6545738D01*
X7466000Y6522848D01*
Y6499151D01*
X7472134Y6476261D01*
X7483982Y6455739D01*
X7500739Y6438982D01*
X7521262Y6427133D01*
X7544152Y6421000D01*
X7567849D01*
X7590739Y6427133D01*
X7611261Y6438982D01*
X7628018Y6455739D01*
X7639867Y6476261D01*
X7646000Y6499151D01*
Y6522848D01*
X7639867Y6545738D01*
X7628018Y6566261D01*
X7611261Y6583017D01*
X7590739Y6594866D01*
X7567849Y6600999D01*
D02*
G37*
G36*
X10033500Y10223989D02*
X7810000D01*
X7809603Y10223910D01*
X7762218Y10220181D01*
X7715613Y10208992D01*
X7671333Y10190651D01*
X7630466Y10165608D01*
X7594020Y10134480D01*
X7562893Y10098034D01*
X7537850Y10057168D01*
X7519508Y10012887D01*
X7508319Y9966282D01*
X7504590Y9918897D01*
X7504511Y9918500D01*
Y9902999D01*
X7466000D01*
Y9723000D01*
X7646000D01*
Y9902999D01*
X7628911D01*
X7608220Y9933000D01*
X7610696Y9958144D01*
X7622260Y9996264D01*
X7641039Y10031397D01*
X7666310Y10062190D01*
X7697103Y10087462D01*
X7732236Y10106240D01*
X7770356Y10117804D01*
X7807654Y10121477D01*
X7810000Y10121011D01*
X10033500D01*
X10035846Y10121477D01*
X10073144Y10117804D01*
X10111265Y10106240D01*
X10146397Y10087462D01*
X10177190Y10062190D01*
X10202462Y10031397D01*
X10221240Y9996264D01*
X10232804Y9958144D01*
X10236477Y9920846D01*
X10236011Y9918500D01*
Y6552494D01*
X10236400Y6550539D01*
X10233151Y6517557D01*
X10222961Y6483963D01*
X10206412Y6453002D01*
X10184141Y6425865D01*
X10157003Y6403594D01*
X10126042Y6387045D01*
X10121598Y6385697D01*
X10112772Y6394523D01*
X10092250Y6406372D01*
X10069360Y6412505D01*
X10045662D01*
X10022772Y6406372D01*
X10002250Y6394523D01*
X9985493Y6377766D01*
X9973645Y6357244D01*
X9967511Y6334354D01*
Y6310657D01*
X9973645Y6287767D01*
X9985493Y6267244D01*
X10002250Y6250488D01*
X10022772Y6238639D01*
X10045662Y6232505D01*
X10069360D01*
X10092250Y6238639D01*
X10112772Y6250488D01*
X10129529Y6267244D01*
X10138967Y6283591D01*
X10144455Y6284908D01*
X10185244Y6301804D01*
X10222888Y6324872D01*
X10256460Y6353545D01*
X10285133Y6387117D01*
X10308202Y6424761D01*
X10325097Y6465550D01*
X10335404Y6508481D01*
X10338788Y6551480D01*
X10338989Y6552494D01*
Y9918500D01*
X10338910Y9918897D01*
X10335181Y9966282D01*
X10323992Y10012887D01*
X10305651Y10057168D01*
X10280608Y10098034D01*
X10249480Y10134480D01*
X10213034Y10165608D01*
X10172168Y10190651D01*
X10127887Y10208992D01*
X10081282Y10220181D01*
X10033897Y10223910D01*
X10033500Y10223989D01*
D02*
G37*
G36*
X6759879Y6346200D02*
X6740131D01*
X6721056Y6341089D01*
X6703954Y6331215D01*
X6689990Y6317251D01*
X6680116Y6300149D01*
X6675005Y6281074D01*
Y6261326D01*
X6680116Y6242251D01*
X6689990Y6225149D01*
X6703954Y6211185D01*
X6721056Y6201311D01*
X6740131Y6196200D01*
X6759879D01*
X6778954Y6201311D01*
X6796056Y6211185D01*
X6810020Y6225149D01*
X6819894Y6242251D01*
X6825005Y6261326D01*
Y6281074D01*
X6819894Y6300149D01*
X6810020Y6317251D01*
X6796056Y6331215D01*
X6778954Y6341089D01*
X6759879Y6346200D01*
D02*
G37*
G36*
X9091849Y6346999D02*
X9068152D01*
X9045262Y6340866D01*
X9024739Y6329017D01*
X9007982Y6312261D01*
X8996134Y6291738D01*
X8990000Y6268848D01*
Y6245151D01*
X8996134Y6222261D01*
X9007982Y6201739D01*
X9024739Y6184982D01*
X9045262Y6173133D01*
X9068152Y6167000D01*
X9091849D01*
X9114739Y6173133D01*
X9135261Y6184982D01*
X9152018Y6201739D01*
X9163867Y6222261D01*
X9170000Y6245151D01*
Y6268848D01*
X9163867Y6291738D01*
X9152018Y6312261D01*
X9135261Y6329017D01*
X9114739Y6340866D01*
X9091849Y6346999D01*
D02*
G37*
G36*
X7567849D02*
X7544152D01*
X7521262Y6340866D01*
X7500739Y6329017D01*
X7483982Y6312261D01*
X7472134Y6291738D01*
X7466000Y6268848D01*
Y6245151D01*
X7472134Y6222261D01*
X7483982Y6201739D01*
X7500739Y6184982D01*
X7521262Y6173133D01*
X7544152Y6167000D01*
X7567849D01*
X7590739Y6173133D01*
X7611261Y6184982D01*
X7628018Y6201739D01*
X7639867Y6222261D01*
X7646000Y6245151D01*
Y6268848D01*
X7639867Y6291738D01*
X7628018Y6312261D01*
X7611261Y6329017D01*
X7590739Y6340866D01*
X7567849Y6346999D01*
D02*
G37*
G36*
X10147511Y6162505D02*
X9967511D01*
Y5982505D01*
X10147511D01*
Y6162505D01*
D02*
G37*
G36*
X9091849Y6092999D02*
X9068152D01*
X9045262Y6086866D01*
X9024739Y6075017D01*
X9007982Y6058261D01*
X8996134Y6037738D01*
X8990000Y6014848D01*
Y5991151D01*
X8996134Y5968261D01*
X9007982Y5947739D01*
X9024739Y5930982D01*
X9045262Y5919133D01*
X9068152Y5913000D01*
X9091849D01*
X9114739Y5919133D01*
X9135261Y5930982D01*
X9152018Y5947739D01*
X9163867Y5968261D01*
X9170000Y5991151D01*
Y6014848D01*
X9163867Y6037738D01*
X9152018Y6058261D01*
X9135261Y6075017D01*
X9114739Y6086866D01*
X9091849Y6092999D01*
D02*
G37*
G36*
X7567849D02*
X7544152D01*
X7521262Y6086866D01*
X7500739Y6075017D01*
X7483982Y6058261D01*
X7472134Y6037738D01*
X7466000Y6014848D01*
Y5991151D01*
X7472134Y5968261D01*
X7483982Y5947739D01*
X7500739Y5930982D01*
X7521262Y5919133D01*
X7544152Y5913000D01*
X7567849D01*
X7590739Y5919133D01*
X7611261Y5930982D01*
X7628018Y5947739D01*
X7639867Y5968261D01*
X7646000Y5991151D01*
Y6014848D01*
X7639867Y6037738D01*
X7628018Y6058261D01*
X7611261Y6075017D01*
X7590739Y6086866D01*
X7567849Y6092999D01*
D02*
G37*
G36*
X9091849Y5838999D02*
X9068152D01*
X9045262Y5832866D01*
X9024739Y5821017D01*
X9007982Y5804261D01*
X8996134Y5783738D01*
X8990000Y5760848D01*
Y5737151D01*
X8996134Y5714261D01*
X9007982Y5693739D01*
X9024739Y5676982D01*
X9045262Y5665133D01*
X9068152Y5659000D01*
X9091849D01*
X9114739Y5665133D01*
X9135261Y5676982D01*
X9152018Y5693739D01*
X9163867Y5714261D01*
X9170000Y5737151D01*
Y5760848D01*
X9163867Y5783738D01*
X9152018Y5804261D01*
X9135261Y5821017D01*
X9114739Y5832866D01*
X9091849Y5838999D01*
D02*
G37*
G36*
X7567849D02*
X7544152D01*
X7521262Y5832866D01*
X7500739Y5821017D01*
X7483982Y5804261D01*
X7472134Y5783738D01*
X7466000Y5760848D01*
Y5737151D01*
X7472134Y5714261D01*
X7483982Y5693739D01*
X7500739Y5676982D01*
X7521262Y5665133D01*
X7544152Y5659000D01*
X7567849D01*
X7590739Y5665133D01*
X7611261Y5676982D01*
X7628018Y5693739D01*
X7639867Y5714261D01*
X7646000Y5737151D01*
Y5760848D01*
X7639867Y5783738D01*
X7628018Y5804261D01*
X7611261Y5821017D01*
X7590739Y5832866D01*
X7567849Y5838999D01*
D02*
G37*
G36*
X9091849Y5584999D02*
X9068152D01*
X9045262Y5578866D01*
X9024739Y5567017D01*
X9007982Y5550261D01*
X8996134Y5529738D01*
X8990000Y5506848D01*
Y5483151D01*
X8996134Y5460261D01*
X9007982Y5439739D01*
X9024739Y5422982D01*
X9045262Y5411133D01*
X9068152Y5405000D01*
X9091849D01*
X9114739Y5411133D01*
X9135261Y5422982D01*
X9152018Y5439739D01*
X9163867Y5460261D01*
X9170000Y5483151D01*
Y5506848D01*
X9163867Y5529738D01*
X9152018Y5550261D01*
X9135261Y5567017D01*
X9114739Y5578866D01*
X9091849Y5584999D01*
D02*
G37*
G36*
X7567849D02*
X7544152D01*
X7521262Y5578866D01*
X7500739Y5567017D01*
X7483982Y5550261D01*
X7472134Y5529738D01*
X7466000Y5506848D01*
Y5483151D01*
X7472134Y5460261D01*
X7483982Y5439739D01*
X7500739Y5422982D01*
X7521262Y5411133D01*
X7544152Y5405000D01*
X7567849D01*
X7590739Y5411133D01*
X7611261Y5422982D01*
X7628018Y5439739D01*
X7639867Y5460261D01*
X7646000Y5483151D01*
Y5506848D01*
X7639867Y5529738D01*
X7628018Y5550261D01*
X7611261Y5567017D01*
X7590739Y5578866D01*
X7567849Y5584999D01*
D02*
G37*
G36*
X5797500Y5700000D02*
X5602500D01*
Y5505000D01*
X5724035D01*
X5953872Y5275162D01*
X5954264Y5274900D01*
X5990411Y5244028D01*
X6031338Y5218948D01*
X6075684Y5200579D01*
X6122358Y5189373D01*
X6169749Y5185644D01*
X6170210Y5185552D01*
X7133432D01*
X7144300Y5174684D01*
X7162200Y5164350D01*
X7182165Y5159000D01*
X7202835D01*
X7222800Y5164350D01*
X7240700Y5174684D01*
X7255316Y5189300D01*
X7265650Y5207200D01*
X7271000Y5227165D01*
Y5247835D01*
X7265650Y5267800D01*
X7255316Y5285700D01*
X7240700Y5300316D01*
X7222800Y5310651D01*
X7202835Y5316000D01*
X7182165D01*
X7162200Y5310651D01*
X7144300Y5300316D01*
X7133432Y5289448D01*
X6170210D01*
X6167841Y5288977D01*
X6130654Y5292639D01*
X6092618Y5304177D01*
X6057565Y5322914D01*
X6028680Y5346619D01*
X6027338Y5348628D01*
X5797500Y5578465D01*
Y5700000D01*
D02*
G37*
G36*
X9091849Y5330999D02*
X9068152D01*
X9045262Y5324866D01*
X9024739Y5313017D01*
X9007982Y5296261D01*
X8996134Y5275738D01*
X8990000Y5252848D01*
Y5229151D01*
X8996134Y5206261D01*
X9007982Y5185739D01*
X9024739Y5168982D01*
X9045262Y5157133D01*
X9068152Y5151000D01*
X9091849D01*
X9114739Y5157133D01*
X9135261Y5168982D01*
X9152018Y5185739D01*
X9163867Y5206261D01*
X9170000Y5229151D01*
Y5252848D01*
X9163867Y5275738D01*
X9152018Y5296261D01*
X9135261Y5313017D01*
X9114739Y5324866D01*
X9091849Y5330999D01*
D02*
G37*
G36*
Y5076999D02*
X9068152D01*
X9045262Y5070866D01*
X9024739Y5059017D01*
X9007982Y5042261D01*
X8996134Y5021738D01*
X8990000Y4998848D01*
Y4975151D01*
X8996134Y4952261D01*
X9007982Y4931739D01*
X9024739Y4914982D01*
X9045262Y4903133D01*
X9068152Y4897000D01*
X9091849D01*
X9114739Y4903133D01*
X9135261Y4914982D01*
X9152018Y4931739D01*
X9163867Y4952261D01*
X9170000Y4975151D01*
Y4998848D01*
X9163867Y5021738D01*
X9152018Y5042261D01*
X9135261Y5059017D01*
X9114739Y5070866D01*
X9091849Y5076999D01*
D02*
G37*
G36*
X6817342Y4685250D02*
X6792657D01*
X6768814Y4678861D01*
X6747436Y4666518D01*
X6729981Y4649064D01*
X6717639Y4627686D01*
X6711250Y4603842D01*
Y4579157D01*
X6717639Y4555314D01*
X6729981Y4533936D01*
X6747436Y4516481D01*
X6768814Y4504139D01*
X6792657Y4497750D01*
X6817342D01*
X6841186Y4504139D01*
X6862564Y4516481D01*
X6880018Y4533936D01*
X6892361Y4555314D01*
X6898750Y4579157D01*
Y4603842D01*
X6892361Y4627686D01*
X6880018Y4649064D01*
X6862564Y4666518D01*
X6841186Y4678861D01*
X6817342Y4685250D01*
D02*
G37*
G36*
X6563342D02*
X6538657D01*
X6514814Y4678861D01*
X6493436Y4666518D01*
X6475981Y4649064D01*
X6463639Y4627686D01*
X6457250Y4603842D01*
Y4579157D01*
X6463639Y4555314D01*
X6475981Y4533936D01*
X6493436Y4516481D01*
X6514814Y4504139D01*
X6538657Y4497750D01*
X6563342D01*
X6587186Y4504139D01*
X6608564Y4516481D01*
X6626018Y4533936D01*
X6638361Y4555314D01*
X6644750Y4579157D01*
Y4603842D01*
X6638361Y4627686D01*
X6626018Y4649064D01*
X6608564Y4666518D01*
X6587186Y4678861D01*
X6563342Y4685250D01*
D02*
G37*
G36*
X6309342D02*
X6284657D01*
X6260814Y4678861D01*
X6239436Y4666518D01*
X6221981Y4649064D01*
X6209639Y4627686D01*
X6203250Y4603842D01*
Y4579157D01*
X6209639Y4555314D01*
X6221981Y4533936D01*
X6239436Y4516481D01*
X6260814Y4504139D01*
X6284657Y4497750D01*
X6309342D01*
X6333186Y4504139D01*
X6354564Y4516481D01*
X6372018Y4533936D01*
X6384361Y4555314D01*
X6390750Y4579157D01*
Y4603842D01*
X6384361Y4627686D01*
X6372018Y4649064D01*
X6354564Y4666518D01*
X6333186Y4678861D01*
X6309342Y4685250D01*
D02*
G37*
G36*
X5482000Y4675602D02*
X5463726Y4673196D01*
X5446698Y4666143D01*
X5432075Y4654923D01*
X5420855Y4640300D01*
X5413802Y4623272D01*
X5411396Y4604998D01*
Y4544998D01*
X5413802Y4526725D01*
X5420855Y4509696D01*
X5432075Y4495074D01*
X5446698Y4483854D01*
X5463726Y4476800D01*
X5482000Y4474394D01*
X5500273Y4476800D01*
X5517302Y4483854D01*
X5531924Y4495074D01*
X5543144Y4509696D01*
X5550198Y4526725D01*
X5552604Y4544998D01*
Y4604998D01*
X5550198Y4623272D01*
X5543144Y4640300D01*
X5531924Y4654923D01*
X5517302Y4666143D01*
X5500273Y4673196D01*
X5482000Y4675602D01*
D02*
G37*
G36*
X4618000D02*
X4599726Y4673196D01*
X4582698Y4666143D01*
X4568075Y4654923D01*
X4556855Y4640300D01*
X4549802Y4623272D01*
X4547396Y4604998D01*
Y4544998D01*
X4549802Y4526725D01*
X4556855Y4509696D01*
X4568075Y4495074D01*
X4582698Y4483854D01*
X4599726Y4476800D01*
X4618000Y4474394D01*
X4636273Y4476800D01*
X4653302Y4483854D01*
X4667924Y4495074D01*
X4679145Y4509696D01*
X4686198Y4526725D01*
X4688604Y4544998D01*
Y4604998D01*
X4686198Y4623272D01*
X4679145Y4640300D01*
X4667924Y4654923D01*
X4653302Y4666143D01*
X4636273Y4673196D01*
X4618000Y4675602D01*
D02*
G37*
G36*
X6390750Y4431250D02*
X6203250D01*
Y4243750D01*
X6390750D01*
Y4431250D01*
D02*
G37*
G36*
X8242836Y4427506D02*
X8217164D01*
X8192366Y4420862D01*
X8170134Y4408026D01*
X8151981Y4389873D01*
X8139145Y4367640D01*
X8132500Y4342842D01*
Y4317170D01*
X8139145Y4292373D01*
X8151981Y4270140D01*
X8170134Y4251987D01*
X8192366Y4239151D01*
X8217164Y4232506D01*
X8242836D01*
X8267634Y4239151D01*
X8289866Y4251987D01*
X8308019Y4270140D01*
X8320855Y4292373D01*
X8327500Y4317170D01*
Y4342842D01*
X8320855Y4367640D01*
X8308019Y4389873D01*
X8289866Y4408026D01*
X8267634Y4420862D01*
X8242836Y4427506D01*
D02*
G37*
G36*
X8073500D02*
X7878500D01*
Y4232506D01*
X8073500D01*
Y4427506D01*
D02*
G37*
G36*
X5482000Y4295602D02*
X5463726Y4293196D01*
X5446698Y4286143D01*
X5432075Y4274923D01*
X5420855Y4260300D01*
X5413802Y4243272D01*
X5411396Y4224998D01*
Y4164998D01*
X5413802Y4146725D01*
X5420855Y4129696D01*
X5432075Y4115074D01*
X5446698Y4103854D01*
X5463726Y4096800D01*
X5482000Y4094394D01*
X5500273Y4096800D01*
X5517302Y4103854D01*
X5531924Y4115074D01*
X5543144Y4129696D01*
X5550198Y4146725D01*
X5552604Y4164998D01*
Y4224998D01*
X5550198Y4243272D01*
X5543144Y4260300D01*
X5531924Y4274923D01*
X5517302Y4286143D01*
X5500273Y4293196D01*
X5482000Y4295602D01*
D02*
G37*
G36*
X4618000D02*
X4599726Y4293196D01*
X4582698Y4286143D01*
X4568075Y4274923D01*
X4556855Y4260300D01*
X4549802Y4243272D01*
X4547396Y4224998D01*
Y4164998D01*
X4549802Y4146725D01*
X4556855Y4129696D01*
X4568075Y4115074D01*
X4582698Y4103854D01*
X4599726Y4096800D01*
X4618000Y4094394D01*
X4636273Y4096800D01*
X4653302Y4103854D01*
X4667924Y4115074D01*
X4679145Y4129696D01*
X4686198Y4146725D01*
X4688604Y4164998D01*
Y4224998D01*
X4686198Y4243272D01*
X4679145Y4260300D01*
X4667924Y4274923D01*
X4653302Y4286143D01*
X4636273Y4293196D01*
X4618000Y4295602D01*
D02*
G37*
%LPD*%
D10*
X5990605Y5311895D02*
G03*
X6170210Y5237500I179605J179605D01*
G01*
X7609000Y10892500D02*
G03*
X7355000Y10638500I0J-254000D01*
G01*
X7553501Y9302500D02*
G03*
X7556000Y9305000I0J2500D01*
G01*
X5700000Y5602500D02*
X5990605Y5311895D01*
X6170210Y5237500D02*
X7192500D01*
X7609000Y10892500D02*
X8150000D01*
X7355000Y9302500D02*
X7553501D01*
X7355000D02*
Y10638500D01*
D11*
X8595606Y7741894D02*
G03*
X8775211Y7667499I179605J179605D01*
G01*
X7556000Y8797000D02*
G03*
X7566960Y8770540I37420J0D01*
G01*
X7556000Y9813000D02*
Y9826000D01*
X8775211Y7667499D02*
X10017511D01*
X7566960Y8770540D02*
X8595606Y7741894D01*
X9994000Y7433500D02*
X10017511D01*
X7059000Y4337500D02*
Y4591500D01*
D41*
X10057511Y6322505D02*
G03*
X10287500Y6552494I0J229989D01*
G01*
Y9918500D02*
G03*
X10033500Y10172500I-254000J0D01*
G01*
X7810000D02*
G03*
X7556000Y9918500I0J-254000D01*
G01*
X9493500Y4591500D02*
G03*
X9747500Y4845500I0J254000D01*
G01*
X6027500Y5604790D02*
G03*
X5953105Y5784395I-254000J0D01*
G01*
X7317500Y5555000D02*
G03*
X7202825Y5602500I-114675J-114675D01*
G01*
X7390000Y5379970D02*
G03*
X7317500Y5555000I-247530J0D01*
G01*
X7315605Y4848105D02*
G03*
X7390000Y5027710I-179605J179605D01*
G01*
X9963499Y7413499D02*
G03*
X9747500Y7197500I0J-215999D01*
G01*
X10287500Y6552494D02*
Y9918500D01*
X7810000Y10172500D02*
X10033500D01*
X7556000Y9813000D02*
Y9918500D01*
X7059000Y4591500D02*
X9493500D01*
X5370000Y6367500D02*
X5953105Y5784395D01*
X6027500Y5602500D02*
Y5604790D01*
Y5602500D02*
X7202825D01*
X7390000Y5027710D02*
Y5379970D01*
X7059000Y4591500D02*
X7315605Y4848105D01*
X9963499Y7413499D02*
X10017511D01*
X9747500Y4845500D02*
Y7197500D01*
D42*
X7556000Y9813000D02*
D03*
D43*
Y9559000D02*
D03*
Y9305000D02*
D03*
Y9051000D02*
D03*
Y8797000D02*
D03*
Y8543000D02*
D03*
Y8289000D02*
D03*
Y8035000D02*
D03*
Y7781000D02*
D03*
Y7527000D02*
D03*
Y7273000D02*
D03*
Y7019000D02*
D03*
Y6765000D02*
D03*
Y6511000D02*
D03*
Y6257000D02*
D03*
Y6003000D02*
D03*
Y5749000D02*
D03*
Y5495000D02*
D03*
Y5241000D02*
D03*
Y4987000D02*
D03*
X9080000Y9813000D02*
D03*
Y9559000D02*
D03*
Y9305000D02*
D03*
Y9051000D02*
D03*
Y8797000D02*
D03*
Y8543000D02*
D03*
Y8289000D02*
D03*
Y8035000D02*
D03*
Y7781000D02*
D03*
Y7527000D02*
D03*
Y7273000D02*
D03*
Y7019000D02*
D03*
Y6765000D02*
D03*
Y6511000D02*
D03*
Y6257000D02*
D03*
Y6003000D02*
D03*
Y5749000D02*
D03*
Y5495000D02*
D03*
Y5241000D02*
D03*
Y4987000D02*
D03*
X10057511Y6322505D02*
D03*
Y6572505D02*
D03*
D44*
X10017561Y8972000D02*
D03*
Y9226000D02*
D03*
Y9480000D02*
D03*
Y8718000D02*
D03*
D45*
X6551000Y4337500D02*
D03*
X6805000D02*
D03*
X7059000Y4591500D02*
D03*
Y4337500D02*
D03*
X6805000Y4591500D02*
D03*
X6551000D02*
D03*
X6297000D02*
D03*
D46*
X8484000Y4330006D02*
D03*
X8230000D02*
D03*
X10017511Y7667499D02*
D03*
Y7921499D02*
D03*
D47*
X4301001Y11096499D02*
D03*
X4809001D02*
D03*
Y10588499D02*
D03*
X4301001D02*
D03*
X5421499Y11853999D02*
D03*
Y11345999D02*
D03*
X4913499D02*
D03*
Y11853999D02*
D03*
D48*
X6750005Y7033800D02*
D03*
D49*
X5700000Y5602500D02*
D03*
X7976000Y4330006D02*
D03*
X6027500Y5602500D02*
D03*
D50*
X5167499Y11599999D02*
D03*
D51*
X4555001Y10842499D02*
D03*
D52*
X10017511Y7413499D02*
D03*
D53*
X10017561Y9734000D02*
D03*
D54*
X10057511Y6072505D02*
D03*
D55*
X6297000Y4337500D02*
D03*
D56*
X4618000Y4574998D02*
D03*
X5482000D02*
D03*
X4618000Y4194998D02*
D03*
X5482000D02*
D03*
D57*
X6750005Y6271200D02*
D03*
D58*
X5290000Y10954583D02*
D03*
Y10857700D02*
D03*
X5432500Y10950000D02*
D03*
X5552500D02*
D03*
X5662500D02*
D03*
X5182500Y10635000D02*
D03*
Y10552500D02*
D03*
X5270000Y10635000D02*
D03*
X5357500D02*
D03*
X5435000Y10540000D02*
D03*
X5545000D02*
D03*
X5655000D02*
D03*
X5267500Y10455000D02*
D03*
Y10361250D02*
D03*
Y10267500D02*
D03*
X5207500Y10152500D02*
D03*
X5265000Y10032500D02*
D03*
X4845000Y10363750D02*
D03*
Y10272500D02*
D03*
X4930000Y10155000D02*
D03*
X4927500Y10032500D02*
D03*
X4400000Y4000000D02*
D03*
X4599999Y4400000D02*
D03*
X4400000Y4800000D02*
D03*
X4599999Y5200000D02*
D03*
X4400000Y5599999D02*
D03*
X4599999Y5999999D02*
D03*
X4400000Y6399999D02*
D03*
X4599999Y6799999D02*
D03*
X4400000Y7199999D02*
D03*
X4599999Y7599999D02*
D03*
X4400000Y7999999D02*
D03*
X4599999Y8399999D02*
D03*
X4400000Y8799999D02*
D03*
X4599999Y9199999D02*
D03*
X4400000Y9599999D02*
D03*
X4599999Y9999999D02*
D03*
X4400000Y10399999D02*
D03*
X4800000Y4000000D02*
D03*
X4999999Y4400000D02*
D03*
X4800000Y4800000D02*
D03*
Y5599999D02*
D03*
X4999999Y5999999D02*
D03*
Y6799999D02*
D03*
X4800000Y7199999D02*
D03*
Y7999999D02*
D03*
Y8799999D02*
D03*
Y9599999D02*
D03*
X5200000Y4000000D02*
D03*
X5399999Y4400000D02*
D03*
Y5200000D02*
D03*
X5200000Y5599999D02*
D03*
X5399999Y5999999D02*
D03*
Y6799999D02*
D03*
X5200000Y7199999D02*
D03*
Y7999999D02*
D03*
X5399999Y8399999D02*
D03*
X5200000Y8799999D02*
D03*
X5399999Y9199999D02*
D03*
Y9999999D02*
D03*
X5599999Y4000000D02*
D03*
X5799999Y4400000D02*
D03*
X5599999Y4800000D02*
D03*
X5799999Y5200000D02*
D03*
X5599999Y6399999D02*
D03*
X5799999Y6799999D02*
D03*
X5599999Y7199999D02*
D03*
Y7999999D02*
D03*
Y8799999D02*
D03*
X5799999Y9199999D02*
D03*
X5599999Y9599999D02*
D03*
X5799999Y9999999D02*
D03*
X5599999Y10399999D02*
D03*
Y11199999D02*
D03*
X5999999Y4000000D02*
D03*
X6199999Y5999999D02*
D03*
Y6799999D02*
D03*
X5999999Y7199999D02*
D03*
Y7999999D02*
D03*
Y8799999D02*
D03*
X6199999Y9199999D02*
D03*
X5999999Y9599999D02*
D03*
X6199999Y9999999D02*
D03*
X5999999Y10399999D02*
D03*
Y11199999D02*
D03*
X6399999Y4000000D02*
D03*
Y4800000D02*
D03*
X6599999Y5999999D02*
D03*
X6399999Y7199999D02*
D03*
Y7999999D02*
D03*
Y8799999D02*
D03*
X6599999Y9199999D02*
D03*
X6399999Y9599999D02*
D03*
X6599999Y9999999D02*
D03*
X6399999Y10399999D02*
D03*
Y11199999D02*
D03*
X6799999Y4000000D02*
D03*
Y4800000D02*
D03*
X6999999Y5999999D02*
D03*
X6799999Y6399999D02*
D03*
X6999999Y6799999D02*
D03*
X6799999Y7199999D02*
D03*
Y7999999D02*
D03*
Y8799999D02*
D03*
X6999999Y9199999D02*
D03*
X6799999Y9599999D02*
D03*
X6999999Y9999999D02*
D03*
X6799999Y10399999D02*
D03*
Y11199999D02*
D03*
X7199999Y4000000D02*
D03*
X7399999Y4400000D02*
D03*
Y5999999D02*
D03*
X7199999Y6399999D02*
D03*
X7399999Y6799999D02*
D03*
Y7599999D02*
D03*
X7199999Y7999999D02*
D03*
X7399999Y8399999D02*
D03*
Y9199999D02*
D03*
X7199999Y10399999D02*
D03*
Y11199999D02*
D03*
X7599999Y4000000D02*
D03*
X7799999Y4400000D02*
D03*
X7599999Y4800000D02*
D03*
X7799999Y5999999D02*
D03*
Y6799999D02*
D03*
Y7599999D02*
D03*
Y8399999D02*
D03*
Y9199999D02*
D03*
Y9999999D02*
D03*
X7599999Y10399999D02*
D03*
Y11199999D02*
D03*
X7999999Y4000000D02*
D03*
Y5599999D02*
D03*
X8199999Y5999999D02*
D03*
Y6799999D02*
D03*
X7999999Y7199999D02*
D03*
X8199999Y7599999D02*
D03*
X7999999Y7999999D02*
D03*
Y8799999D02*
D03*
Y9599999D02*
D03*
X8199999Y9999999D02*
D03*
X7999999Y10399999D02*
D03*
Y11199999D02*
D03*
X8399999Y4000000D02*
D03*
X8599999Y4400000D02*
D03*
X8399999Y4800000D02*
D03*
X8599999Y5200000D02*
D03*
Y5999999D02*
D03*
Y6799999D02*
D03*
X8399999Y7199999D02*
D03*
X8599999Y7599999D02*
D03*
Y8399999D02*
D03*
X8399999Y8799999D02*
D03*
X8599999Y9199999D02*
D03*
X8399999Y9599999D02*
D03*
X8599999Y9999999D02*
D03*
X8399999Y10399999D02*
D03*
Y11199999D02*
D03*
X8799999Y4000000D02*
D03*
X8999999Y4400000D02*
D03*
X8799999Y4800000D02*
D03*
Y5599999D02*
D03*
Y7199999D02*
D03*
Y7999999D02*
D03*
X8999999Y8399999D02*
D03*
X8799999Y8799999D02*
D03*
X8999999Y9199999D02*
D03*
X8799999Y9599999D02*
D03*
X8999999Y9999999D02*
D03*
X8799999Y10399999D02*
D03*
Y11199999D02*
D03*
X9199999Y4000000D02*
D03*
X9399999Y4400000D02*
D03*
X9199999Y4800000D02*
D03*
X9399999Y5200000D02*
D03*
X9199999Y5599999D02*
D03*
X9399999Y5999999D02*
D03*
X9199999Y7199999D02*
D03*
Y7999999D02*
D03*
X9399999Y8399999D02*
D03*
Y9999999D02*
D03*
X9199999Y10399999D02*
D03*
X9599999Y4000000D02*
D03*
X9799999Y4400000D02*
D03*
X9599999Y4800000D02*
D03*
Y7199999D02*
D03*
X9799999Y7599999D02*
D03*
X9599999Y7999999D02*
D03*
X9799999Y8399999D02*
D03*
X9599999Y8799999D02*
D03*
X9799999Y9999999D02*
D03*
X9599999Y10399999D02*
D03*
Y11199999D02*
D03*
X9999999Y4000000D02*
D03*
X10199999Y4400000D02*
D03*
X9999999Y4800000D02*
D03*
X10199999Y5200000D02*
D03*
X9999999Y5599999D02*
D03*
X10199999Y5999999D02*
D03*
X9999999Y7199999D02*
D03*
X10199999Y7599999D02*
D03*
Y8399999D02*
D03*
Y9199999D02*
D03*
X9999999Y10399999D02*
D03*
Y11199999D02*
D03*
X4807300Y9197700D02*
D03*
X4802300Y10000200D02*
D03*
X4817300Y8400200D02*
D03*
X5197300Y8402700D02*
D03*
X5209800Y9195200D02*
D03*
X5232300Y9735200D02*
D03*
X5797300Y10997700D02*
D03*
X6204800D02*
D03*
X6614800D02*
D03*
X7022300D02*
D03*
X7442300D02*
D03*
X8242500Y11500000D02*
D03*
X7822500D02*
D03*
X7415000D02*
D03*
X7005000D02*
D03*
X6597500D02*
D03*
X7642500Y11787500D02*
D03*
X7222500D02*
D03*
X6815000D02*
D03*
X6405000D02*
D03*
X5997500D02*
D03*
X9702500D02*
D03*
X9282500D02*
D03*
X8875000D02*
D03*
X8465000D02*
D03*
X8057500D02*
D03*
X9907500Y11500000D02*
D03*
X9500000D02*
D03*
X9090000D02*
D03*
X8682500D02*
D03*
X10279998D02*
D03*
X10100000Y11787500D02*
D03*
X6205000Y11500000D02*
D03*
X5720000D02*
D03*
X4947500Y10670000D02*
D03*
X4952500Y10552500D02*
D03*
X4837500Y10742500D02*
D03*
X4730000D02*
D03*
X4732500Y10947500D02*
D03*
X4857500Y10945000D02*
D03*
X4977500D02*
D03*
X5060000Y11035000D02*
D03*
Y11166667D02*
D03*
X5272500Y11057500D02*
D03*
Y11180833D02*
D03*
Y11304167D02*
D03*
Y11427500D02*
D03*
X5060000Y11429999D02*
D03*
Y11298333D02*
D03*
X5347500Y11532500D02*
D03*
Y11657500D02*
D03*
X5220000Y11772500D02*
D03*
X5107500D02*
D03*
X4992500Y11680000D02*
D03*
Y11552500D02*
D03*
X4612500Y11012500D02*
D03*
X4497500D02*
D03*
X4385000Y10915000D02*
D03*
Y10792500D02*
D03*
X4480000Y10667500D02*
D03*
X4617500D02*
D03*
X4350000Y11775000D02*
D03*
X4660000D02*
D03*
X4350000Y11502500D02*
D03*
X4660000D02*
D03*
X7799999Y10799999D02*
D03*
D59*
X7192500Y5237500D02*
D03*
X7355000Y9302500D02*
D03*
X8150000Y10892500D02*
D03*
X5370000Y6367500D02*
D03*
%TF.MD5,ad0f2dc9d4e610ac10583613027de7cd*%
M02*
