%TF.GenerationSoftware,Altium Limited,Altium Designer,25.3.3 (18)*%
G04 Layer_Color=8388736*
%FSLAX45Y45*%
%MOMM*%
%TF.SameCoordinates,5E11F917-F8F9-4F0F-A2E6-9E88ADDE2E03*%
%TF.FilePolarity,Positive*%
%TF.FileFunction,Other,Top_3D_Body*%
%TF.Part,Single*%
G01*
G75*
%TA.AperFunction,NonConductor*%
%ADD63C,0.20000*%
D63*
X7015000Y6282500D02*
X7105000D01*
Y6447500D01*
X7015000D02*
X7105000D01*
X7015000Y6282500D02*
Y6447500D01*
X5847710Y10621100D02*
Y10748100D01*
X5916290D01*
Y10621100D02*
Y10748100D01*
X5847710Y10621100D02*
X5916290D01*
X6014999Y10712501D02*
X6119999D01*
X6014999D02*
Y10777501D01*
X6119999D01*
Y10712501D02*
Y10777501D01*
X8312500Y10824999D02*
X8492500D01*
Y10735000D02*
Y10824999D01*
X8312500Y10735000D02*
X8492500D01*
X8312500D02*
Y10824999D01*
X3187000Y10523000D02*
Y11168000D01*
X4187000D01*
Y10523000D02*
Y11168000D01*
X3187000Y10523000D02*
X4187000D01*
X4842000Y11698000D02*
Y12698000D01*
Y11698000D02*
X5487000D01*
Y12698000D01*
X4842000D02*
X5487000D01*
X5176003Y9993214D02*
Y10061794D01*
X5049003D02*
X5176003D01*
X5049003Y9993214D02*
Y10061794D01*
Y9993214D02*
X5176003D01*
X9784999Y10577671D02*
Y10737671D01*
X9864999D01*
Y10577671D02*
Y10737671D01*
X9784999Y10577671D02*
X9864999D01*
X9014999Y11342500D02*
X9174999D01*
Y11262500D02*
Y11342500D01*
X9014999Y11262500D02*
X9174999D01*
X9014999D02*
Y11342500D01*
X6910000Y7387500D02*
X6990000D01*
Y7547500D01*
X6910000D02*
X6990000D01*
X6910000Y7387500D02*
Y7547500D01*
X6342505Y6270000D02*
Y6430000D01*
X6422505D01*
Y6270000D02*
Y6430000D01*
X6342505Y6270000D02*
X6422505D01*
X6690000Y5600000D02*
X6980000D01*
Y5285000D02*
Y5600000D01*
X6690000Y5285000D02*
X6980000D01*
X6690000D02*
Y5600000D01*
X4593000Y4634998D02*
X5507000D01*
Y3924998D02*
Y4634998D01*
X4593000Y3924998D02*
X5507000D01*
X4593000D02*
Y4634998D01*
X5187500Y5263460D02*
Y5418460D01*
X5272500D01*
Y5263460D02*
Y5418460D01*
X5187500Y5263460D02*
X5272500D01*
X4877500D02*
Y5418460D01*
X4962500D01*
Y5263460D02*
Y5418460D01*
X4877500Y5263460D02*
X4962500D01*
X6140004Y8167489D02*
X6300004D01*
Y8087489D02*
Y8167489D01*
X6140004Y8087489D02*
X6300004D01*
X6140004D02*
Y8167489D01*
X5440000Y7637500D02*
X5620000D01*
Y7547500D02*
Y7637500D01*
X5440000Y7547500D02*
X5620000D01*
X5440000D02*
Y7637500D01*
X10085000Y4312496D02*
Y4942496D01*
X9455000Y4312496D02*
X10085000D01*
X9455000D02*
Y4942496D01*
X10085000D01*
X6845505Y6424500D02*
Y6880500D01*
X6654505Y6424500D02*
X6845505D01*
X6654505D02*
Y6880500D01*
X6845505D01*
X9440000Y6460000D02*
Y6620000D01*
X9520000D01*
Y6460000D02*
Y6620000D01*
X9440000Y6460000D02*
X9520000D01*
X5030002Y7542500D02*
X5210003D01*
Y7452500D02*
Y7542500D01*
X5030002Y7452500D02*
X5210003D01*
X5030002D02*
Y7542500D01*
X5440000Y7445000D02*
X5620000D01*
Y7355000D02*
Y7445000D01*
X5440000Y7355000D02*
X5620000D01*
X5440000D02*
Y7445000D01*
X8312502Y10635000D02*
X8492502D01*
Y10545000D02*
Y10635000D01*
X8312502Y10545000D02*
X8492502D01*
X8312502D02*
Y10635000D01*
X7900001Y10595000D02*
Y10775000D01*
X7990001D01*
Y10595000D02*
Y10775000D01*
X7900001Y10595000D02*
X7990001D01*
X6472500Y10597500D02*
Y10757500D01*
X6552500D01*
Y10597500D02*
Y10757500D01*
X6472500Y10597500D02*
X6552500D01*
X5032500Y9382501D02*
X5192500D01*
X5032500D02*
Y9462501D01*
X5192500D01*
Y9382501D02*
Y9462501D01*
X5017499Y9800005D02*
Y9905005D01*
X5082499D01*
Y9800005D02*
Y9905005D01*
X5017499Y9800005D02*
X5082499D01*
%TF.MD5,47a51cba8c5864808a238eae7af975ce*%
M02*
