%TF.GenerationSoftware,Altium Limited,Altium Designer,26.3.0 (6)*%
G04 Layer_Color=16711935*
%FSLAX45Y45*%
%MOMM*%
%TF.SameCoordinates,54D30E38-9BAD-47A9-95B5-4C9EBDA9D8EF*%
%TF.FilePolarity,Negative*%
%TF.FileFunction,Soldermask,Bot*%
%TF.Part,Single*%
G01*
G75*
%TA.AperFunction,ComponentPad*%
%ADD48R,1.20000X1.20000*%
G04:AMPARAMS|DCode=56|XSize=1.1mm|YSize=1.7mm|CornerRadius=0.55mm|HoleSize=0mm|Usage=FLASHONLY|Rotation=0.000|XOffset=0mm|YOffset=0mm|HoleType=Round|Shape=RoundedRectangle|*
%AMROUNDEDRECTD56*
21,1,1.10000,0.60000,0,0,0.0*
21,1,0.00000,1.70000,0,0,0.0*
1,1,1.10000,0.00000,-0.30000*
1,1,1.10000,0.00000,-0.30000*
1,1,1.10000,0.00000,0.30000*
1,1,1.10000,0.00000,0.30000*
%
%ADD56ROUNDEDRECTD56*%
%ADD57C,1.20000*%
%ADD77R,1.70320X1.70320*%
%ADD78C,1.70320*%
%ADD79C,2.37820*%
%ADD80C,1.77820*%
%ADD81C,1.85320*%
%ADD82C,2.40320*%
%ADD83R,1.85320X1.85320*%
%ADD84R,2.20320X2.20320*%
%ADD85R,2.20320X2.20320*%
%ADD86R,1.85320X1.85320*%
%ADD87R,2.37820X2.37820*%
%ADD88R,1.70320X1.70320*%
%ADD89R,1.77820X1.77820*%
%TA.AperFunction,ViaPad*%
%ADD90C,0.80320*%
%ADD91C,1.47320*%
D48*
X6750005Y7033800D02*
D03*
D56*
X4618000Y4574998D02*
D03*
X5482000D02*
D03*
X4618000Y4194998D02*
D03*
X5482000D02*
D03*
D57*
X6750005Y6271200D02*
D03*
D77*
X7556000Y9813000D02*
D03*
D78*
Y9559000D02*
D03*
Y9305000D02*
D03*
Y9051000D02*
D03*
Y8797000D02*
D03*
Y8543000D02*
D03*
Y8289000D02*
D03*
Y8035000D02*
D03*
Y7781000D02*
D03*
Y7527000D02*
D03*
Y7273000D02*
D03*
Y7019000D02*
D03*
Y6765000D02*
D03*
Y6511000D02*
D03*
Y6257000D02*
D03*
Y6003000D02*
D03*
Y5749000D02*
D03*
Y5495000D02*
D03*
Y5241000D02*
D03*
Y4987000D02*
D03*
X9080000Y9813000D02*
D03*
Y9559000D02*
D03*
Y9305000D02*
D03*
Y9051000D02*
D03*
Y8797000D02*
D03*
Y8543000D02*
D03*
Y8289000D02*
D03*
Y8035000D02*
D03*
Y7781000D02*
D03*
Y7527000D02*
D03*
Y7273000D02*
D03*
Y7019000D02*
D03*
Y6765000D02*
D03*
Y6511000D02*
D03*
Y6257000D02*
D03*
Y6003000D02*
D03*
Y5749000D02*
D03*
Y5495000D02*
D03*
Y5241000D02*
D03*
Y4987000D02*
D03*
X10057511Y6322505D02*
D03*
Y6572505D02*
D03*
D79*
X10017561Y8972000D02*
D03*
Y9226000D02*
D03*
Y9480000D02*
D03*
Y8718000D02*
D03*
D80*
X6551000Y4337500D02*
D03*
X6805000D02*
D03*
X7059000Y4591500D02*
D03*
Y4337500D02*
D03*
X6805000Y4591500D02*
D03*
X6551000D02*
D03*
X6297000D02*
D03*
D81*
X8484000Y4330006D02*
D03*
X8230000D02*
D03*
X10017511Y7667499D02*
D03*
Y7921499D02*
D03*
D82*
X4301001Y11096499D02*
D03*
X4809001D02*
D03*
Y10588499D02*
D03*
X4301001D02*
D03*
X5421499Y11853999D02*
D03*
Y11345999D02*
D03*
X4913499D02*
D03*
Y11853999D02*
D03*
D83*
X5700000Y5602500D02*
D03*
X7976000Y4330006D02*
D03*
X6027500Y5602500D02*
D03*
D84*
X5167499Y11599999D02*
D03*
D85*
X4555001Y10842499D02*
D03*
D86*
X10017511Y7413499D02*
D03*
D87*
X10017561Y9734000D02*
D03*
D88*
X10057511Y6072505D02*
D03*
D89*
X6297000Y4337500D02*
D03*
D90*
X5290000Y10954583D02*
D03*
Y10857700D02*
D03*
X5432500Y10950000D02*
D03*
X5552500D02*
D03*
X5662500D02*
D03*
X5182500Y10635000D02*
D03*
Y10552500D02*
D03*
X5270000Y10635000D02*
D03*
X5357500D02*
D03*
X5435000Y10540000D02*
D03*
X5545000D02*
D03*
X5655000D02*
D03*
X5267500Y10455000D02*
D03*
Y10361250D02*
D03*
Y10267500D02*
D03*
X5207500Y10152500D02*
D03*
X5265000Y10032500D02*
D03*
X4845000Y10363750D02*
D03*
Y10272500D02*
D03*
X4930000Y10155000D02*
D03*
X4927500Y10032500D02*
D03*
X4400000Y4000000D02*
D03*
X4599999Y4400000D02*
D03*
X4400000Y4800000D02*
D03*
X4599999Y5200000D02*
D03*
X4400000Y5599999D02*
D03*
X4599999Y5999999D02*
D03*
X4400000Y6399999D02*
D03*
X4599999Y6799999D02*
D03*
X4400000Y7199999D02*
D03*
X4599999Y7599999D02*
D03*
X4400000Y7999999D02*
D03*
X4599999Y8399999D02*
D03*
X4400000Y8799999D02*
D03*
X4599999Y9199999D02*
D03*
X4400000Y9599999D02*
D03*
X4599999Y9999999D02*
D03*
X4400000Y10399999D02*
D03*
X4800000Y4000000D02*
D03*
X4999999Y4400000D02*
D03*
X4800000Y4800000D02*
D03*
Y5599999D02*
D03*
X4999999Y5999999D02*
D03*
Y6799999D02*
D03*
X4800000Y7199999D02*
D03*
Y7999999D02*
D03*
Y8799999D02*
D03*
Y9599999D02*
D03*
X5200000Y4000000D02*
D03*
X5399999Y4400000D02*
D03*
Y5200000D02*
D03*
X5200000Y5599999D02*
D03*
X5399999Y5999999D02*
D03*
Y6799999D02*
D03*
X5200000Y7199999D02*
D03*
Y7999999D02*
D03*
X5399999Y8399999D02*
D03*
X5200000Y8799999D02*
D03*
X5399999Y9199999D02*
D03*
Y9999999D02*
D03*
X5599999Y4000000D02*
D03*
X5799999Y4400000D02*
D03*
X5599999Y4800000D02*
D03*
X5799999Y5200000D02*
D03*
X5599999Y6399999D02*
D03*
X5799999Y6799999D02*
D03*
X5599999Y7199999D02*
D03*
Y7999999D02*
D03*
Y8799999D02*
D03*
X5799999Y9199999D02*
D03*
X5599999Y9599999D02*
D03*
X5799999Y9999999D02*
D03*
X5599999Y10399999D02*
D03*
Y11199999D02*
D03*
X5999999Y4000000D02*
D03*
X6199999Y5999999D02*
D03*
Y6799999D02*
D03*
X5999999Y7199999D02*
D03*
Y7999999D02*
D03*
Y8799999D02*
D03*
X6199999Y9199999D02*
D03*
X5999999Y9599999D02*
D03*
X6199999Y9999999D02*
D03*
X5999999Y10399999D02*
D03*
Y11199999D02*
D03*
X6399999Y4000000D02*
D03*
Y4800000D02*
D03*
X6599999Y5999999D02*
D03*
X6399999Y7199999D02*
D03*
Y7999999D02*
D03*
Y8799999D02*
D03*
X6599999Y9199999D02*
D03*
X6399999Y9599999D02*
D03*
X6599999Y9999999D02*
D03*
X6399999Y10399999D02*
D03*
Y11199999D02*
D03*
X6799999Y4000000D02*
D03*
Y4800000D02*
D03*
X6999999Y5999999D02*
D03*
X6799999Y6399999D02*
D03*
X6999999Y6799999D02*
D03*
X6799999Y7199999D02*
D03*
Y7999999D02*
D03*
Y8799999D02*
D03*
X6999999Y9199999D02*
D03*
X6799999Y9599999D02*
D03*
X6999999Y9999999D02*
D03*
X6799999Y10399999D02*
D03*
Y11199999D02*
D03*
X7199999Y4000000D02*
D03*
X7399999Y4400000D02*
D03*
Y5999999D02*
D03*
X7199999Y6399999D02*
D03*
X7399999Y6799999D02*
D03*
Y7599999D02*
D03*
X7199999Y7999999D02*
D03*
X7399999Y8399999D02*
D03*
Y9199999D02*
D03*
X7199999Y10399999D02*
D03*
Y11199999D02*
D03*
X7599999Y4000000D02*
D03*
X7799999Y4400000D02*
D03*
X7599999Y4800000D02*
D03*
X7799999Y5999999D02*
D03*
Y6799999D02*
D03*
Y7599999D02*
D03*
Y8399999D02*
D03*
Y9199999D02*
D03*
Y9999999D02*
D03*
X7599999Y10399999D02*
D03*
Y11199999D02*
D03*
X7999999Y4000000D02*
D03*
Y5599999D02*
D03*
X8199999Y5999999D02*
D03*
Y6799999D02*
D03*
X7999999Y7199999D02*
D03*
X8199999Y7599999D02*
D03*
X7999999Y7999999D02*
D03*
Y8799999D02*
D03*
Y9599999D02*
D03*
X8199999Y9999999D02*
D03*
X7999999Y10399999D02*
D03*
Y11199999D02*
D03*
X8399999Y4000000D02*
D03*
X8599999Y4400000D02*
D03*
X8399999Y4800000D02*
D03*
X8599999Y5200000D02*
D03*
Y5999999D02*
D03*
Y6799999D02*
D03*
X8399999Y7199999D02*
D03*
X8599999Y7599999D02*
D03*
Y8399999D02*
D03*
X8399999Y8799999D02*
D03*
X8599999Y9199999D02*
D03*
X8399999Y9599999D02*
D03*
X8599999Y9999999D02*
D03*
X8399999Y10399999D02*
D03*
Y11199999D02*
D03*
X8799999Y4000000D02*
D03*
X8999999Y4400000D02*
D03*
X8799999Y4800000D02*
D03*
Y5599999D02*
D03*
Y7199999D02*
D03*
Y7999999D02*
D03*
X8999999Y8399999D02*
D03*
X8799999Y8799999D02*
D03*
X8999999Y9199999D02*
D03*
X8799999Y9599999D02*
D03*
X8999999Y9999999D02*
D03*
X8799999Y10399999D02*
D03*
Y11199999D02*
D03*
X9199999Y4000000D02*
D03*
X9399999Y4400000D02*
D03*
X9199999Y4800000D02*
D03*
X9399999Y5200000D02*
D03*
X9199999Y5599999D02*
D03*
X9399999Y5999999D02*
D03*
X9199999Y7199999D02*
D03*
Y7999999D02*
D03*
X9399999Y8399999D02*
D03*
Y9999999D02*
D03*
X9199999Y10399999D02*
D03*
X9599999Y4000000D02*
D03*
X9799999Y4400000D02*
D03*
X9599999Y4800000D02*
D03*
Y7199999D02*
D03*
X9799999Y7599999D02*
D03*
X9599999Y7999999D02*
D03*
X9799999Y8399999D02*
D03*
X9599999Y8799999D02*
D03*
X9799999Y9999999D02*
D03*
X9599999Y10399999D02*
D03*
Y11199999D02*
D03*
X9999999Y4000000D02*
D03*
X10199999Y4400000D02*
D03*
X9999999Y4800000D02*
D03*
X10199999Y5200000D02*
D03*
X9999999Y5599999D02*
D03*
X10199999Y5999999D02*
D03*
X9999999Y7199999D02*
D03*
X10199999Y7599999D02*
D03*
Y8399999D02*
D03*
Y9199999D02*
D03*
X9999999Y10399999D02*
D03*
Y11199999D02*
D03*
X4807300Y9197700D02*
D03*
X4802300Y10000200D02*
D03*
X4817300Y8400200D02*
D03*
X5197300Y8402700D02*
D03*
X5209800Y9195200D02*
D03*
X5232300Y9735200D02*
D03*
X5797300Y10997700D02*
D03*
X6204800D02*
D03*
X6614800D02*
D03*
X7022300D02*
D03*
X7442300D02*
D03*
X8242500Y11500000D02*
D03*
X7822500D02*
D03*
X7415000D02*
D03*
X7005000D02*
D03*
X6597500D02*
D03*
X7642500Y11787500D02*
D03*
X7222500D02*
D03*
X6815000D02*
D03*
X6405000D02*
D03*
X5997500D02*
D03*
X9702500D02*
D03*
X9282500D02*
D03*
X8875000D02*
D03*
X8465000D02*
D03*
X8057500D02*
D03*
X9907500Y11500000D02*
D03*
X9500000D02*
D03*
X9090000D02*
D03*
X8682500D02*
D03*
X10279998D02*
D03*
X10100000Y11787500D02*
D03*
X6205000Y11500000D02*
D03*
X5720000D02*
D03*
X4947500Y10670000D02*
D03*
X4952500Y10552500D02*
D03*
X4837500Y10742500D02*
D03*
X4730000D02*
D03*
X4732500Y10947500D02*
D03*
X4857500Y10945000D02*
D03*
X4977500D02*
D03*
X5060000Y11035000D02*
D03*
Y11166667D02*
D03*
X5272500Y11057500D02*
D03*
Y11180833D02*
D03*
Y11304167D02*
D03*
Y11427500D02*
D03*
X5060000Y11429999D02*
D03*
Y11298333D02*
D03*
X5347500Y11532500D02*
D03*
Y11657500D02*
D03*
X5220000Y11772500D02*
D03*
X5107500D02*
D03*
X4992500Y11680000D02*
D03*
Y11552500D02*
D03*
X4612500Y11012500D02*
D03*
X4497500D02*
D03*
X4385000Y10915000D02*
D03*
Y10792500D02*
D03*
X4480000Y10667500D02*
D03*
X4617500D02*
D03*
X4350000Y11775000D02*
D03*
X4660000D02*
D03*
X4350000Y11502500D02*
D03*
X4660000D02*
D03*
X7799999Y10799999D02*
D03*
D91*
X7192500Y5237500D02*
D03*
X7355000Y9302500D02*
D03*
X8150000Y10892500D02*
D03*
X5370000Y6367500D02*
D03*
%TF.MD5,414ae34194bfffe7fd280b587b7cae42*%
M02*
