%TF.GenerationSoftware,Altium Limited,Altium Designer,26.3.0 (6)*%
G04 Layer_Physical_Order=1*
G04 Layer_Color=255*
%FSLAX45Y45*%
%MOMM*%
%TF.SameCoordinates,54D30E38-9BAD-47A9-95B5-4C9EBDA9D8EF*%
%TF.FilePolarity,Positive*%
%TF.FileFunction,Copper,L1,Top,Signal*%
%TF.Part,Single*%
G01*
G75*
%TA.AperFunction,Conductor*%
%ADD10C,0.71900*%
%ADD11C,0.30000*%
%ADD12C,0.40000*%
%TA.AperFunction,SMDPad,CuDef*%
%ADD13R,0.50000X0.60000*%
%ADD14R,0.45000X0.60000*%
%ADD15R,0.65872X0.81213*%
%ADD16R,0.81213X0.65872*%
%ADD17R,1.22000X0.62000*%
%ADD18R,1.38000X2.10000*%
%ADD19R,0.96213X0.93504*%
%ADD20R,0.95000X1.05000*%
%TA.AperFunction,ConnectorPad*%
%ADD21R,0.80000X1.20000*%
%TA.AperFunction,SMDPad,CuDef*%
G04:AMPARAMS|DCode=22|XSize=1.1mm|YSize=0.4mm|CornerRadius=0.05mm|HoleSize=0mm|Usage=FLASHONLY|Rotation=0.000|XOffset=0mm|YOffset=0mm|HoleType=Round|Shape=RoundedRectangle|*
%AMROUNDEDRECTD22*
21,1,1.10000,0.30000,0,0,0.0*
21,1,1.00000,0.40000,0,0,0.0*
1,1,0.10000,0.50000,-0.15000*
1,1,0.10000,-0.50000,-0.15000*
1,1,0.10000,-0.50000,0.15000*
1,1,0.10000,0.50000,0.15000*
%
%ADD22ROUNDEDRECTD22*%
%ADD23R,1.05000X0.95000*%
%ADD24R,1.75000X0.95000*%
%ADD25R,0.60000X0.45000*%
%ADD26R,0.30000X0.50000*%
%ADD27R,0.63500X0.61000*%
%ADD28R,0.75000X0.80000*%
%ADD29R,0.61000X0.63500*%
%ADD30R,0.80000X0.75000*%
%ADD31R,0.91213X0.85872*%
%TA.AperFunction,ConnectorPad*%
%ADD32R,0.76000X1.20000*%
%TA.AperFunction,SMDPad,CuDef*%
%ADD33R,0.58000X0.50000*%
%ADD34R,0.90000X1.00000*%
%ADD35R,0.35000X0.60000*%
%ADD36R,0.50000X0.58000*%
%ADD37R,1.75000X3.20000*%
%TA.AperFunction,ConnectorPad*%
%ADD38R,0.70000X1.20000*%
%TA.AperFunction,SMDPad,CuDef*%
%ADD39R,0.60000X0.50000*%
%ADD40R,0.60000X0.35000*%
%TA.AperFunction,Conductor*%
%ADD41C,0.71000*%
%TA.AperFunction,ComponentPad*%
%ADD42R,1.50000X1.50000*%
%ADD43C,1.50000*%
%ADD44C,2.17500*%
%ADD45C,1.57500*%
%ADD46C,1.65000*%
%ADD47C,2.20000*%
%ADD48R,1.20000X1.20000*%
%ADD49R,1.65000X1.65000*%
%ADD50R,2.00000X2.00000*%
%ADD51R,2.00000X2.00000*%
%ADD52R,1.65000X1.65000*%
%ADD53R,2.17500X2.17500*%
%ADD54R,1.50000X1.50000*%
%ADD55R,1.57500X1.57500*%
G04:AMPARAMS|DCode=56|XSize=1.1mm|YSize=1.7mm|CornerRadius=0.55mm|HoleSize=0mm|Usage=FLASHONLY|Rotation=0.000|XOffset=0mm|YOffset=0mm|HoleType=Round|Shape=RoundedRectangle|*
%AMROUNDEDRECTD56*
21,1,1.10000,0.60000,0,0,0.0*
21,1,0.00000,1.70000,0,0,0.0*
1,1,1.10000,0.00000,-0.30000*
1,1,1.10000,0.00000,-0.30000*
1,1,1.10000,0.00000,0.30000*
1,1,1.10000,0.00000,0.30000*
%
%ADD56ROUNDEDRECTD56*%
%ADD57C,1.20000*%
%TA.AperFunction,ViaPad*%
%ADD58C,0.60000*%
%ADD59C,1.27000*%
G36*
X10102501Y11987500D02*
X10122164Y11987500D01*
X10161154Y11982367D01*
X10199140Y11972188D01*
X10235472Y11957139D01*
X10269529Y11937476D01*
X10300729Y11913535D01*
X10328536Y11885728D01*
X10352476Y11854528D01*
X10372139Y11820470D01*
X10387188Y11784138D01*
X10397366Y11746152D01*
X10401396Y11715535D01*
X10402498Y11687533D01*
Y11687499D01*
X10402498Y11687499D01*
X10402500Y11687498D01*
X10402499Y4217499D01*
X10402499Y4197836D01*
X10397367Y4158846D01*
X10387189Y4120860D01*
X10372139Y4084527D01*
X10352476Y4050470D01*
X10328536Y4019270D01*
X10300728Y3991462D01*
X10269529Y3967522D01*
X10235471Y3947860D01*
X10199138Y3932810D01*
X10161152Y3922632D01*
X10122162Y3917500D01*
X10102499Y3917500D01*
X4468244D01*
X4448532Y3917500D01*
X4409445Y3922645D01*
X4371365Y3932849D01*
X4334942Y3947935D01*
X4300800Y3967647D01*
X4269524Y3991647D01*
X4241647Y4019524D01*
X4217647Y4050800D01*
X4197935Y4084942D01*
X4182849Y4121365D01*
X4172645Y4159445D01*
X4167500Y4198531D01*
X4167500Y4218243D01*
Y11686756D01*
X4167500Y11706468D01*
X4172645Y11745554D01*
X4182849Y11783634D01*
X4197936Y11820057D01*
X4217648Y11854199D01*
X4241647Y11885476D01*
X4269524Y11913352D01*
X4300801Y11937352D01*
X4334943Y11957064D01*
X4371365Y11972150D01*
X4409446Y11982354D01*
X4448532Y11987500D01*
X4468244Y11987500D01*
X4468244Y11987500D01*
X10102501Y11987500D01*
D02*
G37*
%LPC*%
G36*
X5287499Y11719999D02*
X5047499D01*
Y11479999D01*
X5110453D01*
Y10909998D01*
X5111117Y10906659D01*
X5110753Y10904231D01*
X5083229Y10889500D01*
X5059558Y10889500D01*
X5051655Y10894780D01*
X5030000Y10899087D01*
X5029996Y10899087D01*
X4675001D01*
Y10962499D01*
X4435001D01*
Y10722499D01*
X4675001D01*
Y10785912D01*
X5017400D01*
Y10731312D01*
X5012085Y10727761D01*
X4999719Y10709254D01*
X4995377Y10687423D01*
X4995455Y10687032D01*
Y10481005D01*
X4999797Y10459174D01*
X5007501Y10447645D01*
Y10432005D01*
X5025127D01*
X5030670Y10428301D01*
X5052501Y10423959D01*
X5074331Y10428301D01*
X5079874Y10432005D01*
X5097501D01*
Y10447645D01*
X5105204Y10459174D01*
X5109547Y10481005D01*
Y10676895D01*
X5122067Y10692748D01*
X5137717Y10699500D01*
X5152388D01*
X5163170Y10692296D01*
X5185000Y10687954D01*
X5431495D01*
X5453326Y10692296D01*
X5464855Y10700000D01*
X5480495D01*
Y10717627D01*
X5484199Y10723169D01*
X5488541Y10745000D01*
X5484199Y10766830D01*
X5480495Y10772373D01*
Y10790000D01*
X5464855D01*
X5453326Y10797703D01*
X5431495Y10802046D01*
X5213110D01*
X5202434Y10824042D01*
X5200706Y10832046D01*
X5203184Y10844500D01*
Y10864031D01*
X5215668Y10877490D01*
X5218912Y10886237D01*
X5220202Y10888168D01*
X5220866Y10891508D01*
X5223408Y10898360D01*
X5223827Y10900978D01*
X5223656Y10905531D01*
X5224545Y10909998D01*
Y11479999D01*
X5287499D01*
Y11719999D01*
D02*
G37*
G36*
X9210606Y11358106D02*
X9114734D01*
Y11322467D01*
X9114676Y11322379D01*
X9110722Y11302500D01*
Y10878336D01*
X9081155Y10851963D01*
X9079448Y10852187D01*
Y11302328D01*
X9075494Y11322208D01*
X9075264Y11322552D01*
Y11358106D01*
X8979393D01*
Y11322467D01*
X8979335Y11322380D01*
X8975381Y11302500D01*
X8975552Y11301639D01*
Y10831948D01*
X8477498D01*
X8457619Y10827993D01*
X8453138Y10824999D01*
X8437498D01*
Y10811842D01*
X8429504Y10799879D01*
X8425550Y10780000D01*
X8429504Y10760120D01*
X8437498Y10748157D01*
Y10735000D01*
X8453138D01*
X8457619Y10732006D01*
X8477498Y10728051D01*
X9027499D01*
X9047379Y10732006D01*
X9050364Y10734000D01*
X9103500Y10734000D01*
X9110722Y10706992D01*
Y10693732D01*
X9111517Y10689732D01*
X9113895Y10671670D01*
X9118883Y10659628D01*
X9098965Y10636736D01*
X9097766Y10636001D01*
X9077445Y10636000D01*
X9050364D01*
X9047380Y10637994D01*
X9027500Y10641948D01*
X8477500D01*
X8457621Y10637994D01*
X8453139Y10635000D01*
X8437500D01*
Y10621843D01*
X8429506Y10609879D01*
X8425552Y10590000D01*
X8429506Y10570120D01*
X8437500Y10558156D01*
Y10545000D01*
X8453140D01*
X8457620Y10542006D01*
X8477500Y10538052D01*
X8477501Y10538052D01*
X9027500D01*
X9047380Y10542006D01*
X9050364Y10544000D01*
X9103500D01*
Y10608030D01*
X9103500Y10626476D01*
X9132906Y10637434D01*
X9133504Y10636655D01*
X9135767Y10633267D01*
X9189604Y10579431D01*
X9189604Y10579430D01*
X9189454Y10579280D01*
X9213500Y10560829D01*
Y10544000D01*
X9249647D01*
X9252881Y10542661D01*
X9289500Y10537840D01*
Y10538052D01*
X9824999D01*
X9844879Y10542006D01*
X9844966Y10542065D01*
X9880606D01*
Y10637936D01*
X9844966D01*
X9844879Y10637994D01*
X9824999Y10641948D01*
X9289500D01*
X9288356Y10641721D01*
X9275022Y10644373D01*
X9263718Y10651926D01*
X9263070Y10652896D01*
X9214618Y10701347D01*
Y10734000D01*
X9266637D01*
X9269621Y10732006D01*
X9289500Y10728052D01*
X9401183D01*
Y10727854D01*
X9449656Y10732628D01*
X9496266Y10746767D01*
X9539222Y10769728D01*
X9576873Y10800627D01*
X9576733Y10800767D01*
X9664838Y10888873D01*
X9666180Y10890881D01*
X9695065Y10914586D01*
X9730119Y10933323D01*
X9768154Y10944861D01*
X9805341Y10948523D01*
X9807710Y10948052D01*
X9970502D01*
X9971436Y10948238D01*
X9988065Y10946049D01*
X10004432Y10939269D01*
X10017738Y10929059D01*
X10018267Y10928267D01*
X10023163Y10923371D01*
X10041988Y10901168D01*
X10042613Y10900407D01*
X10056819Y10873829D01*
X10065567Y10844991D01*
X10068365Y10816575D01*
X10068052Y10815000D01*
Y10474853D01*
X10068364Y10473283D01*
X10065572Y10444932D01*
X10056844Y10416160D01*
X10042671Y10389644D01*
X10024598Y10367622D01*
X10023267Y10366733D01*
X9915162Y10258627D01*
X9913820Y10256619D01*
X9884935Y10232914D01*
X9849881Y10214177D01*
X9811846Y10202639D01*
X9774659Y10198977D01*
X9772290Y10199448D01*
X8677710D01*
X8677250Y10199356D01*
X8629858Y10195627D01*
X8583184Y10184421D01*
X8538838Y10166052D01*
X8497911Y10140972D01*
X8461763Y10110099D01*
X8461372Y10109838D01*
X8306372Y9954838D01*
X8306112Y9954447D01*
X8275238Y9918299D01*
X8250158Y9877372D01*
X8231789Y9833026D01*
X8220584Y9786352D01*
X8216854Y9738960D01*
X8216762Y9738500D01*
Y7828143D01*
X8174184Y7817921D01*
X8129838Y7799552D01*
X8088911Y7774472D01*
X8052763Y7743599D01*
X8052372Y7743338D01*
X7710337Y7401303D01*
X7689124Y7380090D01*
X7666988Y7361102D01*
X7660949Y7356146D01*
X7628290Y7338689D01*
X7620080Y7336199D01*
X7611261Y7345017D01*
X7590739Y7356866D01*
X7567849Y7362999D01*
X7544152D01*
X7521262Y7356866D01*
X7500739Y7345017D01*
X7483982Y7328261D01*
X7472134Y7307738D01*
X7466000Y7284848D01*
Y7278037D01*
X7465461Y7277814D01*
X7436398Y7273987D01*
X7434083Y7274448D01*
X7322500D01*
Y7285000D01*
X7306948D01*
Y7485932D01*
X7306768Y7486837D01*
X7303237Y7522692D01*
X7292514Y7558039D01*
X7275102Y7590615D01*
X7252247Y7618464D01*
X7251733Y7619233D01*
X7216128Y7654838D01*
X7215737Y7655098D01*
X7179589Y7685972D01*
X7138662Y7711052D01*
X7094316Y7729421D01*
X7047642Y7740627D01*
X7000250Y7744356D01*
X6999790Y7744448D01*
X6849675D01*
Y7744481D01*
X6807895Y7740366D01*
X6767721Y7728179D01*
X6730696Y7708389D01*
X6698244Y7681756D01*
X6698244Y7681756D01*
X6675845Y7663406D01*
X6670584Y7659369D01*
X6637608Y7645709D01*
X6604935Y7641408D01*
X6602219Y7641948D01*
X6413505D01*
X6393626Y7637994D01*
X6390642Y7636000D01*
X6339623D01*
Y8127489D01*
X6335668Y8147368D01*
X6335610Y8147455D01*
Y8183095D01*
X6239739D01*
Y8147455D01*
X6239681Y8147368D01*
X6235726Y8127489D01*
Y7688042D01*
X6205886Y7662209D01*
X6204281Y7662452D01*
Y8127489D01*
X6200327Y8147368D01*
X6200269Y8147455D01*
Y8183095D01*
X6104397D01*
Y8147455D01*
X6104339Y8147368D01*
X6100385Y8127489D01*
Y7644448D01*
X5604998D01*
X5585119Y7640494D01*
X5580638Y7637500D01*
X5564998D01*
Y7624343D01*
X5557004Y7612380D01*
X5553050Y7592500D01*
X5557004Y7572621D01*
X5564998Y7560657D01*
Y7547500D01*
X5580638D01*
X5585119Y7544506D01*
X5604998Y7540552D01*
X6110678D01*
X6136125Y7540552D01*
X6145470Y7536681D01*
X6145470Y7536680D01*
X6171385Y7542006D01*
X6174369Y7544000D01*
X6221869Y7544000D01*
X6237586Y7525685D01*
X6240952Y7519570D01*
X6252565Y7481288D01*
X6273094Y7442881D01*
X6300721Y7409217D01*
X6300721Y7409216D01*
X6300823Y7409217D01*
X6325559Y7384481D01*
X6325512Y7384434D01*
X6337505Y7375231D01*
Y7354000D01*
X6377014D01*
X6381297Y7352226D01*
X6413505Y7347986D01*
Y7348052D01*
X6949141D01*
X6950000Y7347881D01*
X6969880Y7351835D01*
X6969967Y7351893D01*
X7005607D01*
Y7447765D01*
X6970052D01*
X6969709Y7447994D01*
X6949829Y7451948D01*
X6413505D01*
X6413193Y7451886D01*
X6405621Y7453392D01*
X6399202Y7457681D01*
X6399025Y7457946D01*
X6374238Y7482733D01*
X6372326Y7484011D01*
X6355357Y7506125D01*
X6356947Y7510716D01*
X6370223Y7534817D01*
X6393626Y7542007D01*
X6413505Y7538052D01*
X6602219D01*
Y7537895D01*
X6649018Y7542505D01*
X6694019Y7556156D01*
X6735492Y7578323D01*
X6771844Y7608156D01*
X6771844Y7608156D01*
X6794223Y7626371D01*
X6820971Y7637450D01*
X6847627Y7640959D01*
X6849675Y7640552D01*
X6999790D01*
X7002159Y7641023D01*
X7039346Y7637361D01*
X7077381Y7625823D01*
X7112435Y7607086D01*
X7141320Y7583381D01*
X7142662Y7581372D01*
X7178267Y7545767D01*
X7179438Y7544985D01*
X7192110Y7528470D01*
X7200609Y7507951D01*
X7203326Y7487312D01*
X7203052Y7485932D01*
Y7285000D01*
X7187500D01*
Y7274448D01*
X7043916D01*
X7043455Y7274356D01*
X6996063Y7270627D01*
X6949389Y7259421D01*
X6905043Y7241052D01*
X6864116Y7215972D01*
X6827969Y7185099D01*
X6827577Y7184838D01*
X6751540Y7108800D01*
X6675005D01*
Y7032266D01*
X6420167Y6777427D01*
X6419907Y6777037D01*
X6389033Y6740889D01*
X6363953Y6699962D01*
X6345584Y6655616D01*
X6334378Y6608942D01*
X6330649Y6561550D01*
X6330557Y6561089D01*
Y6485606D01*
X6321899D01*
Y6474448D01*
X6158639D01*
X6158556Y6474432D01*
X6118533Y6470489D01*
X6079968Y6458791D01*
X6044426Y6439793D01*
X6013339Y6414281D01*
X6013267Y6414233D01*
X5998445Y6399410D01*
X5998127Y6398935D01*
X5980630Y6376133D01*
X5969415Y6349056D01*
X5965664Y6320563D01*
X5965552Y6320000D01*
Y5926379D01*
X5940411Y5910972D01*
X5904263Y5880098D01*
X5903873Y5879838D01*
X5724035Y5700000D01*
X5602500D01*
Y5687671D01*
X5572500Y5665421D01*
X5560119Y5669177D01*
X5525065Y5687914D01*
X5496180Y5711619D01*
X5494838Y5713628D01*
X5201733Y6006733D01*
X5200563Y6007515D01*
X5187890Y6024030D01*
X5179391Y6044549D01*
X5178673Y6050000D01*
X5200127Y6080000D01*
X5227500D01*
Y6205000D01*
X5135966D01*
X5098628Y6242338D01*
X5098237Y6242598D01*
X5062089Y6273472D01*
X5051437Y6280000D01*
X5059898Y6310000D01*
X5227500D01*
Y6341912D01*
X5295587D01*
X5296849Y6337200D01*
X5307184Y6319300D01*
X5321800Y6304684D01*
X5339700Y6294350D01*
X5359665Y6289000D01*
X5380335D01*
X5400300Y6294350D01*
X5418200Y6304684D01*
X5432816Y6319300D01*
X5443150Y6337200D01*
X5448500Y6357165D01*
Y6377835D01*
X5443150Y6397800D01*
X5432816Y6415700D01*
X5418200Y6430316D01*
X5400300Y6440651D01*
X5380335Y6446000D01*
X5359665D01*
X5339700Y6440651D01*
X5321800Y6430316D01*
X5307184Y6415700D01*
X5299902Y6403088D01*
X5227500D01*
Y6435000D01*
X5022500D01*
Y6330470D01*
X4992500Y6310425D01*
X4976816Y6316921D01*
X4930142Y6328127D01*
X4890000Y6331286D01*
Y6342500D01*
X4755000D01*
Y6217500D01*
X4890000D01*
Y6217500D01*
X4900447Y6226968D01*
X4921846Y6224861D01*
X4959881Y6213323D01*
X4994935Y6194586D01*
X5022500Y6171964D01*
Y6080000D01*
X5073052D01*
Y6066568D01*
X5073232Y6065663D01*
X5076764Y6029808D01*
X5087486Y5994461D01*
X5104898Y5961885D01*
X5127755Y5934035D01*
X5128267Y5933267D01*
X5421372Y5640162D01*
X5421764Y5639901D01*
X5457911Y5609027D01*
X5498838Y5583947D01*
X5543184Y5565579D01*
X5589859Y5554373D01*
X5602500Y5553378D01*
Y5505000D01*
X5648052D01*
Y5437710D01*
X5648523Y5435341D01*
X5644861Y5398154D01*
X5633323Y5360119D01*
X5614586Y5325065D01*
X5590881Y5296179D01*
X5588872Y5294838D01*
X5350162Y5056127D01*
X5349901Y5055737D01*
X5319027Y5019589D01*
X5293948Y4978662D01*
X5290588Y4970550D01*
X5260588Y4976518D01*
Y5207669D01*
X5293107D01*
Y5331172D01*
X5166893D01*
Y5207669D01*
X5199412D01*
Y4843985D01*
X5199007Y4843808D01*
X5198625Y4842888D01*
X5180395Y4820439D01*
X5172009Y4810621D01*
X5143228Y4763654D01*
X5133265Y4739601D01*
X5131574Y4737047D01*
X5099227Y4657998D01*
X5019336D01*
X5016803Y4658933D01*
X4990902Y4668829D01*
X4979119Y4693948D01*
X4963519Y4727480D01*
X4959272Y4737119D01*
X4951775Y4754294D01*
X4951591Y4754739D01*
X4950588Y4782438D01*
Y5207669D01*
X4983107D01*
Y5331172D01*
X4856894D01*
Y5207669D01*
X4889412D01*
Y4768209D01*
X4889122Y4768209D01*
X4889919Y4752167D01*
X4889919Y4752165D01*
X4890079Y4750096D01*
X4892053Y4740174D01*
X4893919Y4730792D01*
X4895389Y4728591D01*
X4895505Y4728644D01*
X4898115Y4723034D01*
X4916605Y4683293D01*
X4900474Y4657998D01*
X4845000D01*
Y4507998D01*
X5255000D01*
Y4622122D01*
X5257139Y4643845D01*
X5268677Y4681881D01*
X5287414Y4716934D01*
X5311119Y4745820D01*
X5313127Y4747161D01*
X5318465Y4752500D01*
X5375000D01*
Y4887499D01*
X5375000D01*
X5371532Y4892176D01*
X5379177Y4917381D01*
X5397914Y4952435D01*
X5421619Y4981320D01*
X5423627Y4982662D01*
X5662338Y5221372D01*
X5662599Y5221762D01*
X5693472Y5257911D01*
X5718552Y5298838D01*
X5736921Y5343184D01*
X5748127Y5389858D01*
X5751856Y5437249D01*
X5751948Y5437710D01*
Y5505000D01*
X5797500D01*
Y5626534D01*
X5977338Y5806372D01*
X5978680Y5808381D01*
X6007565Y5832086D01*
X6035849Y5847204D01*
X6036143Y5847263D01*
X6036883Y5847757D01*
X6042619Y5850823D01*
X6080655Y5862361D01*
X6117841Y5866023D01*
X6120211Y5865552D01*
X6805833D01*
X6832499Y5857505D01*
X6832500Y5838131D01*
Y5722505D01*
X6957500D01*
Y5857505D01*
X6946948D01*
Y5873359D01*
X6946167Y5877282D01*
X6943760Y5895572D01*
X6935186Y5916271D01*
X6923954Y5930909D01*
X6921733Y5934233D01*
X6921755Y5934255D01*
X6896847Y5953367D01*
X6867842Y5965381D01*
X6840031Y5969042D01*
X6835935Y5969930D01*
X6812500Y5983443D01*
X6812500Y5999448D01*
Y6110005D01*
X6801953D01*
Y6217082D01*
X6808382Y6223511D01*
X7000000D01*
Y6210000D01*
X7120000D01*
Y6244412D01*
X7225502D01*
Y6244277D01*
X7254809Y6247163D01*
X7282989Y6255711D01*
X7308961Y6269594D01*
X7331724Y6288275D01*
X7331725Y6288275D01*
X7354014Y6306892D01*
X7356678Y6309079D01*
X7385350Y6324404D01*
X7416462Y6333842D01*
X7448426Y6336990D01*
X7448817Y6336912D01*
X7466208D01*
X7474565Y6325321D01*
X7480894Y6306912D01*
X7472134Y6291738D01*
X7466000Y6268848D01*
Y6245151D01*
X7472134Y6222261D01*
X7483982Y6201739D01*
X7500739Y6184982D01*
X7521262Y6173133D01*
X7544152Y6167000D01*
X7567849D01*
X7590739Y6173133D01*
X7611261Y6184982D01*
X7628018Y6201739D01*
X7639867Y6222261D01*
X7646000Y6245151D01*
Y6268848D01*
X7639867Y6291738D01*
X7631106Y6306912D01*
X7637435Y6325321D01*
X7645793Y6336912D01*
X8990208D01*
X8998565Y6325321D01*
X9004894Y6306912D01*
X8996134Y6291738D01*
X8990000Y6268848D01*
Y6245151D01*
X8990990Y6241456D01*
X8013662Y5264127D01*
X8013402Y5263737D01*
X7982528Y5227588D01*
X7957448Y5186662D01*
X7939079Y5142315D01*
X7927873Y5095641D01*
X7924144Y5048250D01*
X7924052Y5047789D01*
Y4427506D01*
X7878500D01*
Y4232506D01*
X8073500D01*
Y4427506D01*
X8027948D01*
Y5047789D01*
X8027477Y5050158D01*
X8031139Y5087345D01*
X8042677Y5125381D01*
X8061414Y5160435D01*
X8085119Y5189320D01*
X8087128Y5190662D01*
X9064456Y6167990D01*
X9068152Y6167000D01*
X9091849D01*
X9114739Y6173133D01*
X9135261Y6184982D01*
X9152018Y6201739D01*
X9163867Y6222261D01*
X9170000Y6245151D01*
Y6268273D01*
X9171530Y6269785D01*
X9196680Y6285187D01*
X9212013Y6272603D01*
X9212766Y6271476D01*
X9428763Y6055480D01*
X9449976Y6034266D01*
X9468731Y6012034D01*
X9478089Y6000631D01*
X9498771Y5961937D01*
X9511507Y5919953D01*
X9515677Y5877619D01*
X9515412Y5876290D01*
Y5202496D01*
X9462000D01*
Y4962496D01*
X9630000D01*
Y5202496D01*
X9576588D01*
Y5876290D01*
X9576878D01*
X9573371Y5920855D01*
X9562935Y5964322D01*
X9545828Y6005622D01*
X9522471Y6043737D01*
X9493439Y6077729D01*
X9493439Y6077729D01*
X9472021Y6098737D01*
X9256024Y6314734D01*
X9256229Y6314939D01*
X9222237Y6343971D01*
X9184122Y6367328D01*
X9142822Y6384435D01*
X9105098Y6393492D01*
X9101382Y6410362D01*
X9103170Y6424033D01*
X9114739Y6427133D01*
X9135261Y6438982D01*
X9152018Y6455739D01*
X9163867Y6476261D01*
X9170000Y6499151D01*
Y6511816D01*
X9199014Y6525228D01*
X9577758Y6146485D01*
X9598766Y6125066D01*
X9598766Y6125066D01*
X9632758Y6096034D01*
X9670873Y6072677D01*
X9712173Y6055570D01*
X9755640Y6045134D01*
X9800205Y6041627D01*
Y6041918D01*
X9967511D01*
Y5982505D01*
X10147511D01*
Y6162505D01*
X9967511D01*
Y6103093D01*
X9800205D01*
X9798875Y6102829D01*
X9756542Y6106998D01*
X9714557Y6119734D01*
X9675864Y6140416D01*
X9664460Y6149775D01*
X9642229Y6168529D01*
X9642228Y6168530D01*
X9436364Y6374393D01*
X9448791Y6404393D01*
X9540607D01*
Y6410381D01*
X9921480D01*
X9926424Y6411364D01*
X9941618Y6413365D01*
X9959831Y6420909D01*
X9962758Y6421294D01*
X9983965Y6430078D01*
X9999253Y6441809D01*
X10002349Y6443878D01*
X10002349Y6443877D01*
X10002350Y6443877D01*
X10002350Y6443878D01*
X10022643Y6464172D01*
X10041967Y6483496D01*
X10045662Y6482505D01*
X10069360D01*
X10092250Y6488639D01*
X10112772Y6500488D01*
X10129529Y6517244D01*
X10141377Y6537767D01*
X10147511Y6560657D01*
Y6584354D01*
X10146521Y6588049D01*
X10257338Y6698867D01*
X10257600Y6699258D01*
X10288472Y6735405D01*
X10313552Y6776332D01*
X10331921Y6820679D01*
X10343127Y6867353D01*
X10346856Y6914744D01*
X10346948Y6915205D01*
Y9494541D01*
X10346736Y9495606D01*
X10343345Y9538699D01*
X10333004Y9581770D01*
X10316054Y9622693D01*
X10292910Y9660460D01*
X10264835Y9693331D01*
X10264233Y9694233D01*
X10262128Y9696338D01*
X10261737Y9696599D01*
X10225589Y9727473D01*
X10184662Y9752553D01*
X10141311Y9770509D01*
Y9857750D01*
X9893811D01*
Y9610250D01*
X9935661D01*
X9943700Y9580250D01*
X9941577Y9579025D01*
X9918536Y9555984D01*
X9904659Y9531948D01*
X9870210D01*
X9867841Y9531477D01*
X9830654Y9535139D01*
X9792619Y9546677D01*
X9757565Y9565414D01*
X9728680Y9589119D01*
X9727338Y9591128D01*
X9250630Y10067835D01*
X9262111Y10095552D01*
X9772290D01*
X9772750Y10095644D01*
X9820142Y10099373D01*
X9866816Y10110579D01*
X9911162Y10128947D01*
X9952089Y10154027D01*
X9988237Y10184901D01*
X9988627Y10185162D01*
X10096733Y10293267D01*
X10096902Y10293098D01*
X10128868Y10332049D01*
X10152622Y10376488D01*
X10167249Y10424707D01*
X10172188Y10474853D01*
X10171948D01*
Y10815000D01*
X10172189D01*
X10167244Y10865216D01*
X10152596Y10913501D01*
X10128810Y10958002D01*
X10096800Y10997007D01*
X10096629Y10996837D01*
X10096629Y10996837D01*
X10091733Y11001733D01*
X10090271Y11002710D01*
X10065656Y11022910D01*
X10036045Y11038737D01*
X10003916Y11048484D01*
X9972230Y11051605D01*
X9970502Y11051948D01*
X9807710D01*
X9807250Y11051856D01*
X9759858Y11048127D01*
X9713184Y11036921D01*
X9668838Y11018553D01*
X9627911Y10993473D01*
X9591764Y10962600D01*
X9591372Y10962338D01*
X9503267Y10874233D01*
X9501603Y10871742D01*
X9473853Y10850449D01*
X9438800Y10835929D01*
X9404122Y10831364D01*
X9401183Y10831948D01*
X9289500D01*
X9269621Y10827994D01*
X9266637Y10826000D01*
X9214618D01*
Y11302500D01*
X9210664Y11322379D01*
X9210606Y11322467D01*
Y11358106D01*
D02*
G37*
G36*
X8160335Y10971000D02*
X8139665D01*
X8119700Y10965650D01*
X8101800Y10955316D01*
X8087184Y10940700D01*
X8076849Y10922800D01*
X8071500Y10902835D01*
Y10882165D01*
X8076849Y10862200D01*
X8087184Y10844300D01*
X8089538Y10841946D01*
X8077498Y10811946D01*
X7945001D01*
X7925122Y10807992D01*
X7913158Y10799998D01*
X7900001D01*
Y10784358D01*
X7897008Y10779877D01*
X7893053Y10759998D01*
X7897008Y10740118D01*
X7900001Y10735638D01*
Y10719998D01*
X7913158D01*
X7925122Y10712004D01*
X7945001Y10708050D01*
X8279214D01*
Y10708019D01*
X8310342Y10712117D01*
X8339348Y10724132D01*
X8353511Y10735000D01*
X8367502D01*
Y10748157D01*
X8375496Y10760120D01*
X8379450Y10780000D01*
X8375496Y10799879D01*
X8367502Y10811842D01*
Y10824999D01*
X8351862D01*
X8347382Y10827993D01*
X8327502Y10831948D01*
X8315604Y10829581D01*
X8287502Y10825000D01*
D01*
X8263051Y10811946D01*
X8222502D01*
X8210462Y10841946D01*
X8212816Y10844300D01*
X8223150Y10862200D01*
X8228500Y10882165D01*
Y10902835D01*
X8223150Y10922800D01*
X8212816Y10940700D01*
X8198200Y10955316D01*
X8180300Y10965650D01*
X8160335Y10971000D01*
D02*
G37*
G36*
X6015000Y10807046D02*
X5887700D01*
X5865870Y10802704D01*
X5864885Y10802046D01*
X5663495D01*
X5641665Y10797703D01*
X5630136Y10790000D01*
X5614495D01*
Y10772373D01*
X5610792Y10766830D01*
X5606449Y10745000D01*
X5610792Y10723169D01*
X5614495Y10717627D01*
Y10700000D01*
X5630136D01*
X5641665Y10692296D01*
X5663495Y10687954D01*
X5878481D01*
X5882000Y10687254D01*
X5903831Y10691596D01*
X5905258Y10692550D01*
X5932500D01*
Y10692954D01*
X6015000D01*
X6025289Y10695001D01*
X6094122D01*
X6098169Y10692297D01*
X6120000Y10687954D01*
X6120001Y10687954D01*
X6512330D01*
X6513186Y10688125D01*
X7524619D01*
X7527236Y10688645D01*
X7563195Y10685104D01*
X7600288Y10673852D01*
X7634473Y10655579D01*
X7642575Y10648930D01*
X7664545Y10629545D01*
X7664546Y10629545D01*
X7704257Y10596955D01*
X7749563Y10572738D01*
X7798724Y10557825D01*
X7849849Y10552790D01*
Y10552956D01*
X8279215D01*
X8282504Y10540000D01*
X8301627D01*
X8305673Y10537296D01*
X8327504Y10532954D01*
X8349334Y10537296D01*
X8353381Y10540000D01*
X8372504D01*
Y10556640D01*
X8380207Y10568169D01*
X8384550Y10590000D01*
X8380207Y10611830D01*
X8372504Y10623359D01*
Y10640000D01*
X8355210D01*
X8341871Y10650235D01*
X8311648Y10662754D01*
X8279570Y10666977D01*
X8279215Y10667047D01*
X7849849D01*
X7848032Y10666686D01*
X7820909Y10669358D01*
X7793081Y10677799D01*
X7767435Y10691507D01*
X7746367Y10708797D01*
X7745338Y10710337D01*
X7744562Y10711113D01*
X7743591Y10711762D01*
X7707366Y10742701D01*
X7665768Y10768192D01*
X7620695Y10786862D01*
X7573256Y10798251D01*
X7525764Y10801989D01*
X7524619Y10802217D01*
X6512500D01*
X6511643Y10802046D01*
X6120000D01*
X6098170Y10797704D01*
X6094124Y10795001D01*
X6048358D01*
X6036830Y10802704D01*
X6015000Y10807046D01*
D02*
G37*
G36*
X7646000Y9902999D02*
X7466000D01*
Y9723000D01*
X7646000D01*
Y9902999D01*
D02*
G37*
G36*
X5052501Y10306051D02*
X5030670Y10301708D01*
X5025127Y10298005D01*
X5007501D01*
Y10282364D01*
X4999797Y10270835D01*
X4995455Y10249005D01*
Y10027806D01*
X4995757Y10026285D01*
Y9906525D01*
X4995454Y9905000D01*
X4999796Y9883169D01*
X4999999Y9882866D01*
Y9833358D01*
X4992297Y9821830D01*
X4987954Y9800000D01*
X4989556Y9791945D01*
Y9617605D01*
Y9431414D01*
X4987784Y9422501D01*
Y7497500D01*
X4992126Y7475670D01*
X5000004Y7463878D01*
Y7447500D01*
X5014329D01*
X5116511Y7345318D01*
X5117808Y7344452D01*
X5146276Y7321089D01*
X5180109Y7303004D01*
X5216821Y7291868D01*
X5253470Y7288258D01*
X5255000Y7287954D01*
X5322220D01*
Y7287871D01*
X5370000Y7292577D01*
X5415944Y7306513D01*
X5458286Y7329146D01*
X5483696Y7350000D01*
X5500002D01*
Y7366640D01*
X5507706Y7378169D01*
X5512048Y7400000D01*
X5507706Y7421830D01*
X5500002Y7433360D01*
Y7450000D01*
X5480879D01*
X5476833Y7452703D01*
X5455002Y7457046D01*
X5433172Y7452703D01*
X5429125Y7450000D01*
X5410002D01*
Y7435570D01*
X5388064Y7418736D01*
X5356304Y7405581D01*
X5325102Y7401473D01*
X5322220Y7402046D01*
X5255000D01*
X5253396Y7401727D01*
X5233701Y7404320D01*
X5220478Y7409797D01*
X5207698Y7418684D01*
X5213022Y7447037D01*
X5214799Y7449398D01*
X5215611Y7449995D01*
X5219361Y7452500D01*
X5235000D01*
Y7464035D01*
X5252338Y7481372D01*
X5253681Y7483381D01*
X5282566Y7507086D01*
X5317619Y7525823D01*
X5355655Y7537361D01*
X5392842Y7541023D01*
X5395211Y7540552D01*
X5455002D01*
X5474882Y7544506D01*
X5479362Y7547500D01*
X5495002D01*
Y7560657D01*
X5502996Y7572621D01*
X5506950Y7592500D01*
Y7992292D01*
X5506479Y7994661D01*
X5510141Y8031848D01*
X5521679Y8069883D01*
X5540416Y8104937D01*
X5564121Y8133822D01*
X5566130Y8135164D01*
X5702338Y8271373D01*
X5703680Y8273381D01*
X5732565Y8297086D01*
X5767619Y8315823D01*
X5805655Y8327361D01*
X5842842Y8331023D01*
X5845211Y8330552D01*
X6980000D01*
Y8330518D01*
X7021843Y8334639D01*
X7062079Y8346844D01*
X7099160Y8366664D01*
X7131662Y8393338D01*
X7158336Y8425840D01*
X7178156Y8462921D01*
X7190362Y8503157D01*
X7194483Y8545000D01*
X7194448D01*
Y9357500D01*
X7194147Y9359015D01*
X7196880Y9386764D01*
X7205416Y9414903D01*
X7219277Y9440837D01*
X7237932Y9463568D01*
X7260663Y9482222D01*
X7286596Y9496084D01*
X7314736Y9504620D01*
X7342485Y9507353D01*
X7344000Y9507052D01*
X7482070D01*
X7483982Y9503739D01*
X7500739Y9486982D01*
X7521262Y9475133D01*
X7544152Y9469000D01*
X7567849D01*
X7590739Y9475133D01*
X7611261Y9486982D01*
X7628018Y9503739D01*
X7639867Y9524261D01*
X7646000Y9547151D01*
Y9570848D01*
X7639867Y9593738D01*
X7628018Y9614261D01*
X7611261Y9631017D01*
X7590739Y9642866D01*
X7567849Y9648999D01*
X7544152D01*
X7521262Y9642866D01*
X7500739Y9631017D01*
X7483982Y9614261D01*
X7482070Y9610948D01*
X7344000D01*
Y9611171D01*
X7294511Y9606297D01*
X7246924Y9591861D01*
X7203068Y9568420D01*
X7164627Y9536872D01*
X7133080Y9498432D01*
X7109638Y9454576D01*
X7095203Y9406989D01*
X7090329Y9357500D01*
X7090552D01*
Y8545000D01*
X7090961Y8542944D01*
X7087442Y8516211D01*
X7076330Y8489384D01*
X7058653Y8466348D01*
X7035616Y8448671D01*
X7008789Y8437559D01*
X6982056Y8434039D01*
X6980000Y8434448D01*
X5845211D01*
X5844750Y8434357D01*
X5797358Y8430627D01*
X5750684Y8419421D01*
X5706338Y8401053D01*
X5665411Y8375973D01*
X5629264Y8345100D01*
X5628873Y8344838D01*
X5492664Y8208630D01*
X5492404Y8208239D01*
X5461530Y8172091D01*
X5436450Y8131164D01*
X5418081Y8086818D01*
X5406875Y8040144D01*
X5403146Y7992752D01*
X5403054Y7992292D01*
Y7644448D01*
X5395211D01*
X5394750Y7644357D01*
X5347359Y7640627D01*
X5300685Y7629421D01*
X5256338Y7611053D01*
X5215412Y7585973D01*
X5179264Y7555099D01*
X5178873Y7554838D01*
X5166535Y7542500D01*
X5155001D01*
Y7529343D01*
X5152429Y7525495D01*
X5121013Y7519570D01*
X5118975Y7519683D01*
X5101875Y7533686D01*
Y9415360D01*
X5103648Y9424274D01*
Y9617605D01*
Y9798398D01*
X5099999Y9816743D01*
Y9875230D01*
X5105507Y9883473D01*
X5109849Y9905303D01*
Y10027504D01*
X5109547Y10029025D01*
Y10249005D01*
X5105204Y10270835D01*
X5097501Y10282364D01*
Y10298005D01*
X5079874D01*
X5074331Y10301708D01*
X5052501Y10306051D01*
D02*
G37*
G36*
X7567849Y9394999D02*
X7544152D01*
X7521262Y9388866D01*
X7500739Y9377017D01*
X7483982Y9360261D01*
X7481348Y9355698D01*
X7412818D01*
X7403200Y9365316D01*
X7385300Y9375651D01*
X7365335Y9381000D01*
X7344665D01*
X7324700Y9375651D01*
X7306800Y9365316D01*
X7292184Y9350700D01*
X7281850Y9332800D01*
X7276500Y9312835D01*
Y9292165D01*
X7281850Y9272200D01*
X7292184Y9254300D01*
X7306800Y9239684D01*
X7324700Y9229350D01*
X7344665Y9224000D01*
X7365335D01*
X7385300Y9229350D01*
X7403200Y9239684D01*
X7415317Y9251802D01*
X7482791D01*
X7483982Y9249739D01*
X7500739Y9232982D01*
X7521262Y9221133D01*
X7544152Y9215000D01*
X7567849D01*
X7590739Y9221133D01*
X7611261Y9232982D01*
X7628018Y9249739D01*
X7639867Y9270261D01*
X7646000Y9293151D01*
Y9316848D01*
X7639867Y9339738D01*
X7628018Y9360261D01*
X7611261Y9377017D01*
X7590739Y9388866D01*
X7567849Y9394999D01*
D02*
G37*
G36*
Y9140999D02*
X7544152D01*
X7521262Y9134866D01*
X7500739Y9123017D01*
X7483982Y9106261D01*
X7472134Y9085738D01*
X7466000Y9062848D01*
Y9039151D01*
X7472134Y9016261D01*
X7483982Y8995739D01*
X7500739Y8978982D01*
X7521262Y8967133D01*
X7544152Y8961000D01*
X7567849D01*
X7590739Y8967133D01*
X7611261Y8978982D01*
X7628018Y8995739D01*
X7639867Y9016261D01*
X7646000Y9039151D01*
Y9062848D01*
X7639867Y9085738D01*
X7628018Y9106261D01*
X7611261Y9123017D01*
X7590739Y9134866D01*
X7567849Y9140999D01*
D02*
G37*
G36*
Y8886999D02*
X7544152D01*
X7521262Y8880866D01*
X7500739Y8869017D01*
X7483982Y8852261D01*
X7472134Y8831738D01*
X7466000Y8808848D01*
Y8785151D01*
X7472134Y8762261D01*
X7483982Y8741739D01*
X7500739Y8724982D01*
X7521262Y8713133D01*
X7544152Y8707000D01*
X7567849D01*
X7590739Y8713133D01*
X7611261Y8724982D01*
X7628018Y8741739D01*
X7639867Y8762261D01*
X7646000Y8785151D01*
Y8808848D01*
X7639867Y8831738D01*
X7628018Y8852261D01*
X7611261Y8869017D01*
X7590739Y8880866D01*
X7567849Y8886999D01*
D02*
G37*
G36*
Y8632999D02*
X7544152D01*
X7521262Y8626866D01*
X7500739Y8615017D01*
X7483982Y8598261D01*
X7472134Y8577738D01*
X7466000Y8554848D01*
Y8531151D01*
X7472134Y8508261D01*
X7483982Y8487739D01*
X7500739Y8470982D01*
X7521262Y8459133D01*
X7544152Y8453000D01*
X7567849D01*
X7590739Y8459133D01*
X7611261Y8470982D01*
X7628018Y8487739D01*
X7639867Y8508261D01*
X7646000Y8531151D01*
Y8554848D01*
X7639867Y8577738D01*
X7628018Y8598261D01*
X7611261Y8615017D01*
X7590739Y8626866D01*
X7567849Y8632999D01*
D02*
G37*
G36*
Y8378999D02*
X7544152D01*
X7521262Y8372866D01*
X7500739Y8361017D01*
X7483982Y8344261D01*
X7472134Y8323738D01*
X7466000Y8300848D01*
Y8277151D01*
X7472134Y8254261D01*
X7483982Y8233739D01*
X7500739Y8216982D01*
X7521262Y8205133D01*
X7544152Y8199000D01*
X7567849D01*
X7590739Y8205133D01*
X7611261Y8216982D01*
X7628018Y8233739D01*
X7639867Y8254261D01*
X7646000Y8277151D01*
Y8300848D01*
X7639867Y8323738D01*
X7628018Y8344261D01*
X7611261Y8361017D01*
X7590739Y8372866D01*
X7567849Y8378999D01*
D02*
G37*
G36*
Y8124999D02*
X7544152D01*
X7521262Y8118866D01*
X7500739Y8107017D01*
X7483982Y8090261D01*
X7472134Y8069738D01*
X7466000Y8046848D01*
Y8023151D01*
X7472134Y8000261D01*
X7483982Y7979739D01*
X7500739Y7962982D01*
X7521262Y7951133D01*
X7544152Y7945000D01*
X7567849D01*
X7590739Y7951133D01*
X7611261Y7962982D01*
X7628018Y7979739D01*
X7639867Y8000261D01*
X7646000Y8023151D01*
Y8046848D01*
X7639867Y8069738D01*
X7628018Y8090261D01*
X7611261Y8107017D01*
X7590739Y8118866D01*
X7567849Y8124999D01*
D02*
G37*
G36*
Y7870999D02*
X7544152D01*
X7521262Y7864866D01*
X7500739Y7853017D01*
X7483982Y7836261D01*
X7472134Y7815738D01*
X7466000Y7792848D01*
Y7769151D01*
X7472134Y7746261D01*
X7483982Y7725739D01*
X7500739Y7708982D01*
X7521262Y7697133D01*
X7544152Y7691000D01*
X7567849D01*
X7590739Y7697133D01*
X7611261Y7708982D01*
X7628018Y7725739D01*
X7639867Y7746261D01*
X7646000Y7769151D01*
Y7792848D01*
X7639867Y7815738D01*
X7628018Y7836261D01*
X7611261Y7853017D01*
X7590739Y7864866D01*
X7567849Y7870999D01*
D02*
G37*
G36*
Y7616999D02*
X7544152D01*
X7521262Y7610866D01*
X7500739Y7599017D01*
X7483982Y7582261D01*
X7472134Y7561738D01*
X7466000Y7538848D01*
Y7515151D01*
X7472134Y7492261D01*
X7483982Y7471739D01*
X7500739Y7454982D01*
X7521262Y7443133D01*
X7544152Y7437000D01*
X7567849D01*
X7590739Y7443133D01*
X7611261Y7454982D01*
X7628018Y7471739D01*
X7639867Y7492261D01*
X7646000Y7515151D01*
Y7538848D01*
X7639867Y7561738D01*
X7628018Y7582261D01*
X7611261Y7599017D01*
X7590739Y7610866D01*
X7567849Y7616999D01*
D02*
G37*
G36*
X6151505Y7451948D02*
X5604998D01*
X5585119Y7447994D01*
X5580638Y7445000D01*
X5564998D01*
Y7431843D01*
X5557004Y7419879D01*
X5553050Y7400000D01*
X5557004Y7380120D01*
X5564998Y7368157D01*
Y7355000D01*
X5580638D01*
X5585119Y7352006D01*
X5604998Y7348052D01*
X6151505D01*
X6171385Y7352006D01*
X6174369Y7354000D01*
X6227505D01*
Y7446000D01*
X6174369D01*
X6171385Y7447994D01*
X6151505Y7451948D01*
D02*
G37*
G36*
X10069360Y6412505D02*
X10045662D01*
X10022772Y6406372D01*
X10002250Y6394523D01*
X9985493Y6377766D01*
X9973645Y6357244D01*
X9967511Y6334354D01*
Y6310657D01*
X9973645Y6287767D01*
X9985493Y6267244D01*
X10002250Y6250488D01*
X10022772Y6238639D01*
X10045662Y6232505D01*
X10069360D01*
X10092250Y6238639D01*
X10112772Y6250488D01*
X10129529Y6267244D01*
X10141377Y6287767D01*
X10147511Y6310657D01*
Y6334354D01*
X10141377Y6357244D01*
X10129529Y6377766D01*
X10112772Y6394523D01*
X10092250Y6406372D01*
X10069360Y6412505D01*
D02*
G37*
G36*
X5857500Y6547500D02*
X5652500D01*
Y6197500D01*
X5857500D01*
Y6547500D01*
D02*
G37*
G36*
X9091849Y6092999D02*
X9068152D01*
X9045262Y6086866D01*
X9024739Y6075017D01*
X9007982Y6058261D01*
X8996134Y6037738D01*
X8990000Y6014848D01*
Y5991151D01*
X8990990Y5987456D01*
X8267662Y5264127D01*
X8267402Y5263737D01*
X8236528Y5227588D01*
X8211448Y5186662D01*
X8193079Y5142315D01*
X8181873Y5095641D01*
X8178144Y5048250D01*
X8178052Y5047789D01*
Y4412597D01*
X8170134Y4408026D01*
X8151981Y4389873D01*
X8139145Y4367640D01*
X8132500Y4342842D01*
Y4317170D01*
X8139145Y4292373D01*
X8151981Y4270140D01*
X8170134Y4251987D01*
X8192366Y4239151D01*
X8217164Y4232506D01*
X8242836D01*
X8267634Y4239151D01*
X8289866Y4251987D01*
X8308019Y4270140D01*
X8320855Y4292373D01*
X8327500Y4317170D01*
Y4342842D01*
X8320855Y4367640D01*
X8308019Y4389873D01*
X8289866Y4408026D01*
X8281948Y4412597D01*
Y5047789D01*
X8281477Y5050158D01*
X8285139Y5087345D01*
X8296677Y5125381D01*
X8315414Y5160435D01*
X8339119Y5189320D01*
X8341128Y5190662D01*
X9064456Y5913990D01*
X9068152Y5913000D01*
X9091849D01*
X9114739Y5919133D01*
X9135261Y5930982D01*
X9152018Y5947739D01*
X9163867Y5968261D01*
X9170000Y5991151D01*
Y6014848D01*
X9163867Y6037738D01*
X9152018Y6058261D01*
X9135261Y6075017D01*
X9114739Y6086866D01*
X9091849Y6092999D01*
D02*
G37*
G36*
X7567849D02*
X7544152D01*
X7521262Y6086866D01*
X7500739Y6075017D01*
X7483982Y6058261D01*
X7472134Y6037738D01*
X7466000Y6014848D01*
Y5991151D01*
X7472134Y5968261D01*
X7483982Y5947739D01*
X7500739Y5930982D01*
X7521262Y5919133D01*
X7544152Y5913000D01*
X7567849D01*
X7590739Y5919133D01*
X7611261Y5930982D01*
X7628018Y5947739D01*
X7639867Y5968261D01*
X7646000Y5991151D01*
Y6014848D01*
X7639867Y6037738D01*
X7628018Y6058261D01*
X7611261Y6075017D01*
X7590739Y6086866D01*
X7567849Y6092999D01*
D02*
G37*
G36*
Y5838999D02*
X7544152D01*
X7521262Y5832866D01*
X7500739Y5821017D01*
X7483982Y5804261D01*
X7472134Y5783738D01*
X7466000Y5760848D01*
Y5737151D01*
X7472134Y5714261D01*
X7477141Y5705588D01*
X7462521Y5676411D01*
X7461501Y5675588D01*
X6855211D01*
Y5675878D01*
X6810646Y5672371D01*
X6767178Y5661935D01*
X6725879Y5644828D01*
X6687763Y5621471D01*
X6653772Y5592439D01*
X6653771Y5592439D01*
X6630833Y5575392D01*
X6595000D01*
X6587197Y5573839D01*
X6580581Y5569419D01*
X6576161Y5562803D01*
X6574608Y5555000D01*
Y5525000D01*
X6576161Y5517196D01*
X6580581Y5510581D01*
X6587197Y5506160D01*
X6595000Y5504608D01*
X6695000D01*
X6702804Y5506160D01*
X6709419Y5510581D01*
X6713840Y5517196D01*
X6715392Y5525000D01*
Y5555000D01*
X6713840Y5562803D01*
X6737339Y5580547D01*
X6769563Y5597771D01*
X6811548Y5610507D01*
X6853881Y5614677D01*
X6855211Y5614412D01*
X7537369D01*
X7537423Y5614410D01*
X7538857Y5614348D01*
X7539441Y5613690D01*
X7539591Y5613628D01*
X7543257Y5613451D01*
X7544126Y5608105D01*
X7544151Y5584999D01*
X7521262Y5578866D01*
X7500739Y5567017D01*
X7483982Y5550261D01*
X7472134Y5529738D01*
X7466000Y5506848D01*
Y5483151D01*
X7472134Y5460261D01*
X7483982Y5439739D01*
X7500739Y5422982D01*
X7521262Y5411133D01*
X7544152Y5405000D01*
X7567849D01*
X7590739Y5411133D01*
X7611261Y5422982D01*
X7628018Y5439739D01*
X7639867Y5460261D01*
X7646000Y5483151D01*
Y5506848D01*
X7639867Y5529738D01*
X7628018Y5550261D01*
X7611261Y5567017D01*
X7609934Y5567784D01*
X7610556Y5602066D01*
X7614015Y5603899D01*
X7627957Y5599670D01*
X7662047Y5581449D01*
X7691927Y5556927D01*
X7716449Y5527047D01*
X7734670Y5492957D01*
X7745891Y5455968D01*
X7749591Y5418398D01*
X7749412Y5417500D01*
Y5210999D01*
X7749580Y5210158D01*
X7745941Y5173218D01*
X7734921Y5136888D01*
X7717024Y5103406D01*
X7692940Y5074059D01*
X7663593Y5049975D01*
X7633004Y5033625D01*
X7628018Y5042261D01*
X7611261Y5059017D01*
X7590739Y5070866D01*
X7567849Y5076999D01*
X7544152D01*
X7521262Y5070866D01*
X7500739Y5059017D01*
X7483982Y5042261D01*
X7472134Y5021738D01*
X7466000Y4998848D01*
Y4975151D01*
X7472134Y4952261D01*
X7483982Y4931739D01*
X7500739Y4914982D01*
X7521262Y4903133D01*
X7544152Y4897000D01*
X7567849D01*
X7590739Y4903133D01*
X7611261Y4914982D01*
X7628018Y4931739D01*
X7639867Y4952261D01*
X7645335Y4972670D01*
X7653672Y4975199D01*
X7697798Y4998785D01*
X7736474Y5030525D01*
X7768215Y5069202D01*
X7791801Y5113328D01*
X7806325Y5161207D01*
X7811229Y5210999D01*
X7810588D01*
Y5417500D01*
X7811246D01*
X7806274Y5467979D01*
X7791550Y5516518D01*
X7767639Y5561252D01*
X7735461Y5600461D01*
X7696252Y5632639D01*
X7651518Y5656550D01*
X7637506Y5660800D01*
X7628063Y5693583D01*
X7628651Y5694836D01*
X7639867Y5714261D01*
X7646000Y5737151D01*
Y5760848D01*
X7639867Y5783738D01*
X7628018Y5804261D01*
X7611261Y5821017D01*
X7590739Y5832866D01*
X7567849Y5838999D01*
D02*
G37*
G36*
X9091849D02*
X9068152D01*
X9045262Y5832866D01*
X9024739Y5821017D01*
X9007982Y5804261D01*
X8996134Y5783738D01*
X8990000Y5760848D01*
Y5737151D01*
X8996134Y5714261D01*
X9007982Y5693739D01*
X9024739Y5676982D01*
X9045262Y5665133D01*
X9068152Y5659000D01*
X9091849D01*
X9114739Y5665133D01*
X9135261Y5676982D01*
X9152018Y5693739D01*
X9163867Y5714261D01*
X9170000Y5737151D01*
Y5760848D01*
X9163867Y5783738D01*
X9152018Y5804261D01*
X9135261Y5821017D01*
X9114739Y5832866D01*
X9091849Y5838999D01*
D02*
G37*
G36*
Y5584999D02*
X9068152D01*
X9045262Y5578866D01*
X9024739Y5567017D01*
X9007982Y5550261D01*
X8996134Y5529738D01*
X8990000Y5506848D01*
Y5483151D01*
X8996134Y5460261D01*
X9007982Y5439739D01*
X9024739Y5422982D01*
X9045262Y5411133D01*
X9068152Y5405000D01*
X9091849D01*
X9114739Y5411133D01*
X9135261Y5422982D01*
X9152018Y5439739D01*
X9163867Y5460261D01*
X9170000Y5483151D01*
Y5506848D01*
X9163867Y5529738D01*
X9152018Y5550261D01*
X9135261Y5567017D01*
X9114739Y5578866D01*
X9091849Y5584999D01*
D02*
G37*
G36*
Y5330999D02*
X9068152D01*
X9045262Y5324866D01*
X9024739Y5313017D01*
X9007982Y5296261D01*
X8996134Y5275738D01*
X8990000Y5252848D01*
Y5229151D01*
X8996134Y5206261D01*
X9007982Y5185739D01*
X9024739Y5168982D01*
X9045262Y5157133D01*
X9068152Y5151000D01*
X9091849D01*
X9114739Y5157133D01*
X9135261Y5168982D01*
X9152018Y5185739D01*
X9163867Y5206261D01*
X9170000Y5229151D01*
Y5252848D01*
X9163867Y5275738D01*
X9152018Y5296261D01*
X9135261Y5313017D01*
X9114739Y5324866D01*
X9091849Y5330999D01*
D02*
G37*
G36*
X7075000Y5575392D02*
X6975000D01*
X6967196Y5573839D01*
X6960581Y5569419D01*
X6956160Y5562803D01*
X6954608Y5555000D01*
Y5525000D01*
X6956160Y5517196D01*
X6960581Y5510581D01*
Y5504419D01*
X6956160Y5497804D01*
X6954608Y5490000D01*
Y5460000D01*
X6956160Y5452196D01*
X6959515Y5442500D01*
X6956160Y5432803D01*
X6954608Y5425000D01*
Y5395000D01*
X6956160Y5387196D01*
X6960581Y5380581D01*
Y5374419D01*
X6956160Y5367804D01*
X6954608Y5360000D01*
Y5330000D01*
X6956160Y5322196D01*
X6957273Y5320531D01*
X6603766Y4967024D01*
X6603561Y4967229D01*
X6574529Y4933237D01*
X6551172Y4895122D01*
X6534065Y4853822D01*
X6523629Y4810354D01*
X6520122Y4765790D01*
X6520412D01*
Y4680361D01*
X6514814Y4678861D01*
X6493436Y4666518D01*
X6475981Y4649064D01*
X6463639Y4627686D01*
X6457250Y4603842D01*
Y4579157D01*
X6463639Y4555314D01*
X6475981Y4533936D01*
X6493436Y4516481D01*
X6514814Y4504139D01*
X6538657Y4497750D01*
X6563342D01*
X6587186Y4504139D01*
X6608564Y4516481D01*
X6626018Y4533936D01*
X6638361Y4555314D01*
X6644750Y4579157D01*
Y4603842D01*
X6638361Y4627686D01*
X6626018Y4649064D01*
X6608564Y4666518D01*
X6587186Y4678861D01*
X6581588Y4680361D01*
Y4765790D01*
X6581323Y4767119D01*
X6585493Y4809452D01*
X6598228Y4851437D01*
X6618911Y4890130D01*
X6645896Y4923013D01*
X6647024Y4923766D01*
X7032866Y5309608D01*
X7075000D01*
X7082803Y5311160D01*
X7089419Y5315581D01*
X7093840Y5322196D01*
X7095392Y5330000D01*
Y5340267D01*
X7119400Y5363479D01*
X7137825Y5361688D01*
X7138371Y5360871D01*
X7138385Y5360862D01*
X7151149Y5344228D01*
X7159179Y5324842D01*
X7161128Y5310032D01*
X7144300Y5300316D01*
X7129684Y5285700D01*
X7119349Y5267800D01*
X7114000Y5247835D01*
Y5227165D01*
X7119349Y5207200D01*
X7129684Y5189300D01*
X7144300Y5174684D01*
X7162200Y5164350D01*
X7182165Y5159000D01*
X7202835D01*
X7222800Y5164350D01*
X7240700Y5174684D01*
X7255316Y5189300D01*
X7265650Y5207200D01*
X7271000Y5227165D01*
Y5247835D01*
X7265650Y5267800D01*
X7255316Y5285700D01*
X7240700Y5300316D01*
X7222849Y5310622D01*
X7218872Y5340836D01*
X7204668Y5375127D01*
X7182073Y5404573D01*
X7181969Y5404469D01*
X7156089Y5424327D01*
X7125951Y5436811D01*
X7119215Y5437698D01*
X7115971Y5439551D01*
X7095392Y5460000D01*
X7095392Y5470331D01*
Y5490000D01*
X7118955Y5509039D01*
X7119790Y5509412D01*
X7151790D01*
X7153119Y5509677D01*
X7195452Y5505507D01*
X7237437Y5492771D01*
X7276130Y5472089D01*
X7309013Y5445103D01*
X7309766Y5443976D01*
X7474282Y5279460D01*
X7472134Y5275738D01*
X7466000Y5252848D01*
Y5229151D01*
X7472134Y5206261D01*
X7483982Y5185739D01*
X7500739Y5168982D01*
X7521262Y5157133D01*
X7544152Y5151000D01*
X7567849D01*
X7590739Y5157133D01*
X7611261Y5168982D01*
X7628018Y5185739D01*
X7639867Y5206261D01*
X7646000Y5229151D01*
Y5252848D01*
X7639867Y5275738D01*
X7628018Y5296261D01*
X7611261Y5313017D01*
X7590739Y5324866D01*
X7567849Y5330999D01*
X7544152D01*
X7521262Y5324866D01*
X7517540Y5322718D01*
X7353024Y5487234D01*
X7353229Y5487439D01*
X7319237Y5516471D01*
X7281122Y5539828D01*
X7239822Y5556935D01*
X7196354Y5567371D01*
X7151790Y5570878D01*
Y5570588D01*
X7087670D01*
X7082803Y5573839D01*
X7075000Y5575392D01*
D02*
G37*
G36*
X6125000Y5700000D02*
X5930000D01*
Y5505000D01*
X6081742D01*
X6102763Y5483979D01*
X6123771Y5462560D01*
X6123771Y5462561D01*
X6157763Y5433529D01*
X6195878Y5410172D01*
X6237178Y5393065D01*
X6280646Y5382629D01*
X6325210Y5379122D01*
Y5379412D01*
X6550210D01*
X6551045Y5379039D01*
X6574608Y5360000D01*
Y5330000D01*
X6576161Y5322196D01*
X6577273Y5320531D01*
X6349766Y5093023D01*
X6349561Y5093229D01*
X6320529Y5059237D01*
X6297172Y5021121D01*
X6280065Y4979821D01*
X6269629Y4936354D01*
X6266122Y4891789D01*
X6266412D01*
Y4680361D01*
X6260814Y4678861D01*
X6239436Y4666518D01*
X6221981Y4649064D01*
X6209639Y4627686D01*
X6203250Y4603842D01*
Y4579157D01*
X6209639Y4555314D01*
X6221981Y4533936D01*
X6239436Y4516481D01*
X6260814Y4504139D01*
X6284657Y4497750D01*
X6309342D01*
X6333186Y4504139D01*
X6354564Y4516481D01*
X6372018Y4533936D01*
X6384361Y4555314D01*
X6390750Y4579157D01*
Y4603842D01*
X6384361Y4627686D01*
X6372018Y4649064D01*
X6354564Y4666518D01*
X6333186Y4678861D01*
X6327588Y4680361D01*
Y4891789D01*
X6327323Y4893119D01*
X6331493Y4935452D01*
X6344228Y4977437D01*
X6364911Y5016130D01*
X6391896Y5049013D01*
X6393024Y5049766D01*
X6652866Y5309608D01*
X6695000D01*
X6702804Y5311160D01*
X6709419Y5315581D01*
X6713840Y5322196D01*
X6715392Y5330000D01*
Y5360000D01*
X6713840Y5367804D01*
X6709419Y5374419D01*
Y5380581D01*
X6713840Y5387196D01*
X6715392Y5395000D01*
Y5425000D01*
X6713840Y5432803D01*
X6709419Y5439419D01*
X6702804Y5443840D01*
X6695000Y5445392D01*
X6595000D01*
X6587197Y5443840D01*
X6582330Y5440588D01*
X6325210D01*
X6323881Y5440323D01*
X6281548Y5444493D01*
X6239563Y5457228D01*
X6200869Y5477911D01*
X6189466Y5487269D01*
X6167234Y5506024D01*
X6146021Y5527237D01*
X6125000Y5548257D01*
Y5700000D01*
D02*
G37*
G36*
X9091849Y5076999D02*
X9068152D01*
X9045262Y5070866D01*
X9024739Y5059017D01*
X9007982Y5042261D01*
X8996134Y5021738D01*
X8990000Y4998848D01*
Y4975151D01*
X8996134Y4952261D01*
X9007982Y4931739D01*
X9024739Y4914982D01*
X9045262Y4903133D01*
X9068152Y4897000D01*
X9091849D01*
X9114739Y4903133D01*
X9135261Y4914982D01*
X9152018Y4931739D01*
X9163867Y4952261D01*
X9170000Y4975151D01*
Y4998848D01*
X9163867Y5021738D01*
X9152018Y5042261D01*
X9135261Y5059017D01*
X9114739Y5070866D01*
X9091849Y5076999D01*
D02*
G37*
G36*
X7071342Y4685250D02*
X7046657D01*
X7022814Y4678861D01*
X7001436Y4666518D01*
X6983981Y4649064D01*
X6971639Y4627686D01*
X6965250Y4603842D01*
Y4579157D01*
X6971639Y4555314D01*
X6983981Y4533936D01*
X7001436Y4516481D01*
X7022814Y4504139D01*
X7046657Y4497750D01*
X7071342D01*
X7095186Y4504139D01*
X7116564Y4516481D01*
X7134018Y4533936D01*
X7146361Y4555314D01*
X7152750Y4579157D01*
Y4603842D01*
X7146361Y4627686D01*
X7134018Y4649064D01*
X7116564Y4666518D01*
X7095186Y4678861D01*
X7071342Y4685250D01*
D02*
G37*
G36*
X6817342D02*
X6792657D01*
X6768814Y4678861D01*
X6747436Y4666518D01*
X6729981Y4649064D01*
X6717639Y4627686D01*
X6711250Y4603842D01*
Y4579157D01*
X6717639Y4555314D01*
X6729981Y4533936D01*
X6747436Y4516481D01*
X6768814Y4504139D01*
X6792657Y4497750D01*
X6817342D01*
X6841186Y4504139D01*
X6862564Y4516481D01*
X6880018Y4533936D01*
X6892361Y4555314D01*
X6898750Y4579157D01*
Y4603842D01*
X6892361Y4627686D01*
X6880018Y4649064D01*
X6862564Y4666518D01*
X6841186Y4678861D01*
X6817342Y4685250D01*
D02*
G37*
G36*
X5482000Y4675602D02*
X5463726Y4673196D01*
X5446698Y4666143D01*
X5432075Y4654923D01*
X5420855Y4640300D01*
X5413802Y4623272D01*
X5411396Y4604998D01*
Y4544998D01*
X5413802Y4526725D01*
X5420855Y4509696D01*
X5432075Y4495074D01*
X5446698Y4483854D01*
X5463726Y4476800D01*
X5482000Y4474394D01*
X5500273Y4476800D01*
X5517302Y4483854D01*
X5531924Y4495074D01*
X5543144Y4509696D01*
X5550198Y4526725D01*
X5552604Y4544998D01*
Y4604998D01*
X5550198Y4623272D01*
X5543144Y4640300D01*
X5531924Y4654923D01*
X5517302Y4666143D01*
X5500273Y4673196D01*
X5482000Y4675602D01*
D02*
G37*
G36*
X4618000D02*
X4599726Y4673196D01*
X4582698Y4666143D01*
X4568075Y4654923D01*
X4556855Y4640300D01*
X4549802Y4623272D01*
X4547396Y4604998D01*
Y4544998D01*
X4549802Y4526725D01*
X4556855Y4509696D01*
X4568075Y4495074D01*
X4582698Y4483854D01*
X4599726Y4476800D01*
X4618000Y4474394D01*
X4636273Y4476800D01*
X4653302Y4483854D01*
X4667924Y4495074D01*
X4679145Y4509696D01*
X4686198Y4526725D01*
X4688604Y4544998D01*
Y4604998D01*
X4686198Y4623272D01*
X4679145Y4640300D01*
X4667924Y4654923D01*
X4653302Y4666143D01*
X4636273Y4673196D01*
X4618000Y4675602D01*
D02*
G37*
G36*
X7071342Y4431250D02*
X7046657D01*
X7022814Y4424861D01*
X7001436Y4412518D01*
X6983981Y4395064D01*
X6971639Y4373686D01*
X6965250Y4349842D01*
Y4325157D01*
X6971639Y4301314D01*
X6983981Y4279936D01*
X7001436Y4262481D01*
X7022814Y4250139D01*
X7046657Y4243750D01*
X7071342D01*
X7095186Y4250139D01*
X7116564Y4262481D01*
X7134018Y4279936D01*
X7146361Y4301314D01*
X7152750Y4325157D01*
Y4349842D01*
X7146361Y4373686D01*
X7134018Y4395064D01*
X7116564Y4412518D01*
X7095186Y4424861D01*
X7071342Y4431250D01*
D02*
G37*
G36*
X6390750D02*
X6203250D01*
Y4243750D01*
X6390750D01*
Y4431250D01*
D02*
G37*
G36*
X5482000Y4295602D02*
X5463726Y4293196D01*
X5446698Y4286143D01*
X5432075Y4274923D01*
X5420855Y4260300D01*
X5413802Y4243272D01*
X5411396Y4224998D01*
Y4164998D01*
X5413802Y4146725D01*
X5420855Y4129696D01*
X5432075Y4115074D01*
X5446698Y4103854D01*
X5463726Y4096800D01*
X5482000Y4094394D01*
X5500273Y4096800D01*
X5517302Y4103854D01*
X5531924Y4115074D01*
X5543144Y4129696D01*
X5550198Y4146725D01*
X5552604Y4164998D01*
Y4224998D01*
X5550198Y4243272D01*
X5543144Y4260300D01*
X5531924Y4274923D01*
X5517302Y4286143D01*
X5500273Y4293196D01*
X5482000Y4295602D01*
D02*
G37*
G36*
X4618000D02*
X4599726Y4293196D01*
X4582698Y4286143D01*
X4568075Y4274923D01*
X4556855Y4260300D01*
X4549802Y4243272D01*
X4547396Y4224998D01*
Y4164998D01*
X4549802Y4146725D01*
X4556855Y4129696D01*
X4568075Y4115074D01*
X4582698Y4103854D01*
X4599726Y4096800D01*
X4618000Y4094394D01*
X4636273Y4096800D01*
X4653302Y4103854D01*
X4667924Y4115074D01*
X4679145Y4129696D01*
X4686198Y4146725D01*
X4688604Y4164998D01*
Y4224998D01*
X4686198Y4243272D01*
X4679145Y4260300D01*
X4667924Y4274923D01*
X4653302Y4286143D01*
X4636273Y4293196D01*
X4618000Y4295602D01*
D02*
G37*
G36*
X10078000Y4292496D02*
X9910000D01*
Y4052496D01*
X10078000D01*
Y4292496D01*
D02*
G37*
G36*
X9630000D02*
X9462000D01*
Y4052496D01*
X9630000D01*
Y4292496D01*
D02*
G37*
%LPD*%
G36*
X8677710Y10095552D02*
X8999444D01*
X9031846Y10092361D01*
X9069882Y10080823D01*
X9104935Y10062086D01*
X9133821Y10038380D01*
X9135162Y10036372D01*
X9653872Y9517662D01*
X9654264Y9517400D01*
X9690411Y9486528D01*
X9731338Y9461448D01*
X9775684Y9443079D01*
X9822358Y9431873D01*
X9869750Y9428144D01*
X9870210Y9428052D01*
X9904659D01*
X9918536Y9404016D01*
X9941577Y9380976D01*
X9969795Y9364684D01*
X10001269Y9356250D01*
X10033853D01*
X10065327Y9364684D01*
X10093545Y9380976D01*
X10116585Y9404016D01*
X10132877Y9432234D01*
X10141311Y9463708D01*
Y9496292D01*
X10132877Y9527766D01*
X10116585Y9555984D01*
X10093545Y9579025D01*
X10091422Y9580250D01*
X10099461Y9610250D01*
X10141311D01*
Y9623830D01*
X10171311Y9638019D01*
X10187320Y9624881D01*
X10188662Y9622873D01*
X10190767Y9620767D01*
X10192451Y9619643D01*
X10213458Y9594044D01*
X10230009Y9563080D01*
X10240201Y9529482D01*
X10243447Y9496527D01*
X10243052Y9494541D01*
Y6915205D01*
X10243523Y6912836D01*
X10239861Y6875649D01*
X10228323Y6837613D01*
X10209586Y6802559D01*
X10185881Y6773674D01*
X10183872Y6772332D01*
X10073055Y6661515D01*
X10069360Y6662505D01*
X10045662D01*
X10022772Y6656372D01*
X10002250Y6644523D01*
X9985493Y6627766D01*
X9973645Y6607244D01*
X9967511Y6584354D01*
Y6560657D01*
X9968501Y6556961D01*
X9931872Y6520331D01*
X9920120Y6517994D01*
X9914558Y6514277D01*
X9540607D01*
Y6520265D01*
X9419394D01*
Y6433790D01*
X9389394Y6421364D01*
X9189129Y6621628D01*
X9189129Y6621629D01*
X9189573Y6622073D01*
X9160127Y6644668D01*
X9131860Y6656377D01*
X9127063Y6675262D01*
X9128079Y6688835D01*
X9135261Y6692982D01*
X9152018Y6709739D01*
X9163867Y6730261D01*
X9170000Y6753151D01*
Y6776848D01*
X9163867Y6799738D01*
X9152018Y6820261D01*
X9135261Y6837017D01*
X9114739Y6848866D01*
X9091849Y6854999D01*
X9068152D01*
X9045262Y6848866D01*
X9024739Y6837017D01*
X9007982Y6820261D01*
X8996134Y6799738D01*
X8990000Y6776848D01*
Y6753151D01*
X8996134Y6730261D01*
X9007982Y6709739D01*
X9024633Y6693088D01*
X9024631Y6692589D01*
X9016517Y6663088D01*
X7619483D01*
X7611369Y6692589D01*
X7611367Y6693088D01*
X7628018Y6709739D01*
X7639867Y6730261D01*
X7646000Y6753151D01*
Y6776848D01*
X7639867Y6799738D01*
X7628018Y6820261D01*
X7611261Y6837017D01*
X7590739Y6848866D01*
X7567849Y6854999D01*
X7544152D01*
X7521262Y6848866D01*
X7500739Y6837017D01*
X7483982Y6820261D01*
X7472134Y6799738D01*
X7466000Y6776848D01*
Y6753151D01*
X7472134Y6730261D01*
X7483982Y6709739D01*
X7500633Y6693088D01*
X7500631Y6692589D01*
X7492517Y6663088D01*
X7302507D01*
Y6663405D01*
X7265860Y6659795D01*
X7230622Y6649106D01*
X7198146Y6631747D01*
X7169681Y6608386D01*
X7169905Y6608162D01*
X7081742Y6520000D01*
X7000000D01*
Y6390000D01*
X7120000D01*
Y6471742D01*
X7191949Y6543692D01*
X7213163Y6564904D01*
X7235769Y6582754D01*
X7239130Y6585333D01*
X7269700Y6597995D01*
X7301290Y6602154D01*
X7302507Y6601912D01*
X7477208D01*
X7489634Y6571912D01*
X7483982Y6566261D01*
X7472134Y6545738D01*
X7466000Y6522848D01*
Y6499151D01*
X7472134Y6476261D01*
X7483982Y6455739D01*
X7500739Y6438982D01*
X7521261Y6427133D01*
X7513751Y6398088D01*
X7448817D01*
Y6398595D01*
X7404451Y6394225D01*
X7361790Y6381284D01*
X7322474Y6360269D01*
X7288013Y6331988D01*
X7288013Y6331988D01*
X7264914Y6315325D01*
X7248534Y6308541D01*
X7225741Y6305540D01*
X7225502Y6305588D01*
X7120000D01*
Y6340000D01*
X7000000D01*
Y6326489D01*
X6800782D01*
X6796056Y6331215D01*
X6778954Y6341089D01*
X6759879Y6346200D01*
X6740131D01*
X6721056Y6341089D01*
X6703954Y6331215D01*
X6697017Y6324277D01*
X6443112D01*
Y6330265D01*
X6321899D01*
Y6214394D01*
X6443112D01*
Y6220381D01*
X6694758D01*
X6698057Y6217082D01*
Y6110005D01*
X6687500D01*
X6687500Y5975005D01*
X6659802Y5969448D01*
X6120211D01*
X6119750Y5969356D01*
X6099448Y5967759D01*
X6069448Y5995251D01*
Y6320000D01*
X6069319Y6320650D01*
X6071359Y6325577D01*
X6071910Y6325945D01*
X6086733Y6340767D01*
X6087767Y6342314D01*
X6107492Y6357450D01*
X6132164Y6367670D01*
X6156814Y6370915D01*
X6158639Y6370552D01*
X6321899D01*
Y6369735D01*
X6443112D01*
Y6485606D01*
X6434453D01*
Y6561089D01*
X6433982Y6563459D01*
X6437644Y6600645D01*
X6449182Y6638681D01*
X6467919Y6673735D01*
X6491625Y6702620D01*
X6493633Y6703962D01*
X6748471Y6958800D01*
X6825005D01*
Y7035334D01*
X6901043Y7111372D01*
X6902385Y7113380D01*
X6931270Y7137086D01*
X6966324Y7155823D01*
X7004360Y7167361D01*
X7041546Y7171023D01*
X7043916Y7170552D01*
X7187500D01*
Y7160000D01*
X7322500D01*
Y7170552D01*
X7434083D01*
Y7170469D01*
X7477870Y7174782D01*
X7519975Y7187554D01*
X7522372Y7188836D01*
X7544152Y7183000D01*
X7567849D01*
X7590739Y7189133D01*
X7611261Y7200982D01*
X7628018Y7217739D01*
X7636951Y7233211D01*
X7646253Y7235444D01*
X7688594Y7252982D01*
X7727671Y7276929D01*
X7761902Y7306164D01*
X7762590Y7306624D01*
X8125838Y7669872D01*
X8127180Y7671880D01*
X8156065Y7695586D01*
X8191118Y7714322D01*
X8229154Y7725860D01*
X8266341Y7729523D01*
X8268710Y7729052D01*
X9006070D01*
X9007982Y7725739D01*
X9024739Y7708982D01*
X9045262Y7697133D01*
X9068152Y7691000D01*
X9091849D01*
X9114739Y7697133D01*
X9116737Y7698287D01*
X9145915Y7689436D01*
X9184689Y7685617D01*
X9185018Y7685552D01*
X9255000D01*
Y7675000D01*
X9390000D01*
X9390000Y7675000D01*
X9417477Y7668908D01*
X9425170Y7650336D01*
X9428415Y7625685D01*
X9428052Y7623860D01*
Y6675606D01*
X9419394D01*
Y6559735D01*
X9540607D01*
Y6675606D01*
X9531948D01*
Y7623860D01*
X9531932Y7623943D01*
X9527990Y7663966D01*
X9516291Y7702532D01*
X9497293Y7738074D01*
X9471779Y7769163D01*
X9471733Y7769233D01*
X9454879Y7780494D01*
X9435000Y7784448D01*
X9390000D01*
Y7800000D01*
X9255000D01*
Y7789448D01*
X9185018D01*
X9170000Y7792849D01*
X9163867Y7815738D01*
X9152018Y7836261D01*
X9135261Y7853017D01*
X9114739Y7864866D01*
X9091849Y7870999D01*
X9068152D01*
X9045262Y7864866D01*
X9024739Y7853017D01*
X9007982Y7836261D01*
X9006070Y7832948D01*
X8320658D01*
Y9738500D01*
X8320187Y9740869D01*
X8323849Y9778056D01*
X8335387Y9816091D01*
X8354124Y9851145D01*
X8377830Y9880031D01*
X8379838Y9881372D01*
X8534838Y10036372D01*
X8536180Y10038380D01*
X8565065Y10062086D01*
X8600119Y10080823D01*
X8638154Y10092361D01*
X8675341Y10096023D01*
X8677710Y10095552D01*
D02*
G37*
G36*
X9013634Y6571912D02*
X9007982Y6566261D01*
X8996134Y6545738D01*
X8990000Y6522848D01*
Y6499151D01*
X8996134Y6476261D01*
X9007982Y6455739D01*
X9024739Y6438982D01*
X9045261Y6427133D01*
X9037751Y6398088D01*
X7598250D01*
X7590739Y6427133D01*
X7611261Y6438982D01*
X7628018Y6455739D01*
X7639867Y6476261D01*
X7646000Y6499151D01*
Y6522848D01*
X7639867Y6545738D01*
X7628018Y6566261D01*
X7622366Y6571912D01*
X7634792Y6601912D01*
X9001208D01*
X9013634Y6571912D01*
D02*
G37*
%LPC*%
G36*
X9091849Y9394999D02*
X9068152D01*
X9045262Y9388866D01*
X9024739Y9377017D01*
X9007982Y9360261D01*
X8996134Y9339738D01*
X8990000Y9316848D01*
Y9293151D01*
X8996134Y9270261D01*
X9007982Y9249739D01*
X9024739Y9232982D01*
X9045262Y9221133D01*
X9068152Y9215000D01*
X9091849D01*
X9114739Y9221133D01*
X9135261Y9232982D01*
X9152018Y9249739D01*
X9163867Y9270261D01*
X9170000Y9293151D01*
Y9316848D01*
X9163867Y9339738D01*
X9152018Y9360261D01*
X9135261Y9377017D01*
X9114739Y9388866D01*
X9091849Y9394999D01*
D02*
G37*
G36*
Y9140999D02*
X9068152D01*
X9045262Y9134866D01*
X9024739Y9123017D01*
X9007982Y9106261D01*
X8996134Y9085738D01*
X8990000Y9062848D01*
Y9039151D01*
X8996134Y9016261D01*
X9007982Y8995739D01*
X9024739Y8978982D01*
X9045262Y8967133D01*
X9068152Y8961000D01*
X9091849D01*
X9114739Y8967133D01*
X9135261Y8978982D01*
X9152018Y8995739D01*
X9163867Y9016261D01*
X9170000Y9039151D01*
Y9062848D01*
X9163867Y9085738D01*
X9152018Y9106261D01*
X9135261Y9123017D01*
X9114739Y9134866D01*
X9091849Y9140999D01*
D02*
G37*
G36*
Y9902999D02*
X9068152D01*
X9045262Y9896866D01*
X9024739Y9885017D01*
X9007982Y9868261D01*
X8996134Y9847738D01*
X8990000Y9824848D01*
Y9801151D01*
X8996134Y9778261D01*
X9007982Y9757739D01*
X9024739Y9740982D01*
X9045262Y9729133D01*
X9068152Y9723000D01*
X9091849D01*
X9100078Y9725205D01*
X9899196Y9008389D01*
X9893811Y8988292D01*
Y8955708D01*
X9899672Y8933833D01*
X9873003Y8917455D01*
X9170000Y9548054D01*
Y9570848D01*
X9163867Y9593738D01*
X9152018Y9614261D01*
X9135261Y9631017D01*
X9114739Y9642866D01*
X9091849Y9648999D01*
X9068152D01*
X9045262Y9642866D01*
X9024739Y9631017D01*
X9007982Y9614261D01*
X8996134Y9593738D01*
X8990000Y9570848D01*
Y9547151D01*
X8996134Y9524261D01*
X9007982Y9503739D01*
X9024739Y9486982D01*
X9045262Y9475133D01*
X9068152Y9469000D01*
X9091849D01*
X9100078Y9471205D01*
X9899196Y8754389D01*
X9893811Y8734292D01*
Y8701708D01*
X9902244Y8670234D01*
X9918536Y8642016D01*
X9941577Y8618976D01*
X9969795Y8602684D01*
X10001269Y8594250D01*
X10033853D01*
X10065327Y8602684D01*
X10093545Y8618976D01*
X10116585Y8642016D01*
X10132877Y8670234D01*
X10141311Y8701708D01*
Y8734292D01*
X10132877Y8765766D01*
X10116585Y8793984D01*
X10093545Y8817025D01*
X10073930Y8828349D01*
X10071798Y8835370D01*
Y8854630D01*
X10073930Y8861651D01*
X10093545Y8872976D01*
X10116585Y8896016D01*
X10132877Y8924234D01*
X10141311Y8955708D01*
Y8988292D01*
X10132877Y9019766D01*
X10116585Y9047984D01*
X10093545Y9071025D01*
X10065327Y9087317D01*
X10033853Y9095750D01*
X10001269D01*
X9969795Y9087317D01*
X9967974Y9086265D01*
X9170000Y9802054D01*
Y9824848D01*
X9163867Y9847738D01*
X9152018Y9868261D01*
X9135261Y9885017D01*
X9114739Y9896866D01*
X9091849Y9902999D01*
D02*
G37*
G36*
Y8886999D02*
X9068152D01*
X9045262Y8880866D01*
X9024739Y8869017D01*
X9007982Y8852261D01*
X8996134Y8831738D01*
X8990000Y8808848D01*
Y8785151D01*
X8996134Y8762261D01*
X9007982Y8741739D01*
X9024739Y8724982D01*
X9045262Y8713133D01*
X9068152Y8707000D01*
X9091849D01*
X9114739Y8713133D01*
X9135261Y8724982D01*
X9152018Y8741739D01*
X9163867Y8762261D01*
X9170000Y8785151D01*
Y8808848D01*
X9163867Y8831738D01*
X9152018Y8852261D01*
X9135261Y8869017D01*
X9114739Y8880866D01*
X9091849Y8886999D01*
D02*
G37*
G36*
Y8632999D02*
X9068152D01*
X9045262Y8626866D01*
X9024739Y8615017D01*
X9007982Y8598261D01*
X8996134Y8577738D01*
X8990000Y8554848D01*
Y8531151D01*
X8996134Y8508261D01*
X9007982Y8487739D01*
X9024739Y8470982D01*
X9045262Y8459133D01*
X9068152Y8453000D01*
X9091849D01*
X9114739Y8459133D01*
X9135261Y8470982D01*
X9152018Y8487739D01*
X9163867Y8508261D01*
X9170000Y8531151D01*
Y8554848D01*
X9163867Y8577738D01*
X9152018Y8598261D01*
X9135261Y8615017D01*
X9114739Y8626866D01*
X9091849Y8632999D01*
D02*
G37*
G36*
Y8378999D02*
X9068152D01*
X9045262Y8372866D01*
X9024739Y8361017D01*
X9007982Y8344261D01*
X8996134Y8323738D01*
X8990000Y8300848D01*
Y8277151D01*
X8996134Y8254261D01*
X9007982Y8233739D01*
X9024739Y8216982D01*
X9045262Y8205133D01*
X9068152Y8199000D01*
X9091849D01*
X9114739Y8205133D01*
X9135261Y8216982D01*
X9152018Y8233739D01*
X9163867Y8254261D01*
X9170000Y8277151D01*
Y8300848D01*
X9163867Y8323738D01*
X9152018Y8344261D01*
X9135261Y8361017D01*
X9114739Y8372866D01*
X9091849Y8378999D01*
D02*
G37*
G36*
Y8124999D02*
X9068152D01*
X9045262Y8118866D01*
X9024739Y8107017D01*
X9007982Y8090261D01*
X8996134Y8069738D01*
X8990000Y8046848D01*
Y8023151D01*
X8996134Y8000261D01*
X9007982Y7979739D01*
X9024739Y7962982D01*
X9045262Y7951133D01*
X9068152Y7945000D01*
X9091849D01*
X9114739Y7951133D01*
X9135261Y7962982D01*
X9152018Y7979739D01*
X9163867Y8000261D01*
X9170000Y8023151D01*
Y8046848D01*
X9163867Y8069738D01*
X9152018Y8090261D01*
X9135261Y8107017D01*
X9114739Y8118866D01*
X9091849Y8124999D01*
D02*
G37*
G36*
X10030347Y8018999D02*
X10004675D01*
X9979877Y8012354D01*
X9957645Y7999518D01*
X9939491Y7981365D01*
X9926656Y7959133D01*
X9920011Y7934335D01*
Y7908663D01*
X9926656Y7883865D01*
X9939491Y7861633D01*
X9957645Y7843480D01*
X9979877Y7830644D01*
X10004675Y7823999D01*
X10030347D01*
X10055144Y7830644D01*
X10077377Y7843480D01*
X10095530Y7861633D01*
X10108366Y7883865D01*
X10115011Y7908663D01*
Y7934335D01*
X10108366Y7959133D01*
X10095530Y7981365D01*
X10077377Y7999518D01*
X10055144Y8012354D01*
X10030347Y8018999D01*
D02*
G37*
G36*
Y7764999D02*
X10004675D01*
X9979877Y7758354D01*
X9957645Y7745518D01*
X9939491Y7727365D01*
X9926656Y7705133D01*
X9920011Y7680335D01*
Y7654663D01*
X9926656Y7629865D01*
X9939491Y7607633D01*
X9957645Y7589480D01*
X9979877Y7576644D01*
X10004675Y7569999D01*
X10030347D01*
X10055144Y7576644D01*
X10077377Y7589480D01*
X10095530Y7607633D01*
X10108366Y7629865D01*
X10115011Y7654663D01*
Y7680335D01*
X10108366Y7705133D01*
X10095530Y7727365D01*
X10077377Y7745518D01*
X10055144Y7758354D01*
X10030347Y7764999D01*
D02*
G37*
G36*
X10115011Y7510999D02*
X9920011D01*
Y7315999D01*
X10115011D01*
Y7510999D01*
D02*
G37*
G36*
X9091849Y7362999D02*
X9068152D01*
X9045262Y7356866D01*
X9024739Y7345017D01*
X9007982Y7328261D01*
X8996134Y7307738D01*
X8990000Y7284848D01*
Y7261151D01*
X8996134Y7238261D01*
X9007982Y7217739D01*
X9024739Y7200982D01*
X9045262Y7189133D01*
X9068152Y7183000D01*
X9091849D01*
X9114739Y7189133D01*
X9135261Y7200982D01*
X9152018Y7217739D01*
X9163867Y7238261D01*
X9170000Y7261151D01*
Y7284848D01*
X9163867Y7307738D01*
X9152018Y7328261D01*
X9135261Y7345017D01*
X9114739Y7356866D01*
X9091849Y7362999D01*
D02*
G37*
G36*
Y7108999D02*
X9068152D01*
X9045262Y7102866D01*
X9024739Y7091017D01*
X9007982Y7074261D01*
X8996134Y7053738D01*
X8990000Y7030848D01*
Y7007151D01*
X8996134Y6984261D01*
X9007982Y6963739D01*
X9024739Y6946982D01*
X9045262Y6935133D01*
X9068152Y6929000D01*
X9091849D01*
X9114739Y6935133D01*
X9135261Y6946982D01*
X9152018Y6963739D01*
X9163867Y6984261D01*
X9170000Y7007151D01*
Y7030848D01*
X9163867Y7053738D01*
X9152018Y7074261D01*
X9135261Y7091017D01*
X9114739Y7102866D01*
X9091849Y7108999D01*
D02*
G37*
%LPD*%
D10*
X5395211Y7592500D02*
G03*
X5215606Y7518105I0J-254000D01*
G01*
X7344000Y9559000D02*
G03*
X7142500Y9357500I0J-201500D01*
G01*
X6980000Y8382500D02*
G03*
X7142500Y8545000I0J162500D01*
G01*
X5845211Y8382500D02*
G03*
X5665605Y8308105I0J-254000D01*
G01*
X5529397Y8171897D02*
G03*
X5455002Y7992292I179605J-179605D01*
G01*
X7043916Y7222500D02*
G03*
X6864310Y7148105I0J-254000D01*
G01*
X6456900Y6740695D02*
G03*
X6382505Y6561089I179605J-179605D01*
G01*
X5276395Y4783894D02*
G03*
X5202000Y4604289I179605J-179605D01*
G01*
X5386895Y5019395D02*
G03*
X5312500Y4839789I179605J-179605D01*
G01*
X5625605Y5258105D02*
G03*
X5700000Y5437710I-179605J179605D01*
G01*
X5061895Y6205605D02*
G03*
X4882290Y6280000I-179605J-179605D01*
G01*
X5125000Y6066568D02*
G03*
X5165000Y5970000I136568J0D01*
G01*
X5458105Y5676895D02*
G03*
X5637711Y5602500I179605J179605D01*
G01*
X6120211Y5917500D02*
G03*
X5940605Y5843105I0J-254000D01*
G01*
X6885000Y5897500D02*
G03*
X6836716Y5917500I-48284J-48284D01*
G01*
X6895000Y5873359D02*
G03*
X6885000Y5897500I-34141J0D01*
G01*
X9480000Y7623860D02*
G03*
X9435000Y7732500I-153640J0D01*
G01*
X9322500Y7737500D02*
G03*
X9334571Y7732500I12071J12071D01*
G01*
X6370022Y6422500D02*
G03*
X6382505Y6427671I0J17654D01*
G01*
X6158639Y6422500D02*
G03*
X6050000Y6377500I0J-153639D01*
G01*
X6035178Y6362678D02*
G03*
X6017500Y6320000I42678J-42678D01*
G01*
X6016264Y5895256D02*
G03*
X6017500Y5898241I-2984J2984D01*
G01*
X9080000Y7781000D02*
G03*
X9185018Y7737500I105018J105018D01*
G01*
X10120000Y10815000D02*
G03*
X10059896Y10960104I-205208J0D01*
G01*
X10060000Y10330000D02*
G03*
X10120000Y10474853I-144853J144853D01*
G01*
X10055000Y10965000D02*
G03*
X9970502Y11000000I-84498J-84498D01*
G01*
X9807710D02*
G03*
X9628105Y10925605I0J-254000D01*
G01*
X9772290Y10147500D02*
G03*
X9951895Y10221895I0J254000D01*
G01*
X9690605Y9554395D02*
G03*
X9870210Y9480000I179605J179605D01*
G01*
X9401183Y10780000D02*
G03*
X9540000Y10837500I0J196316D01*
G01*
X8677710Y10147500D02*
G03*
X8498105Y10073105I0J-254000D01*
G01*
X9171895D02*
G03*
X8992290Y10147500I-179605J-179605D01*
G01*
X8343105Y9918105D02*
G03*
X8268710Y9738500I179605J-179605D01*
G01*
Y7781000D02*
G03*
X8089105Y7706605I0J-254000D01*
G01*
X7556000Y7273000D02*
G03*
X7725857Y7343357I0J240213D01*
G01*
X7434083Y7222500D02*
G03*
X7556000Y7273000I0J172417D01*
G01*
X7179395Y7618105D02*
G03*
X6999790Y7692500I-179605J-179605D01*
G01*
X6849675D02*
G03*
X6735000Y7645000I0J-162175D01*
G01*
X6602219Y7590000D02*
G03*
X6735000Y7645000I0J187780D01*
G01*
X7255000Y7485932D02*
G03*
X7215000Y7582500I-136568J0D01*
G01*
X8304395Y5227394D02*
G03*
X8230000Y5047789I179605J-179605D01*
G01*
X8050395Y5227394D02*
G03*
X7976000Y5047789I179605J-179605D01*
G01*
X7704224Y10670776D02*
G03*
X7524619Y10745171I-179605J-179605D01*
G01*
X7705000Y10670000D02*
G03*
X7849849Y10610002I144849J144849D01*
G01*
X8142500Y10759998D02*
G03*
X8150000Y10778104I-18106J18106D01*
G01*
X8279214Y10759998D02*
G03*
X8327502Y10780000I0J68290D01*
G01*
X6750005Y6271200D02*
G03*
X6747279Y6272329I-2726J-2726D01*
G01*
X10225395Y9659605D02*
G03*
X10045790Y9734000I-179605J-179605D01*
G01*
X10295000Y9494541D02*
G03*
X10227500Y9657500I-230459J0D01*
G01*
X10220605Y6735599D02*
G03*
X10295000Y6915205I-179605J179605D01*
G01*
X9940000Y6470000D02*
G03*
X9965617Y6480611I0J36227D01*
G01*
X9921480Y6462329D02*
G03*
X9940000Y6470000I0J26191D01*
G01*
X6362292Y7421213D02*
G03*
X6413505Y7400000I51213J51213D01*
G01*
X6287674Y7566302D02*
G03*
X6337505Y7446000I170133J0D01*
G01*
X6151505Y7590000D02*
G03*
X6145470Y7592500I-6035J-6035D01*
G01*
X5322220Y7345000D02*
G03*
X5455002Y7400000I0J187781D01*
G01*
X5156849Y7385656D02*
G03*
X5255000Y7345000I98151J98151D01*
G01*
X9226337Y10616163D02*
G03*
X9289500Y10590000I63163J63163D01*
G01*
X9162670Y10693732D02*
G03*
X9172500Y10670000I33562J0D01*
G01*
X8327504Y10590000D02*
G03*
X8279215Y10610002I-48289J-48289D01*
G01*
X9080000Y9813000D02*
X10017561Y8972000D01*
X5195001Y7497500D02*
X5215606Y7518105D01*
X5395211Y7592500D02*
X5455002D01*
X7534866Y9559000D02*
X7556000D01*
X7344000D02*
X7556000D01*
X7142500Y8545000D02*
Y9357500D01*
X5845211Y8382500D02*
X6980000D01*
X5529397Y8171897D02*
X5665605Y8308105D01*
X5455002Y7592500D02*
Y7992292D01*
X6750005Y7033800D02*
X6864310Y7148105D01*
X7043916Y7222500D02*
X7255000D01*
X6456900Y6740695D02*
X6750005Y7033800D01*
X6382505Y6427671D02*
Y6561089D01*
X5202000Y4582998D02*
Y4604289D01*
X5276395Y4783894D02*
X5312500Y4820000D01*
Y4839789D01*
X5386895Y5019395D02*
X5625605Y5258105D01*
X5700000Y5437710D02*
Y5602500D01*
X4822500Y6280000D02*
X4882290D01*
X5061895Y6205605D02*
X5125000Y6142500D01*
Y6066568D02*
Y6142500D01*
X5165000Y5970000D02*
X5458105Y5676895D01*
X5637711Y5602500D02*
X5700000D01*
X5940605Y5843105D01*
X6120211Y5917500D02*
X6836716D01*
X6895000Y5790005D02*
Y5873359D01*
X9480000Y6617670D02*
Y7623860D01*
X9334571Y7732500D02*
X9435000D01*
X6158639Y6422500D02*
X6370022D01*
X6035178Y6362678D02*
X6050000Y6377500D01*
X6017500Y5898241D02*
Y6320000D01*
X9185018Y7737500D02*
X9322500D01*
X10055000Y10965000D02*
X10059896Y10960104D01*
X10120000Y10474853D02*
Y10815000D01*
X9807710Y11000000D02*
X9970502D01*
X9951895Y10221895D02*
X10060000Y10330000D01*
X9870210Y9480000D02*
X10017561D01*
X8992290Y10147500D02*
X9772290D01*
X9540000Y10837500D02*
X9628105Y10925605D01*
X9289500Y10780000D02*
X9401183D01*
X8677710Y10147500D02*
X8992290D01*
X9171895Y10073105D02*
X9690605Y9554395D01*
X8343105Y9918105D02*
X8498105Y10073105D01*
X8268710Y7781000D02*
Y9738500D01*
Y7781000D02*
X9080000D01*
X7725857Y7343357D02*
X8089105Y7706605D01*
X7255000Y7222500D02*
X7434083D01*
X6849675Y7692500D02*
X6999790D01*
X6413505Y7590000D02*
X6602219D01*
X7255000Y7222500D02*
Y7485932D01*
X7179395Y7618105D02*
X7215000Y7582500D01*
X8304395Y5227394D02*
X9080000Y6003000D01*
X8230000Y4330006D02*
Y5047789D01*
X9047210Y6257000D02*
X9080000D01*
X8050395Y5227394D02*
X9080000Y6257000D01*
X7976000Y4330006D02*
Y5047789D01*
X9080000Y9559000D02*
X10017561Y8718000D01*
X6512500Y10745171D02*
X7524619D01*
X7704224Y10670776D02*
X7705000Y10670000D01*
X6512330Y10745000D02*
X6512500Y10745171D01*
X7849849Y10610002D02*
X7945001D01*
X5167079Y10907380D02*
X5167499Y10909998D01*
Y11599999D01*
X7355000Y9302500D02*
X7356250Y9303750D01*
X7554750D01*
X7556000Y9305000D01*
X7945001Y10759998D02*
X8142500D01*
X8279214D01*
X8150000Y10778104D02*
Y10892500D01*
X6382505Y6272329D02*
X6747279D01*
X6750005Y6042510D02*
Y6271200D01*
X10017561Y9734000D02*
X10045790D01*
X10225395Y9659605D02*
X10227500Y9657500D01*
X10295000Y6915205D02*
Y9494541D01*
X10057511Y6572505D02*
X10220605Y6735599D01*
X5052423Y10687423D02*
X5052501Y10687345D01*
Y10481005D02*
Y10687345D01*
X9965616Y6480611D02*
X10057511Y6572505D01*
X9480000Y6462329D02*
X9921480D01*
X6750000Y6042505D02*
X6750005Y6042510D01*
X6949829Y7400000D02*
X6950000Y7399829D01*
X6413505Y7400000D02*
X6949829D01*
X6337505Y7446000D02*
X6362292Y7421213D01*
X6287674Y7566302D02*
Y8127489D01*
X6151505Y7590000D02*
X6152333Y7590828D01*
Y8127489D01*
X6151505Y7400000D02*
X6151505Y7400000D01*
X5604998Y7400000D02*
X6151505D01*
X5604998Y7592500D02*
X6145470D01*
X5255000Y7345000D02*
X5322220D01*
X5045004Y7497500D02*
X5156849Y7385656D01*
X9824999Y10590000D02*
X9824999Y10590000D01*
X9289500Y10590000D02*
X9824999D01*
X9172500Y10670000D02*
X9226337Y10616163D01*
X9162670Y10693732D02*
Y11302500D01*
X9027329D02*
X9027500Y11302328D01*
Y10780000D02*
Y11302328D01*
X8477500Y10590000D02*
X9027500D01*
X8477500Y10590000D02*
X8477500Y10590000D01*
X9027499Y10780000D02*
X9027500Y10780000D01*
X8477498Y10780000D02*
X9027499D01*
X7945001Y10610002D02*
X8279215D01*
X5044829Y7497500D02*
X5045004D01*
X5044829D02*
Y9422501D01*
X5046602Y9424274D02*
Y9617605D01*
X5044829Y9422501D02*
X5046602Y9424274D01*
X5045000Y9800000D02*
X5046602Y9798398D01*
Y9617605D02*
Y9798398D01*
X5052500Y9905000D02*
X5052803Y9905303D01*
Y10027504D01*
X5052501Y10027806D02*
X5052803Y10027504D01*
X5052501Y10027806D02*
Y10249005D01*
X6304999Y10745000D02*
X6512330D01*
X6120000Y10745000D02*
X6120000Y10745000D01*
X6304999D01*
X5887700Y10750000D02*
X6015000D01*
X5882000Y10744300D02*
X5887700Y10750000D01*
X5881300Y10745000D02*
X5882000Y10744300D01*
X5663495Y10745000D02*
X5881300D01*
X5182500Y10747500D02*
X5185000Y10745000D01*
X5431495D01*
D11*
X5107400Y10744500D02*
G03*
X5131725Y10685775I83050J0D01*
G01*
X5107400Y10844500D02*
G03*
X5075156Y10922344I-110088J0D01*
G01*
X7192500Y5304038D02*
G03*
X7160000Y5382500I-110962J0D01*
G01*
D02*
G03*
X7093609Y5410000I-66391J-66391D01*
G01*
X7331395Y5465605D02*
G03*
X7151790Y5540000I-179605J-179605D01*
G01*
X7543135Y5644791D02*
G03*
X7564740Y5644364I12865J104209D01*
G01*
X7569236Y5644383D02*
G03*
X7564740Y5644364I-2118J-29925D01*
G01*
X7543135Y5644791D02*
G03*
X7539720Y5645000I-3538J-29791D01*
G01*
X7556000Y4987000D02*
G03*
X7780000Y5210999I0J224000D01*
G01*
Y5417500D02*
G03*
X7569236Y5644383I-227500J0D01*
G01*
X6855211Y5645000D02*
G03*
X6675605Y5570605I0J-254000D01*
G01*
X9234395Y6293105D02*
G03*
X9054790Y6367500I-179605J-179605D01*
G01*
X9167500Y6600000D02*
G03*
X9089038Y6632500I-78462J-78462D01*
G01*
X7225502Y6275000D02*
G03*
X7310000Y6310000I0J119498D01*
G01*
X7448817Y6367500D02*
G03*
X7310000Y6310000I0J-196316D01*
G01*
X6759179Y6275000D02*
G03*
X6750005Y6271200I0J-12974D01*
G01*
X9546000Y5876290D02*
G03*
X9471605Y6055895I-254000J0D01*
G01*
X7302507Y6632500D02*
G03*
X7191534Y6586533I0J-156939D01*
G01*
X5370000Y6367500D02*
G03*
X5357930Y6372500I-12070J-12070D01*
G01*
X6145605Y5484395D02*
G03*
X6325210Y5410000I179605J179605D01*
G01*
X5125000Y6372500D02*
G03*
X5137070Y6367500I12070J12070D01*
G01*
X9620600Y6146900D02*
G03*
X9800205Y6072505I179605J179605D01*
G01*
X5221997Y4822487D02*
G03*
X5159883Y4725462I234003J-218198D01*
G01*
X5221997Y4822487D02*
G03*
X5230000Y4842887I-21997J20400D01*
G01*
X4963254Y4655536D02*
G03*
X4963146Y4655770I-27254J-12537D01*
G01*
X4920507Y4752167D02*
G03*
X4923238Y4741548I29931J2036D01*
G01*
X4920000Y4768208D02*
G03*
X4920507Y4752167I254000J0D01*
G01*
X6625395Y4945395D02*
G03*
X6551000Y4765790I179605J-179605D01*
G01*
X6371395Y5071394D02*
G03*
X6297000Y4891789I179605J-179605D01*
G01*
X5131725Y10685775D02*
X5182500Y10635000D01*
X5065000Y10932500D02*
X5075156Y10922344D01*
X5107400Y10734500D02*
Y10744500D01*
Y10844500D01*
X7025000Y5410000D02*
Y5475000D01*
X7192500Y5237500D02*
Y5304038D01*
X7025000Y5410000D02*
X7093609D01*
X7331395Y5465605D02*
X7556000Y5241000D01*
X7025000Y5540000D02*
X7151790D01*
X7780000Y5210999D02*
Y5417500D01*
X6855211Y5645000D02*
X7539720D01*
X6645000Y5540000D02*
X6675605Y5570605D01*
X7448817Y6367500D02*
X9054790D01*
X9234395Y6293105D02*
X9471605Y6055895D01*
X7302507Y6632500D02*
X9089038D01*
X9167500Y6600000D02*
Y6600000D01*
Y6600000D02*
X9620600Y6146900D01*
X7060000Y6275000D02*
X7225502D01*
X9546000Y5082496D02*
Y5876290D01*
X7060000Y6455000D02*
X7191533Y6586533D01*
X5125000Y6372500D02*
X5357930D01*
X6027500Y5602500D02*
X6145605Y5484395D01*
X6325210Y5410000D02*
X6645000D01*
X9800205Y6072505D02*
X10057511D01*
X5100000Y4582998D02*
X5120000Y4627998D01*
X5230000Y4842887D02*
Y5269420D01*
X5120000Y4627998D02*
X5159883Y4725462D01*
X4994395Y4588603D02*
X5000000Y4582998D01*
X4980000Y4619543D02*
X4994395Y4588603D01*
X4963254Y4655536D02*
X4980000Y4619543D01*
X4923238Y4741548D02*
X4963146Y4655770D01*
X4920000Y4768208D02*
Y5269420D01*
X6551000Y4591500D02*
Y4765790D01*
X6625395Y4945395D02*
X7025000Y5345000D01*
X6297000Y4591500D02*
Y4891789D01*
X6371395Y5071394D02*
X6645000Y5345000D01*
D12*
X5167499Y10909998D02*
G03*
X5162400Y10904900I0J-5099D01*
G01*
Y10844500D02*
Y10904900D01*
D13*
X5195001Y7497500D02*
D03*
X5455002Y7592500D02*
D03*
X8327502Y10780000D02*
D03*
X8477498D02*
D03*
X5604998Y7592500D02*
D03*
X5045004Y7497500D02*
D03*
X5455002Y7400000D02*
D03*
X5604998D02*
D03*
X8327504Y10590000D02*
D03*
X8477500D02*
D03*
D14*
X5141602Y9617605D02*
D03*
X5046602D02*
D03*
D15*
X5180171Y9422501D02*
D03*
X9027329Y11302500D02*
D03*
X9162670D02*
D03*
X6152333Y8127489D02*
D03*
X6287674D02*
D03*
X5044829Y9422501D02*
D03*
D16*
X6512500Y10609829D02*
D03*
X6950000Y7535170D02*
D03*
X9824999Y10725342D02*
D03*
Y10590000D02*
D03*
X6950000Y7399829D02*
D03*
X6512500Y10745171D02*
D03*
D17*
X6151505Y7495000D02*
D03*
X9027500Y10685000D02*
D03*
X6413505Y7590000D02*
D03*
X9289500Y10780000D02*
D03*
Y10590000D02*
D03*
X9027500D02*
D03*
Y10780000D02*
D03*
X6413505Y7400000D02*
D03*
X6151505D02*
D03*
Y7590000D02*
D03*
D18*
X9994000Y5082496D02*
D03*
X9546000D02*
D03*
Y4172496D02*
D03*
X9994000D02*
D03*
D19*
X4920000Y5412499D02*
D03*
X5230000D02*
D03*
Y5269420D02*
D03*
X4920000D02*
D03*
D20*
X5457500Y4820000D02*
D03*
X6750000Y5790005D02*
D03*
X6895000Y6042505D02*
D03*
X5312500Y4820000D02*
D03*
X6895000Y5790005D02*
D03*
X6750000Y6042505D02*
D03*
D21*
X5325000Y4582998D02*
D03*
X4775000D02*
D03*
D22*
X6645000Y5475000D02*
D03*
X7025000D02*
D03*
Y5410000D02*
D03*
Y5540000D02*
D03*
X6645000D02*
D03*
Y5410000D02*
D03*
Y5345000D02*
D03*
X7025000D02*
D03*
D23*
X9322500Y7592500D02*
D03*
X4822500Y6425000D02*
D03*
X7255000Y7077500D02*
D03*
X9322500Y7737500D02*
D03*
X4822500Y6280000D02*
D03*
X7255000Y7222500D02*
D03*
D24*
X5125000Y6602500D02*
D03*
Y6142500D02*
D03*
Y6372500D02*
D03*
D25*
X6304999Y10650000D02*
D03*
Y10745000D02*
D03*
D26*
X5107400Y10744500D02*
D03*
Y10844500D02*
D03*
X5162400D02*
D03*
X5052400D02*
D03*
Y10744500D02*
D03*
X5162400D02*
D03*
D27*
X5172203Y10027504D02*
D03*
X5052803D02*
D03*
D28*
X4950001Y10460005D02*
D03*
Y10270005D02*
D03*
X5155001D02*
D03*
Y10460005D02*
D03*
D29*
X5882000Y10624900D02*
D03*
Y10744300D02*
D03*
D30*
X5452495Y10847500D02*
D03*
X5642495D02*
D03*
Y10642500D02*
D03*
X5452495D02*
D03*
D31*
X9480000Y6617670D02*
D03*
X6382505Y6427671D02*
D03*
Y6272329D02*
D03*
X9480000Y6462329D02*
D03*
D32*
X5202000Y4582998D02*
D03*
X4898000D02*
D03*
D33*
X5663495Y10745000D02*
D03*
X5431495D02*
D03*
D34*
X7060000Y6455000D02*
D03*
Y6275000D02*
D03*
D35*
X6099999Y10745001D02*
D03*
X6034999D02*
D03*
D36*
X5052501Y10481005D02*
D03*
Y10249005D02*
D03*
D37*
X5755000Y6372500D02*
D03*
D38*
X5000000Y4582998D02*
D03*
X5100000D02*
D03*
D39*
X7945001Y10610002D02*
D03*
Y10759998D02*
D03*
D40*
X5049999Y9820005D02*
D03*
Y9885005D02*
D03*
D41*
X5030000Y10842499D02*
Y10842500D01*
X4555001Y10842499D02*
X5030000D01*
X6759179Y6275000D02*
X7060000D01*
D42*
X7556000Y9813000D02*
D03*
D43*
Y9559000D02*
D03*
Y9305000D02*
D03*
Y9051000D02*
D03*
Y8797000D02*
D03*
Y8543000D02*
D03*
Y8289000D02*
D03*
Y8035000D02*
D03*
Y7781000D02*
D03*
Y7527000D02*
D03*
Y7273000D02*
D03*
Y7019000D02*
D03*
Y6765000D02*
D03*
Y6511000D02*
D03*
Y6257000D02*
D03*
Y6003000D02*
D03*
Y5749000D02*
D03*
Y5495000D02*
D03*
Y5241000D02*
D03*
Y4987000D02*
D03*
X9080000Y9813000D02*
D03*
Y9559000D02*
D03*
Y9305000D02*
D03*
Y9051000D02*
D03*
Y8797000D02*
D03*
Y8543000D02*
D03*
Y8289000D02*
D03*
Y8035000D02*
D03*
Y7781000D02*
D03*
Y7527000D02*
D03*
Y7273000D02*
D03*
Y7019000D02*
D03*
Y6765000D02*
D03*
Y6511000D02*
D03*
Y6257000D02*
D03*
Y6003000D02*
D03*
Y5749000D02*
D03*
Y5495000D02*
D03*
Y5241000D02*
D03*
Y4987000D02*
D03*
X10057511Y6322505D02*
D03*
Y6572505D02*
D03*
D44*
X10017561Y8972000D02*
D03*
Y9226000D02*
D03*
Y9480000D02*
D03*
Y8718000D02*
D03*
D45*
X6551000Y4337500D02*
D03*
X6805000D02*
D03*
X7059000Y4591500D02*
D03*
Y4337500D02*
D03*
X6805000Y4591500D02*
D03*
X6551000D02*
D03*
X6297000D02*
D03*
D46*
X8484000Y4330006D02*
D03*
X8230000D02*
D03*
X10017511Y7667499D02*
D03*
Y7921499D02*
D03*
D47*
X4301001Y11096499D02*
D03*
X4809001D02*
D03*
Y10588499D02*
D03*
X4301001D02*
D03*
X5421499Y11853999D02*
D03*
Y11345999D02*
D03*
X4913499D02*
D03*
Y11853999D02*
D03*
D48*
X6750005Y7033800D02*
D03*
D49*
X5700000Y5602500D02*
D03*
X7976000Y4330006D02*
D03*
X6027500Y5602500D02*
D03*
D50*
X5167499Y11599999D02*
D03*
D51*
X4555001Y10842499D02*
D03*
D52*
X10017511Y7413499D02*
D03*
D53*
X10017561Y9734000D02*
D03*
D54*
X10057511Y6072505D02*
D03*
D55*
X6297000Y4337500D02*
D03*
D56*
X4618000Y4574998D02*
D03*
X5482000D02*
D03*
X4618000Y4194998D02*
D03*
X5482000D02*
D03*
D57*
X6750005Y6271200D02*
D03*
D58*
X5290000Y10954583D02*
D03*
Y10857700D02*
D03*
X5432500Y10950000D02*
D03*
X5552500D02*
D03*
X5662500D02*
D03*
X5182500Y10635000D02*
D03*
Y10552500D02*
D03*
X5270000Y10635000D02*
D03*
X5357500D02*
D03*
X5435000Y10540000D02*
D03*
X5545000D02*
D03*
X5655000D02*
D03*
X5267500Y10455000D02*
D03*
Y10361250D02*
D03*
Y10267500D02*
D03*
X5207500Y10152500D02*
D03*
X5265000Y10032500D02*
D03*
X4845000Y10363750D02*
D03*
Y10272500D02*
D03*
X4930000Y10155000D02*
D03*
X4927500Y10032500D02*
D03*
X4400000Y4000000D02*
D03*
X4599999Y4400000D02*
D03*
X4400000Y4800000D02*
D03*
X4599999Y5200000D02*
D03*
X4400000Y5599999D02*
D03*
X4599999Y5999999D02*
D03*
X4400000Y6399999D02*
D03*
X4599999Y6799999D02*
D03*
X4400000Y7199999D02*
D03*
X4599999Y7599999D02*
D03*
X4400000Y7999999D02*
D03*
X4599999Y8399999D02*
D03*
X4400000Y8799999D02*
D03*
X4599999Y9199999D02*
D03*
X4400000Y9599999D02*
D03*
X4599999Y9999999D02*
D03*
X4400000Y10399999D02*
D03*
X4800000Y4000000D02*
D03*
X4999999Y4400000D02*
D03*
X4800000Y4800000D02*
D03*
Y5599999D02*
D03*
X4999999Y5999999D02*
D03*
Y6799999D02*
D03*
X4800000Y7199999D02*
D03*
Y7999999D02*
D03*
Y8799999D02*
D03*
Y9599999D02*
D03*
X5200000Y4000000D02*
D03*
X5399999Y4400000D02*
D03*
Y5200000D02*
D03*
X5200000Y5599999D02*
D03*
X5399999Y5999999D02*
D03*
Y6799999D02*
D03*
X5200000Y7199999D02*
D03*
Y7999999D02*
D03*
X5399999Y8399999D02*
D03*
X5200000Y8799999D02*
D03*
X5399999Y9199999D02*
D03*
Y9999999D02*
D03*
X5599999Y4000000D02*
D03*
X5799999Y4400000D02*
D03*
X5599999Y4800000D02*
D03*
X5799999Y5200000D02*
D03*
X5599999Y6399999D02*
D03*
X5799999Y6799999D02*
D03*
X5599999Y7199999D02*
D03*
Y7999999D02*
D03*
Y8799999D02*
D03*
X5799999Y9199999D02*
D03*
X5599999Y9599999D02*
D03*
X5799999Y9999999D02*
D03*
X5599999Y10399999D02*
D03*
Y11199999D02*
D03*
X5999999Y4000000D02*
D03*
X6199999Y5999999D02*
D03*
Y6799999D02*
D03*
X5999999Y7199999D02*
D03*
Y7999999D02*
D03*
Y8799999D02*
D03*
X6199999Y9199999D02*
D03*
X5999999Y9599999D02*
D03*
X6199999Y9999999D02*
D03*
X5999999Y10399999D02*
D03*
Y11199999D02*
D03*
X6399999Y4000000D02*
D03*
Y4800000D02*
D03*
X6599999Y5999999D02*
D03*
X6399999Y7199999D02*
D03*
Y7999999D02*
D03*
Y8799999D02*
D03*
X6599999Y9199999D02*
D03*
X6399999Y9599999D02*
D03*
X6599999Y9999999D02*
D03*
X6399999Y10399999D02*
D03*
Y11199999D02*
D03*
X6799999Y4000000D02*
D03*
Y4800000D02*
D03*
X6999999Y5999999D02*
D03*
X6799999Y6399999D02*
D03*
X6999999Y6799999D02*
D03*
X6799999Y7199999D02*
D03*
Y7999999D02*
D03*
Y8799999D02*
D03*
X6999999Y9199999D02*
D03*
X6799999Y9599999D02*
D03*
X6999999Y9999999D02*
D03*
X6799999Y10399999D02*
D03*
Y11199999D02*
D03*
X7199999Y4000000D02*
D03*
X7399999Y4400000D02*
D03*
Y5999999D02*
D03*
X7199999Y6399999D02*
D03*
X7399999Y6799999D02*
D03*
Y7599999D02*
D03*
X7199999Y7999999D02*
D03*
X7399999Y8399999D02*
D03*
Y9199999D02*
D03*
X7199999Y10399999D02*
D03*
Y11199999D02*
D03*
X7599999Y4000000D02*
D03*
X7799999Y4400000D02*
D03*
X7599999Y4800000D02*
D03*
X7799999Y5999999D02*
D03*
Y6799999D02*
D03*
Y7599999D02*
D03*
Y8399999D02*
D03*
Y9199999D02*
D03*
Y9999999D02*
D03*
X7599999Y10399999D02*
D03*
Y11199999D02*
D03*
X7999999Y4000000D02*
D03*
Y5599999D02*
D03*
X8199999Y5999999D02*
D03*
Y6799999D02*
D03*
X7999999Y7199999D02*
D03*
X8199999Y7599999D02*
D03*
X7999999Y7999999D02*
D03*
Y8799999D02*
D03*
Y9599999D02*
D03*
X8199999Y9999999D02*
D03*
X7999999Y10399999D02*
D03*
Y11199999D02*
D03*
X8399999Y4000000D02*
D03*
X8599999Y4400000D02*
D03*
X8399999Y4800000D02*
D03*
X8599999Y5200000D02*
D03*
Y5999999D02*
D03*
Y6799999D02*
D03*
X8399999Y7199999D02*
D03*
X8599999Y7599999D02*
D03*
Y8399999D02*
D03*
X8399999Y8799999D02*
D03*
X8599999Y9199999D02*
D03*
X8399999Y9599999D02*
D03*
X8599999Y9999999D02*
D03*
X8399999Y10399999D02*
D03*
Y11199999D02*
D03*
X8799999Y4000000D02*
D03*
X8999999Y4400000D02*
D03*
X8799999Y4800000D02*
D03*
Y5599999D02*
D03*
Y7199999D02*
D03*
Y7999999D02*
D03*
X8999999Y8399999D02*
D03*
X8799999Y8799999D02*
D03*
X8999999Y9199999D02*
D03*
X8799999Y9599999D02*
D03*
X8999999Y9999999D02*
D03*
X8799999Y10399999D02*
D03*
Y11199999D02*
D03*
X9199999Y4000000D02*
D03*
X9399999Y4400000D02*
D03*
X9199999Y4800000D02*
D03*
X9399999Y5200000D02*
D03*
X9199999Y5599999D02*
D03*
X9399999Y5999999D02*
D03*
X9199999Y7199999D02*
D03*
Y7999999D02*
D03*
X9399999Y8399999D02*
D03*
Y9999999D02*
D03*
X9199999Y10399999D02*
D03*
X9599999Y4000000D02*
D03*
X9799999Y4400000D02*
D03*
X9599999Y4800000D02*
D03*
Y7199999D02*
D03*
X9799999Y7599999D02*
D03*
X9599999Y7999999D02*
D03*
X9799999Y8399999D02*
D03*
X9599999Y8799999D02*
D03*
X9799999Y9999999D02*
D03*
X9599999Y10399999D02*
D03*
Y11199999D02*
D03*
X9999999Y4000000D02*
D03*
X10199999Y4400000D02*
D03*
X9999999Y4800000D02*
D03*
X10199999Y5200000D02*
D03*
X9999999Y5599999D02*
D03*
X10199999Y5999999D02*
D03*
X9999999Y7199999D02*
D03*
X10199999Y7599999D02*
D03*
Y8399999D02*
D03*
Y9199999D02*
D03*
X9999999Y10399999D02*
D03*
Y11199999D02*
D03*
X4807300Y9197700D02*
D03*
X4802300Y10000200D02*
D03*
X4817300Y8400200D02*
D03*
X5197300Y8402700D02*
D03*
X5209800Y9195200D02*
D03*
X5232300Y9735200D02*
D03*
X5797300Y10997700D02*
D03*
X6204800D02*
D03*
X6614800D02*
D03*
X7022300D02*
D03*
X7442300D02*
D03*
X8242500Y11500000D02*
D03*
X7822500D02*
D03*
X7415000D02*
D03*
X7005000D02*
D03*
X6597500D02*
D03*
X7642500Y11787500D02*
D03*
X7222500D02*
D03*
X6815000D02*
D03*
X6405000D02*
D03*
X5997500D02*
D03*
X9702500D02*
D03*
X9282500D02*
D03*
X8875000D02*
D03*
X8465000D02*
D03*
X8057500D02*
D03*
X9907500Y11500000D02*
D03*
X9500000D02*
D03*
X9090000D02*
D03*
X8682500D02*
D03*
X10279998D02*
D03*
X10100000Y11787500D02*
D03*
X6205000Y11500000D02*
D03*
X5720000D02*
D03*
X4947500Y10670000D02*
D03*
X4952500Y10552500D02*
D03*
X4837500Y10742500D02*
D03*
X4730000D02*
D03*
X4732500Y10947500D02*
D03*
X4857500Y10945000D02*
D03*
X4977500D02*
D03*
X5060000Y11035000D02*
D03*
Y11166667D02*
D03*
X5272500Y11057500D02*
D03*
Y11180833D02*
D03*
Y11304167D02*
D03*
Y11427500D02*
D03*
X5060000Y11429999D02*
D03*
Y11298333D02*
D03*
X5347500Y11532500D02*
D03*
Y11657500D02*
D03*
X5220000Y11772500D02*
D03*
X5107500D02*
D03*
X4992500Y11680000D02*
D03*
Y11552500D02*
D03*
X4612500Y11012500D02*
D03*
X4497500D02*
D03*
X4385000Y10915000D02*
D03*
Y10792500D02*
D03*
X4480000Y10667500D02*
D03*
X4617500D02*
D03*
X4350000Y11775000D02*
D03*
X4660000D02*
D03*
X4350000Y11502500D02*
D03*
X4660000D02*
D03*
X7799999Y10799999D02*
D03*
D59*
X7192500Y5237500D02*
D03*
X7355000Y9302500D02*
D03*
X8150000Y10892500D02*
D03*
X5370000Y6367500D02*
D03*
%TF.MD5,4941aec37081b6743efc660acea119b4*%
M02*
