%TF.GenerationSoftware,Altium Limited,Altium Designer,26.3.0 (6)*%
G04 Layer_Color=8388736*
%FSLAX45Y45*%
%MOMM*%
%TF.SameCoordinates,54D30E38-9BAD-47A9-95B5-4C9EBDA9D8EF*%
%TF.FilePolarity,Negative*%
%TF.FileFunction,Soldermask,Top*%
%TF.Part,Single*%
G01*
G75*
%TA.AperFunction,SMDPad,CuDef*%
%ADD13R,0.50000X0.60000*%
%ADD15R,0.65872X0.81213*%
%ADD16R,0.81213X0.65872*%
%ADD18R,1.38000X2.10000*%
%ADD19R,0.96213X0.93504*%
%TA.AperFunction,ConnectorPad*%
%ADD21R,0.80000X1.20000*%
%TA.AperFunction,SMDPad,CuDef*%
G04:AMPARAMS|DCode=22|XSize=1.1mm|YSize=0.4mm|CornerRadius=0.05mm|HoleSize=0mm|Usage=FLASHONLY|Rotation=0.000|XOffset=0mm|YOffset=0mm|HoleType=Round|Shape=RoundedRectangle|*
%AMROUNDEDRECTD22*
21,1,1.10000,0.30000,0,0,0.0*
21,1,1.00000,0.40000,0,0,0.0*
1,1,0.10000,0.50000,-0.15000*
1,1,0.10000,-0.50000,-0.15000*
1,1,0.10000,-0.50000,0.15000*
1,1,0.10000,0.50000,0.15000*
%
%ADD22ROUNDEDRECTD22*%
%ADD27R,0.63500X0.61000*%
%ADD29R,0.61000X0.63500*%
%ADD31R,0.91213X0.85872*%
%TA.AperFunction,ConnectorPad*%
%ADD32R,0.76000X1.20000*%
%TA.AperFunction,SMDPad,CuDef*%
%ADD34R,0.90000X1.00000*%
%ADD35R,0.35000X0.60000*%
%TA.AperFunction,ConnectorPad*%
%ADD38R,0.70000X1.20000*%
%TA.AperFunction,SMDPad,CuDef*%
%ADD39R,0.60000X0.50000*%
%ADD40R,0.60000X0.35000*%
%TA.AperFunction,ComponentPad*%
%ADD48R,1.20000X1.20000*%
G04:AMPARAMS|DCode=56|XSize=1.1mm|YSize=1.7mm|CornerRadius=0.55mm|HoleSize=0mm|Usage=FLASHONLY|Rotation=0.000|XOffset=0mm|YOffset=0mm|HoleType=Round|Shape=RoundedRectangle|*
%AMROUNDEDRECTD56*
21,1,1.10000,0.60000,0,0,0.0*
21,1,0.00000,1.70000,0,0,0.0*
1,1,1.10000,0.00000,-0.30000*
1,1,1.10000,0.00000,-0.30000*
1,1,1.10000,0.00000,0.30000*
1,1,1.10000,0.00000,0.30000*
%
%ADD56ROUNDEDRECTD56*%
%ADD57C,1.20000*%
%TA.AperFunction,SMDPad,CuDef*%
%ADD65R,0.65320X0.80320*%
%ADD66R,1.42320X0.82320*%
%ADD67R,1.15320X1.25320*%
%ADD68R,1.25320X1.15320*%
%ADD69R,1.95320X1.15320*%
%ADD70R,0.80320X0.65320*%
%ADD71R,0.50320X0.70320*%
%ADD72R,0.95320X1.00320*%
%ADD73R,1.00320X0.95320*%
%ADD74R,0.78320X0.70320*%
%ADD75R,0.70320X0.78320*%
%ADD76R,1.95320X3.40320*%
%TA.AperFunction,ComponentPad*%
%ADD77R,1.70320X1.70320*%
%ADD78C,1.70320*%
%ADD79C,2.37820*%
%ADD80C,1.77820*%
%ADD81C,1.85320*%
%ADD82C,2.40320*%
%ADD83R,1.85320X1.85320*%
%ADD84R,2.20320X2.20320*%
%ADD85R,2.20320X2.20320*%
%ADD86R,1.85320X1.85320*%
%ADD87R,2.37820X2.37820*%
%ADD88R,1.70320X1.70320*%
%ADD89R,1.77820X1.77820*%
%TA.AperFunction,ViaPad*%
%ADD90C,0.80320*%
%ADD91C,1.47320*%
D13*
X5195001Y7497500D02*
D03*
X5455002Y7592500D02*
D03*
X8327502Y10780000D02*
D03*
X8477498D02*
D03*
X5604998Y7592500D02*
D03*
X5045004Y7497500D02*
D03*
X5455002Y7400000D02*
D03*
X5604998D02*
D03*
X8327504Y10590000D02*
D03*
X8477500D02*
D03*
D15*
X5180171Y9422501D02*
D03*
X9027329Y11302500D02*
D03*
X9162670D02*
D03*
X6152333Y8127489D02*
D03*
X6287674D02*
D03*
X5044829Y9422501D02*
D03*
D16*
X6512500Y10609829D02*
D03*
X6950000Y7535170D02*
D03*
X9824999Y10725342D02*
D03*
Y10590000D02*
D03*
X6950000Y7399829D02*
D03*
X6512500Y10745171D02*
D03*
D18*
X9994000Y5082496D02*
D03*
X9546000D02*
D03*
Y4172496D02*
D03*
X9994000D02*
D03*
D19*
X4920000Y5412499D02*
D03*
X5230000D02*
D03*
Y5269420D02*
D03*
X4920000D02*
D03*
D21*
X5325000Y4582998D02*
D03*
X4775000D02*
D03*
D22*
X6645000Y5475000D02*
D03*
X7025000D02*
D03*
Y5410000D02*
D03*
Y5540000D02*
D03*
X6645000D02*
D03*
Y5410000D02*
D03*
Y5345000D02*
D03*
X7025000D02*
D03*
D27*
X5172203Y10027504D02*
D03*
X5052803D02*
D03*
D29*
X5882000Y10624900D02*
D03*
Y10744300D02*
D03*
D31*
X9480000Y6617670D02*
D03*
X6382505Y6427671D02*
D03*
Y6272329D02*
D03*
X9480000Y6462329D02*
D03*
D32*
X5202000Y4582998D02*
D03*
X4898000D02*
D03*
D34*
X7060000Y6455000D02*
D03*
Y6275000D02*
D03*
D35*
X6099999Y10745001D02*
D03*
X6034999D02*
D03*
D38*
X5000000Y4582998D02*
D03*
X5100000D02*
D03*
D39*
X7945001Y10610002D02*
D03*
Y10759998D02*
D03*
D40*
X5049999Y9820005D02*
D03*
Y9885005D02*
D03*
D48*
X6750005Y7033800D02*
D03*
D56*
X4618000Y4574998D02*
D03*
X5482000D02*
D03*
X4618000Y4194998D02*
D03*
X5482000D02*
D03*
D57*
X6750005Y6271200D02*
D03*
D65*
X5141602Y9617605D02*
D03*
X5046602D02*
D03*
D66*
X6151505Y7495000D02*
D03*
X9027500Y10685000D02*
D03*
X6413505Y7590000D02*
D03*
X9289500Y10780000D02*
D03*
Y10590000D02*
D03*
X9027500D02*
D03*
Y10780000D02*
D03*
X6413505Y7400000D02*
D03*
X6151505D02*
D03*
Y7590000D02*
D03*
D67*
X5457500Y4820000D02*
D03*
X6750000Y5790005D02*
D03*
X6895000Y6042505D02*
D03*
X5312500Y4820000D02*
D03*
X6895000Y5790005D02*
D03*
X6750000Y6042505D02*
D03*
D68*
X9322500Y7592500D02*
D03*
X4822500Y6425000D02*
D03*
X7255000Y7077500D02*
D03*
X9322500Y7737500D02*
D03*
X4822500Y6280000D02*
D03*
X7255000Y7222500D02*
D03*
D69*
X5125000Y6602500D02*
D03*
Y6142500D02*
D03*
Y6372500D02*
D03*
D70*
X6304999Y10650000D02*
D03*
Y10745000D02*
D03*
D71*
X5107400Y10744500D02*
D03*
Y10844500D02*
D03*
X5162400D02*
D03*
X5052400D02*
D03*
Y10744500D02*
D03*
X5162400D02*
D03*
D72*
X4950001Y10460005D02*
D03*
Y10270005D02*
D03*
X5155001D02*
D03*
Y10460005D02*
D03*
D73*
X5452495Y10847500D02*
D03*
X5642495D02*
D03*
Y10642500D02*
D03*
X5452495D02*
D03*
D74*
X5663495Y10745000D02*
D03*
X5431495D02*
D03*
D75*
X5052501Y10481005D02*
D03*
Y10249005D02*
D03*
D76*
X5755000Y6372500D02*
D03*
D77*
X7556000Y9813000D02*
D03*
D78*
Y9559000D02*
D03*
Y9305000D02*
D03*
Y9051000D02*
D03*
Y8797000D02*
D03*
Y8543000D02*
D03*
Y8289000D02*
D03*
Y8035000D02*
D03*
Y7781000D02*
D03*
Y7527000D02*
D03*
Y7273000D02*
D03*
Y7019000D02*
D03*
Y6765000D02*
D03*
Y6511000D02*
D03*
Y6257000D02*
D03*
Y6003000D02*
D03*
Y5749000D02*
D03*
Y5495000D02*
D03*
Y5241000D02*
D03*
Y4987000D02*
D03*
X9080000Y9813000D02*
D03*
Y9559000D02*
D03*
Y9305000D02*
D03*
Y9051000D02*
D03*
Y8797000D02*
D03*
Y8543000D02*
D03*
Y8289000D02*
D03*
Y8035000D02*
D03*
Y7781000D02*
D03*
Y7527000D02*
D03*
Y7273000D02*
D03*
Y7019000D02*
D03*
Y6765000D02*
D03*
Y6511000D02*
D03*
Y6257000D02*
D03*
Y6003000D02*
D03*
Y5749000D02*
D03*
Y5495000D02*
D03*
Y5241000D02*
D03*
Y4987000D02*
D03*
X10057511Y6322505D02*
D03*
Y6572505D02*
D03*
D79*
X10017561Y8972000D02*
D03*
Y9226000D02*
D03*
Y9480000D02*
D03*
Y8718000D02*
D03*
D80*
X6551000Y4337500D02*
D03*
X6805000D02*
D03*
X7059000Y4591500D02*
D03*
Y4337500D02*
D03*
X6805000Y4591500D02*
D03*
X6551000D02*
D03*
X6297000D02*
D03*
D81*
X8484000Y4330006D02*
D03*
X8230000D02*
D03*
X10017511Y7667499D02*
D03*
Y7921499D02*
D03*
D82*
X4301001Y11096499D02*
D03*
X4809001D02*
D03*
Y10588499D02*
D03*
X4301001D02*
D03*
X5421499Y11853999D02*
D03*
Y11345999D02*
D03*
X4913499D02*
D03*
Y11853999D02*
D03*
D83*
X5700000Y5602500D02*
D03*
X7976000Y4330006D02*
D03*
X6027500Y5602500D02*
D03*
D84*
X5167499Y11599999D02*
D03*
D85*
X4555001Y10842499D02*
D03*
D86*
X10017511Y7413499D02*
D03*
D87*
X10017561Y9734000D02*
D03*
D88*
X10057511Y6072505D02*
D03*
D89*
X6297000Y4337500D02*
D03*
D90*
X5290000Y10954583D02*
D03*
Y10857700D02*
D03*
X5432500Y10950000D02*
D03*
X5552500D02*
D03*
X5662500D02*
D03*
X5182500Y10635000D02*
D03*
Y10552500D02*
D03*
X5270000Y10635000D02*
D03*
X5357500D02*
D03*
X5435000Y10540000D02*
D03*
X5545000D02*
D03*
X5655000D02*
D03*
X5267500Y10455000D02*
D03*
Y10361250D02*
D03*
Y10267500D02*
D03*
X5207500Y10152500D02*
D03*
X5265000Y10032500D02*
D03*
X4845000Y10363750D02*
D03*
Y10272500D02*
D03*
X4930000Y10155000D02*
D03*
X4927500Y10032500D02*
D03*
X4400000Y4000000D02*
D03*
X4599999Y4400000D02*
D03*
X4400000Y4800000D02*
D03*
X4599999Y5200000D02*
D03*
X4400000Y5599999D02*
D03*
X4599999Y5999999D02*
D03*
X4400000Y6399999D02*
D03*
X4599999Y6799999D02*
D03*
X4400000Y7199999D02*
D03*
X4599999Y7599999D02*
D03*
X4400000Y7999999D02*
D03*
X4599999Y8399999D02*
D03*
X4400000Y8799999D02*
D03*
X4599999Y9199999D02*
D03*
X4400000Y9599999D02*
D03*
X4599999Y9999999D02*
D03*
X4400000Y10399999D02*
D03*
X4800000Y4000000D02*
D03*
X4999999Y4400000D02*
D03*
X4800000Y4800000D02*
D03*
Y5599999D02*
D03*
X4999999Y5999999D02*
D03*
Y6799999D02*
D03*
X4800000Y7199999D02*
D03*
Y7999999D02*
D03*
Y8799999D02*
D03*
Y9599999D02*
D03*
X5200000Y4000000D02*
D03*
X5399999Y4400000D02*
D03*
Y5200000D02*
D03*
X5200000Y5599999D02*
D03*
X5399999Y5999999D02*
D03*
Y6799999D02*
D03*
X5200000Y7199999D02*
D03*
Y7999999D02*
D03*
X5399999Y8399999D02*
D03*
X5200000Y8799999D02*
D03*
X5399999Y9199999D02*
D03*
Y9999999D02*
D03*
X5599999Y4000000D02*
D03*
X5799999Y4400000D02*
D03*
X5599999Y4800000D02*
D03*
X5799999Y5200000D02*
D03*
X5599999Y6399999D02*
D03*
X5799999Y6799999D02*
D03*
X5599999Y7199999D02*
D03*
Y7999999D02*
D03*
Y8799999D02*
D03*
X5799999Y9199999D02*
D03*
X5599999Y9599999D02*
D03*
X5799999Y9999999D02*
D03*
X5599999Y10399999D02*
D03*
Y11199999D02*
D03*
X5999999Y4000000D02*
D03*
X6199999Y5999999D02*
D03*
Y6799999D02*
D03*
X5999999Y7199999D02*
D03*
Y7999999D02*
D03*
Y8799999D02*
D03*
X6199999Y9199999D02*
D03*
X5999999Y9599999D02*
D03*
X6199999Y9999999D02*
D03*
X5999999Y10399999D02*
D03*
Y11199999D02*
D03*
X6399999Y4000000D02*
D03*
Y4800000D02*
D03*
X6599999Y5999999D02*
D03*
X6399999Y7199999D02*
D03*
Y7999999D02*
D03*
Y8799999D02*
D03*
X6599999Y9199999D02*
D03*
X6399999Y9599999D02*
D03*
X6599999Y9999999D02*
D03*
X6399999Y10399999D02*
D03*
Y11199999D02*
D03*
X6799999Y4000000D02*
D03*
Y4800000D02*
D03*
X6999999Y5999999D02*
D03*
X6799999Y6399999D02*
D03*
X6999999Y6799999D02*
D03*
X6799999Y7199999D02*
D03*
Y7999999D02*
D03*
Y8799999D02*
D03*
X6999999Y9199999D02*
D03*
X6799999Y9599999D02*
D03*
X6999999Y9999999D02*
D03*
X6799999Y10399999D02*
D03*
Y11199999D02*
D03*
X7199999Y4000000D02*
D03*
X7399999Y4400000D02*
D03*
Y5999999D02*
D03*
X7199999Y6399999D02*
D03*
X7399999Y6799999D02*
D03*
Y7599999D02*
D03*
X7199999Y7999999D02*
D03*
X7399999Y8399999D02*
D03*
Y9199999D02*
D03*
X7199999Y10399999D02*
D03*
Y11199999D02*
D03*
X7599999Y4000000D02*
D03*
X7799999Y4400000D02*
D03*
X7599999Y4800000D02*
D03*
X7799999Y5999999D02*
D03*
Y6799999D02*
D03*
Y7599999D02*
D03*
Y8399999D02*
D03*
Y9199999D02*
D03*
Y9999999D02*
D03*
X7599999Y10399999D02*
D03*
Y11199999D02*
D03*
X7999999Y4000000D02*
D03*
Y5599999D02*
D03*
X8199999Y5999999D02*
D03*
Y6799999D02*
D03*
X7999999Y7199999D02*
D03*
X8199999Y7599999D02*
D03*
X7999999Y7999999D02*
D03*
Y8799999D02*
D03*
Y9599999D02*
D03*
X8199999Y9999999D02*
D03*
X7999999Y10399999D02*
D03*
Y11199999D02*
D03*
X8399999Y4000000D02*
D03*
X8599999Y4400000D02*
D03*
X8399999Y4800000D02*
D03*
X8599999Y5200000D02*
D03*
Y5999999D02*
D03*
Y6799999D02*
D03*
X8399999Y7199999D02*
D03*
X8599999Y7599999D02*
D03*
Y8399999D02*
D03*
X8399999Y8799999D02*
D03*
X8599999Y9199999D02*
D03*
X8399999Y9599999D02*
D03*
X8599999Y9999999D02*
D03*
X8399999Y10399999D02*
D03*
Y11199999D02*
D03*
X8799999Y4000000D02*
D03*
X8999999Y4400000D02*
D03*
X8799999Y4800000D02*
D03*
Y5599999D02*
D03*
Y7199999D02*
D03*
Y7999999D02*
D03*
X8999999Y8399999D02*
D03*
X8799999Y8799999D02*
D03*
X8999999Y9199999D02*
D03*
X8799999Y9599999D02*
D03*
X8999999Y9999999D02*
D03*
X8799999Y10399999D02*
D03*
Y11199999D02*
D03*
X9199999Y4000000D02*
D03*
X9399999Y4400000D02*
D03*
X9199999Y4800000D02*
D03*
X9399999Y5200000D02*
D03*
X9199999Y5599999D02*
D03*
X9399999Y5999999D02*
D03*
X9199999Y7199999D02*
D03*
Y7999999D02*
D03*
X9399999Y8399999D02*
D03*
Y9999999D02*
D03*
X9199999Y10399999D02*
D03*
X9599999Y4000000D02*
D03*
X9799999Y4400000D02*
D03*
X9599999Y4800000D02*
D03*
Y7199999D02*
D03*
X9799999Y7599999D02*
D03*
X9599999Y7999999D02*
D03*
X9799999Y8399999D02*
D03*
X9599999Y8799999D02*
D03*
X9799999Y9999999D02*
D03*
X9599999Y10399999D02*
D03*
Y11199999D02*
D03*
X9999999Y4000000D02*
D03*
X10199999Y4400000D02*
D03*
X9999999Y4800000D02*
D03*
X10199999Y5200000D02*
D03*
X9999999Y5599999D02*
D03*
X10199999Y5999999D02*
D03*
X9999999Y7199999D02*
D03*
X10199999Y7599999D02*
D03*
Y8399999D02*
D03*
Y9199999D02*
D03*
X9999999Y10399999D02*
D03*
Y11199999D02*
D03*
X4807300Y9197700D02*
D03*
X4802300Y10000200D02*
D03*
X4817300Y8400200D02*
D03*
X5197300Y8402700D02*
D03*
X5209800Y9195200D02*
D03*
X5232300Y9735200D02*
D03*
X5797300Y10997700D02*
D03*
X6204800D02*
D03*
X6614800D02*
D03*
X7022300D02*
D03*
X7442300D02*
D03*
X8242500Y11500000D02*
D03*
X7822500D02*
D03*
X7415000D02*
D03*
X7005000D02*
D03*
X6597500D02*
D03*
X7642500Y11787500D02*
D03*
X7222500D02*
D03*
X6815000D02*
D03*
X6405000D02*
D03*
X5997500D02*
D03*
X9702500D02*
D03*
X9282500D02*
D03*
X8875000D02*
D03*
X8465000D02*
D03*
X8057500D02*
D03*
X9907500Y11500000D02*
D03*
X9500000D02*
D03*
X9090000D02*
D03*
X8682500D02*
D03*
X10279998D02*
D03*
X10100000Y11787500D02*
D03*
X6205000Y11500000D02*
D03*
X5720000D02*
D03*
X4947500Y10670000D02*
D03*
X4952500Y10552500D02*
D03*
X4837500Y10742500D02*
D03*
X4730000D02*
D03*
X4732500Y10947500D02*
D03*
X4857500Y10945000D02*
D03*
X4977500D02*
D03*
X5060000Y11035000D02*
D03*
Y11166667D02*
D03*
X5272500Y11057500D02*
D03*
Y11180833D02*
D03*
Y11304167D02*
D03*
Y11427500D02*
D03*
X5060000Y11429999D02*
D03*
Y11298333D02*
D03*
X5347500Y11532500D02*
D03*
Y11657500D02*
D03*
X5220000Y11772500D02*
D03*
X5107500D02*
D03*
X4992500Y11680000D02*
D03*
Y11552500D02*
D03*
X4612500Y11012500D02*
D03*
X4497500D02*
D03*
X4385000Y10915000D02*
D03*
Y10792500D02*
D03*
X4480000Y10667500D02*
D03*
X4617500D02*
D03*
X4350000Y11775000D02*
D03*
X4660000D02*
D03*
X4350000Y11502500D02*
D03*
X4660000D02*
D03*
X7799999Y10799999D02*
D03*
D91*
X7192500Y5237500D02*
D03*
X7355000Y9302500D02*
D03*
X8150000Y10892500D02*
D03*
X5370000Y6367500D02*
D03*
%TF.MD5,99d07f6301c9965133ac549861aef142*%
M02*
