%TF.GenerationSoftware,Altium Limited,Altium Designer,26.3.0 (6)*%
G04 Layer_Color=8421504*
%FSLAX45Y45*%
%MOMM*%
%TF.SameCoordinates,54D30E38-9BAD-47A9-95B5-4C9EBDA9D8EF*%
%TF.FilePolarity,Positive*%
%TF.FileFunction,Paste,Top*%
%TF.Part,Single*%
G01*
G75*
%TA.AperFunction,SMDPad,CuDef*%
%ADD13R,0.50000X0.60000*%
%ADD14R,0.45000X0.60000*%
%ADD15R,0.65872X0.81213*%
%ADD16R,0.81213X0.65872*%
%ADD17R,1.22000X0.62000*%
%ADD18R,1.38000X2.10000*%
%ADD19R,0.96213X0.93504*%
%ADD20R,0.95000X1.05000*%
%TA.AperFunction,ConnectorPad*%
%ADD21R,0.80000X1.20000*%
%TA.AperFunction,SMDPad,CuDef*%
G04:AMPARAMS|DCode=22|XSize=1.1mm|YSize=0.4mm|CornerRadius=0.05mm|HoleSize=0mm|Usage=FLASHONLY|Rotation=0.000|XOffset=0mm|YOffset=0mm|HoleType=Round|Shape=RoundedRectangle|*
%AMROUNDEDRECTD22*
21,1,1.10000,0.30000,0,0,0.0*
21,1,1.00000,0.40000,0,0,0.0*
1,1,0.10000,0.50000,-0.15000*
1,1,0.10000,-0.50000,-0.15000*
1,1,0.10000,-0.50000,0.15000*
1,1,0.10000,0.50000,0.15000*
%
%ADD22ROUNDEDRECTD22*%
%ADD23R,1.05000X0.95000*%
%ADD24R,1.75000X0.95000*%
%ADD25R,0.60000X0.45000*%
%ADD26R,0.30000X0.50000*%
%ADD27R,0.63500X0.61000*%
%ADD28R,0.75000X0.80000*%
%ADD29R,0.61000X0.63500*%
%ADD30R,0.80000X0.75000*%
%ADD31R,0.91213X0.85872*%
%TA.AperFunction,ConnectorPad*%
%ADD32R,0.76000X1.20000*%
%TA.AperFunction,SMDPad,CuDef*%
%ADD33R,0.58000X0.50000*%
%ADD34R,0.90000X1.00000*%
%ADD36R,0.50000X0.58000*%
%ADD37R,1.75000X3.20000*%
%TA.AperFunction,ConnectorPad*%
%ADD38R,0.70000X1.20000*%
%TA.AperFunction,SMDPad,CuDef*%
%ADD39R,0.60000X0.50000*%
%TA.AperFunction,NonConductor*%
%ADD92R,0.28000X0.45000*%
%ADD93R,0.45000X0.28000*%
D13*
X5195001Y7497500D02*
D03*
X5455002Y7592500D02*
D03*
X8327502Y10780000D02*
D03*
X8477498D02*
D03*
X5604998Y7592500D02*
D03*
X5045004Y7497500D02*
D03*
X5455002Y7400000D02*
D03*
X5604998D02*
D03*
X8327504Y10590000D02*
D03*
X8477500D02*
D03*
D14*
X5141602Y9617605D02*
D03*
X5046602D02*
D03*
D15*
X5180171Y9422501D02*
D03*
X9027329Y11302500D02*
D03*
X9162670D02*
D03*
X6152333Y8127489D02*
D03*
X6287674D02*
D03*
X5044829Y9422501D02*
D03*
D16*
X6512500Y10609829D02*
D03*
X6950000Y7535170D02*
D03*
X9824999Y10725342D02*
D03*
Y10590000D02*
D03*
X6950000Y7399829D02*
D03*
X6512500Y10745171D02*
D03*
D17*
X6151505Y7495000D02*
D03*
X9027500Y10685000D02*
D03*
X6413505Y7590000D02*
D03*
X9289500Y10780000D02*
D03*
Y10590000D02*
D03*
X9027500D02*
D03*
Y10780000D02*
D03*
X6413505Y7400000D02*
D03*
X6151505D02*
D03*
Y7590000D02*
D03*
D18*
X9994000Y5082496D02*
D03*
X9546000D02*
D03*
Y4172496D02*
D03*
X9994000D02*
D03*
D19*
X4920000Y5412499D02*
D03*
X5230000D02*
D03*
Y5269420D02*
D03*
X4920000D02*
D03*
D20*
X5457500Y4820000D02*
D03*
X6750000Y5790005D02*
D03*
X6895000Y6042505D02*
D03*
X5312500Y4820000D02*
D03*
X6895000Y5790005D02*
D03*
X6750000Y6042505D02*
D03*
D21*
X5325000Y4582998D02*
D03*
X4775000D02*
D03*
D22*
X6645000Y5475000D02*
D03*
X7025000D02*
D03*
Y5410000D02*
D03*
Y5540000D02*
D03*
X6645000D02*
D03*
Y5410000D02*
D03*
Y5345000D02*
D03*
X7025000D02*
D03*
D23*
X9322500Y7592500D02*
D03*
X4822500Y6425000D02*
D03*
X7255000Y7077500D02*
D03*
X9322500Y7737500D02*
D03*
X4822500Y6280000D02*
D03*
X7255000Y7222500D02*
D03*
D24*
X5125000Y6602500D02*
D03*
Y6142500D02*
D03*
Y6372500D02*
D03*
D25*
X6304999Y10650000D02*
D03*
Y10745000D02*
D03*
D26*
X5107400Y10744500D02*
D03*
Y10844500D02*
D03*
X5162400D02*
D03*
X5052400D02*
D03*
Y10744500D02*
D03*
X5162400D02*
D03*
D27*
X5172203Y10027504D02*
D03*
X5052803D02*
D03*
D28*
X4950001Y10460005D02*
D03*
Y10270005D02*
D03*
X5155001D02*
D03*
Y10460005D02*
D03*
D29*
X5882000Y10624900D02*
D03*
Y10744300D02*
D03*
D30*
X5452495Y10847500D02*
D03*
X5642495D02*
D03*
Y10642500D02*
D03*
X5452495D02*
D03*
D31*
X9480000Y6617670D02*
D03*
X6382505Y6427671D02*
D03*
Y6272329D02*
D03*
X9480000Y6462329D02*
D03*
D32*
X5202000Y4582998D02*
D03*
X4898000D02*
D03*
D33*
X5663495Y10745000D02*
D03*
X5431495D02*
D03*
D34*
X7060000Y6455000D02*
D03*
Y6275000D02*
D03*
D36*
X5052501Y10481005D02*
D03*
Y10249005D02*
D03*
D37*
X5755000Y6372500D02*
D03*
D38*
X5000000Y4582998D02*
D03*
X5100000D02*
D03*
D39*
X7945001Y10610002D02*
D03*
Y10759998D02*
D03*
D92*
X6100498Y10745001D02*
D03*
X6034498D02*
D03*
D93*
X5049923Y9819505D02*
D03*
Y9885505D02*
D03*
%TF.MD5,fad595f223832cfe1375c92b0d30689e*%
M02*
