%TF.GenerationSoftware,Altium Limited,Altium Designer,25.3.3 (18)*%
G04 Layer_Color=2752767*
%FSLAX45Y45*%
%MOMM*%
%TF.SameCoordinates,5E11F917-F8F9-4F0F-A2E6-9E88ADDE2E03*%
%TF.FilePolarity,Positive*%
%TF.FileFunction,Drawing*%
%TF.Part,Single*%
G01*
G75*
%TA.AperFunction,NonConductor*%
%ADD104C,0.12700*%
%ADD105C,0.16933*%
D104*
X8433200Y4279206D02*
Y4380806D01*
X8534800D01*
Y4279206D01*
X8433200D01*
X8179200D02*
Y4380806D01*
X8280800D01*
Y4279206D01*
X8179200D01*
X7925200D02*
Y4380806D01*
X8026800D01*
Y4279206D01*
X7925200D01*
X5976700Y5551700D02*
Y5653300D01*
X6078300D01*
Y5551700D01*
X5976700D01*
X9966711Y7362699D02*
Y7464299D01*
X10068311D01*
Y7362699D01*
X9966711D01*
Y7616699D02*
Y7718299D01*
X10068311D01*
Y7616699D01*
X9966711D01*
Y7870699D02*
Y7972299D01*
X10068311D01*
Y7870699D01*
X9966711D01*
X10017561Y8667200D02*
X9966761Y8768800D01*
X10068361D01*
X10017561Y8667200D01*
Y8921200D02*
X9966761Y9022800D01*
X10068361D01*
X10017561Y8921200D01*
Y9175200D02*
X9966761Y9276800D01*
X10068361D01*
X10017561Y9175200D01*
Y9429200D02*
X9966761Y9530800D01*
X10068361D01*
X10017561Y9429200D01*
Y9683200D02*
X9966761Y9784800D01*
X10068361D01*
X10017561Y9683200D01*
X5649200Y5551700D02*
Y5653300D01*
X5750800D01*
Y5551700D01*
X5649200D01*
X10006711Y6021705D02*
X10032111D01*
X10057511Y6047105D01*
X10082911Y6021705D01*
X10108311D01*
Y6047105D01*
X10082911Y6072505D01*
X10108311Y6097905D01*
Y6123305D01*
X10082911D01*
X10057511Y6097905D01*
X10032111Y6123305D01*
X10006711D01*
Y6097905D01*
X10032111Y6072505D01*
X10006711Y6047105D01*
Y6021705D01*
Y6271705D02*
X10032111D01*
X10057511Y6297105D01*
X10082911Y6271705D01*
X10108311D01*
Y6297105D01*
X10082911Y6322505D01*
X10108311Y6347905D01*
Y6373305D01*
X10082911D01*
X10057511Y6347905D01*
X10032111Y6373305D01*
X10006711D01*
Y6347905D01*
X10032111Y6322505D01*
X10006711Y6297105D01*
Y6271705D01*
Y6521705D02*
X10032111D01*
X10057511Y6547105D01*
X10082911Y6521705D01*
X10108311D01*
Y6547105D01*
X10082911Y6572505D01*
X10108311Y6597905D01*
Y6623305D01*
X10082911D01*
X10057511Y6597905D01*
X10032111Y6623305D01*
X10006711D01*
Y6597905D01*
X10032111Y6572505D01*
X10006711Y6547105D01*
Y6521705D01*
X7059000Y4540700D02*
X7084400Y4566100D01*
X7109800D01*
X7084400Y4591500D01*
X7109800Y4616900D01*
X7084400D01*
X7059000Y4642300D01*
X7033600Y4616900D01*
X7008200D01*
X7033600Y4591500D01*
X7008200Y4566100D01*
X7033600D01*
X7059000Y4540700D01*
Y4286700D02*
X7084400Y4312100D01*
X7109800D01*
X7084400Y4337500D01*
X7109800Y4362900D01*
X7084400D01*
X7059000Y4388300D01*
X7033600Y4362900D01*
X7008200D01*
X7033600Y4337500D01*
X7008200Y4312100D01*
X7033600D01*
X7059000Y4286700D01*
X6805000Y4540700D02*
X6830400Y4566100D01*
X6855800D01*
X6830400Y4591500D01*
X6855800Y4616900D01*
X6830400D01*
X6805000Y4642300D01*
X6779600Y4616900D01*
X6754200D01*
X6779600Y4591500D01*
X6754200Y4566100D01*
X6779600D01*
X6805000Y4540700D01*
Y4286700D02*
X6830400Y4312100D01*
X6855800D01*
X6830400Y4337500D01*
X6855800Y4362900D01*
X6830400D01*
X6805000Y4388300D01*
X6779600Y4362900D01*
X6754200D01*
X6779600Y4337500D01*
X6754200Y4312100D01*
X6779600D01*
X6805000Y4286700D01*
X6551000Y4540700D02*
X6576400Y4566100D01*
X6601800D01*
X6576400Y4591500D01*
X6601800Y4616900D01*
X6576400D01*
X6551000Y4642300D01*
X6525600Y4616900D01*
X6500200D01*
X6525600Y4591500D01*
X6500200Y4566100D01*
X6525600D01*
X6551000Y4540700D01*
Y4286700D02*
X6576400Y4312100D01*
X6601800D01*
X6576400Y4337500D01*
X6601800Y4362900D01*
X6576400D01*
X6551000Y4388300D01*
X6525600Y4362900D01*
X6500200D01*
X6525600Y4337500D01*
X6500200Y4312100D01*
X6525600D01*
X6551000Y4286700D01*
X6297000Y4540700D02*
X6322400Y4566100D01*
X6347800D01*
X6322400Y4591500D01*
X6347800Y4616900D01*
X6322400D01*
X6297000Y4642300D01*
X6271600Y4616900D01*
X6246200D01*
X6271600Y4591500D01*
X6246200Y4566100D01*
X6271600D01*
X6297000Y4540700D01*
Y4286700D02*
X6322400Y4312100D01*
X6347800D01*
X6322400Y4337500D01*
X6347800Y4362900D01*
X6322400D01*
X6297000Y4388300D01*
X6271600Y4362900D01*
X6246200D01*
X6271600Y4337500D01*
X6246200Y4312100D01*
X6271600D01*
X6297000Y4286700D01*
X4567200Y4524198D02*
X4592600Y4574998D01*
X4567200Y4625798D01*
X4618000Y4600398D01*
X4668800Y4625798D01*
X4643400Y4574998D01*
X4668800Y4524198D01*
X4618000Y4549598D01*
X4567200Y4524198D01*
X5431200D02*
X5456600Y4574998D01*
X5431200Y4625798D01*
X5482000Y4600398D01*
X5532800Y4625798D01*
X5507400Y4574998D01*
X5532800Y4524198D01*
X5482000Y4549598D01*
X5431200Y4524198D01*
X4567200Y4144198D02*
X4592600Y4194998D01*
X4567200Y4245798D01*
X4618000Y4220398D01*
X4668800Y4245798D01*
X4643400Y4194998D01*
X4668800Y4144198D01*
X4618000Y4169598D01*
X4567200Y4144198D01*
X5431200D02*
X5456600Y4194998D01*
X5431200Y4245798D01*
X5482000Y4220398D01*
X5532800Y4245798D01*
X5507400Y4194998D01*
X5532800Y4144198D01*
X5482000Y4169598D01*
X5431200Y4144198D01*
X6724605Y7008400D02*
Y6983000D01*
X6775405D01*
Y7008400D01*
X6800805D01*
Y7059200D01*
X6775405D01*
Y7084600D01*
X6724605D01*
Y7059200D01*
X6699205D01*
Y7008400D01*
X6724605D01*
Y6245800D02*
Y6220400D01*
X6775405D01*
Y6245800D01*
X6800805D01*
Y6296600D01*
X6775405D01*
Y6322000D01*
X6724605D01*
Y6296600D01*
X6699205D01*
Y6245800D01*
X6724605D01*
X4876700Y9981700D02*
Y10083300D01*
X4978300D01*
Y9981700D01*
X4876700D01*
X4897020Y10002020D02*
Y10062980D01*
X4957980D01*
Y10002020D01*
X4897020D01*
X4879200Y10104200D02*
Y10205800D01*
X4980800D01*
Y10104200D01*
X4879200D01*
X4899520Y10124520D02*
Y10185480D01*
X4960480D01*
Y10124520D01*
X4899520D01*
X4886700Y10511700D02*
Y10613300D01*
X4988300D01*
Y10511700D01*
X4886700D01*
X4907020Y10532020D02*
Y10592980D01*
X4967980D01*
Y10532020D01*
X4907020D01*
X4886700Y10594200D02*
Y10695800D01*
X4988300D01*
Y10594200D01*
X4886700D01*
X4907020Y10614520D02*
Y10675480D01*
X4967980D01*
Y10614520D01*
X4907020D01*
X4794200Y10221700D02*
Y10323300D01*
X4895800D01*
Y10221700D01*
X4794200D01*
X4814520Y10242020D02*
Y10302980D01*
X4875480D01*
Y10242020D01*
X4814520D01*
X4794200Y10312950D02*
Y10414550D01*
X4895800D01*
Y10312950D01*
X4794200D01*
X4814520Y10333270D02*
Y10394230D01*
X4875480D01*
Y10333270D01*
X4814520D01*
X4794200Y10404200D02*
Y10505800D01*
X4895800D01*
Y10404200D01*
X4794200D01*
X4814520Y10424520D02*
Y10485480D01*
X4875480D01*
Y10424520D01*
X4814520D01*
X5214200Y9981700D02*
Y10083300D01*
X5315800D01*
Y9981700D01*
X5214200D01*
X5234520Y10002020D02*
Y10062980D01*
X5295480D01*
Y10002020D01*
X5234520D01*
X5156700Y10101700D02*
Y10203300D01*
X5258300D01*
Y10101700D01*
X5156700D01*
X5177020Y10122020D02*
Y10182980D01*
X5237980D01*
Y10122020D01*
X5177020D01*
X5216700Y10216700D02*
Y10318300D01*
X5318300D01*
Y10216700D01*
X5216700D01*
X5237020Y10237020D02*
Y10297980D01*
X5297980D01*
Y10237020D01*
X5237020D01*
X5216700Y10310450D02*
Y10412050D01*
X5318300D01*
Y10310450D01*
X5216700D01*
X5237020Y10330770D02*
Y10391730D01*
X5297980D01*
Y10330770D01*
X5237020D01*
X5216700Y10404200D02*
Y10505800D01*
X5318300D01*
Y10404200D01*
X5216700D01*
X5237020Y10424520D02*
Y10485480D01*
X5297980D01*
Y10424520D01*
X5237020D01*
X5604200Y10489200D02*
Y10590800D01*
X5705800D01*
Y10489200D01*
X5604200D01*
X5624520Y10509520D02*
Y10570480D01*
X5685480D01*
Y10509520D01*
X5624520D01*
X5494200Y10489200D02*
Y10590800D01*
X5595800D01*
Y10489200D01*
X5494200D01*
X5514520Y10509520D02*
Y10570480D01*
X5575480D01*
Y10509520D01*
X5514520D01*
X5384200Y10489200D02*
Y10590800D01*
X5485800D01*
Y10489200D01*
X5384200D01*
X5404520Y10509520D02*
Y10570480D01*
X5465480D01*
Y10509520D01*
X5404520D01*
X5306700Y10584200D02*
Y10685800D01*
X5408300D01*
Y10584200D01*
X5306700D01*
X5327020Y10604520D02*
Y10665480D01*
X5387980D01*
Y10604520D01*
X5327020D01*
X5219200Y10584200D02*
Y10685800D01*
X5320800D01*
Y10584200D01*
X5219200D01*
X5239520Y10604520D02*
Y10665480D01*
X5300480D01*
Y10604520D01*
X5239520D01*
X5131700Y10501700D02*
Y10603300D01*
X5233300D01*
Y10501700D01*
X5131700D01*
X5152020Y10522020D02*
Y10582980D01*
X5212980D01*
Y10522020D01*
X5152020D01*
X5131700Y10584200D02*
Y10685800D01*
X5233300D01*
Y10584200D01*
X5131700D01*
X5152020Y10604520D02*
Y10665480D01*
X5212980D01*
Y10604520D01*
X5152020D01*
X5611700Y10899200D02*
Y11000800D01*
X5713300D01*
Y10899200D01*
X5611700D01*
X5632020Y10919520D02*
Y10980480D01*
X5692980D01*
Y10919520D01*
X5632020D01*
X5501700Y10899200D02*
Y11000800D01*
X5603300D01*
Y10899200D01*
X5501700D01*
X5522020Y10919520D02*
Y10980480D01*
X5582980D01*
Y10919520D01*
X5522020D01*
X5381700Y10899200D02*
Y11000800D01*
X5483300D01*
Y10899200D01*
X5381700D01*
X5402020Y10919520D02*
Y10980480D01*
X5462980D01*
Y10919520D01*
X5402020D01*
X5239200Y10806900D02*
Y10908500D01*
X5340800D01*
Y10806900D01*
X5239200D01*
X5259520Y10827220D02*
Y10888180D01*
X5320480D01*
Y10827220D01*
X5259520D01*
X5239200Y10903783D02*
Y11005383D01*
X5340800D01*
Y10903783D01*
X5239200D01*
X5259520Y10924103D02*
Y10985063D01*
X5320480D01*
Y10924103D01*
X5259520D01*
X5239200Y11010867D02*
Y11112467D01*
X5340800D01*
Y11010867D01*
X5239200D01*
X5259520Y11031187D02*
Y11092147D01*
X5320480D01*
Y11031187D01*
X5259520D01*
X5239200Y11117950D02*
Y11219550D01*
X5340800D01*
Y11117950D01*
X5239200D01*
X5259520Y11138270D02*
Y11199230D01*
X5320480D01*
Y11138270D01*
X5259520D01*
X5239200Y11225033D02*
Y11326633D01*
X5340800D01*
Y11225033D01*
X5239200D01*
X5259520Y11245353D02*
Y11306313D01*
X5320480D01*
Y11245353D01*
X5259520D01*
X5239200Y11332117D02*
Y11433717D01*
X5340800D01*
Y11332117D01*
X5239200D01*
X5259520Y11352437D02*
Y11413397D01*
X5320480D01*
Y11352437D01*
X5259520D01*
X5239200Y11439200D02*
Y11540800D01*
X5340800D01*
Y11439200D01*
X5239200D01*
X5259520Y11459520D02*
Y11520480D01*
X5320480D01*
Y11459520D01*
X5259520D01*
X5239200Y11546283D02*
Y11647883D01*
X5340800D01*
Y11546283D01*
X5239200D01*
X5259520Y11566603D02*
Y11627563D01*
X5320480D01*
Y11566603D01*
X5259520D01*
X4235034Y10689200D02*
Y10790800D01*
X4336634D01*
Y10689200D01*
X4235034D01*
X4255354Y10709520D02*
Y10770480D01*
X4316314D01*
Y10709520D01*
X4255354D01*
X4360867Y10689200D02*
Y10790800D01*
X4462467D01*
Y10689200D01*
X4360867D01*
X4381187Y10709520D02*
Y10770480D01*
X4442147D01*
Y10709520D01*
X4381187D01*
X4486700Y10689200D02*
Y10790800D01*
X4588300D01*
Y10689200D01*
X4486700D01*
X4507020Y10709520D02*
Y10770480D01*
X4567980D01*
Y10709520D01*
X4507020D01*
X4612534Y10689200D02*
Y10790800D01*
X4714134D01*
Y10689200D01*
X4612534D01*
X4632854Y10709520D02*
Y10770480D01*
X4693814D01*
Y10709520D01*
X4632854D01*
X4738367Y10689200D02*
Y10790800D01*
X4839967D01*
Y10689200D01*
X4738367D01*
X4758687Y10709520D02*
Y10770480D01*
X4819647D01*
Y10709520D01*
X4758687D01*
X4864200Y10689200D02*
Y10790800D01*
X4965800D01*
Y10689200D01*
X4864200D01*
X4884520Y10709520D02*
Y10770480D01*
X4945480D01*
Y10709520D01*
X4884520D01*
X4994199Y11546700D02*
Y11648300D01*
X5095799D01*
Y11546700D01*
X4994199D01*
X5014519Y11567020D02*
Y11627980D01*
X5075479D01*
Y11567020D01*
X5014519D01*
X4994199Y11439617D02*
Y11541217D01*
X5095799D01*
Y11439617D01*
X4994199D01*
X5014519Y11459937D02*
Y11520897D01*
X5075479D01*
Y11459937D01*
X5014519D01*
X4994199Y11332533D02*
Y11434133D01*
X5095799D01*
Y11332533D01*
X4994199D01*
X5014519Y11352853D02*
Y11413813D01*
X5075479D01*
Y11352853D01*
X5014519D01*
X4994199Y11225450D02*
Y11327050D01*
X5095799D01*
Y11225450D01*
X4994199D01*
X5014519Y11245770D02*
Y11306730D01*
X5075479D01*
Y11245770D01*
X5014519D01*
X4994199Y11118367D02*
Y11219967D01*
X5095799D01*
Y11118367D01*
X4994199D01*
X5014519Y11138687D02*
Y11199647D01*
X5075479D01*
Y11138687D01*
X5014519D01*
X4994199Y11011283D02*
Y11112883D01*
X5095799D01*
Y11011283D01*
X4994199D01*
X5014519Y11031603D02*
Y11092563D01*
X5075479D01*
Y11031603D01*
X5014519D01*
X4994199Y10904200D02*
Y11005800D01*
X5095799D01*
Y10904200D01*
X4994199D01*
X5014519Y10924520D02*
Y10985480D01*
X5075479D01*
Y10924520D01*
X5014519D01*
X4868366Y10904200D02*
Y11005800D01*
X4969966D01*
Y10904200D01*
X4868366D01*
X4888686Y10924520D02*
Y10985480D01*
X4949646D01*
Y10924520D01*
X4888686D01*
X4742533Y10904200D02*
Y11005800D01*
X4844133D01*
Y10904200D01*
X4742533D01*
X4762853Y10924520D02*
Y10985480D01*
X4823813D01*
Y10924520D01*
X4762853D01*
X4616699Y10904200D02*
Y11005800D01*
X4718299D01*
Y10904200D01*
X4616699D01*
X4637019Y10924520D02*
Y10985480D01*
X4697979D01*
Y10924520D01*
X4637019D01*
X4490866Y10904200D02*
Y11005800D01*
X4592466D01*
Y10904200D01*
X4490866D01*
X4511186Y10924520D02*
Y10985480D01*
X4572146D01*
Y10924520D01*
X4511186D01*
X4365033Y10904200D02*
Y11005800D01*
X4466633D01*
Y10904200D01*
X4365033D01*
X4385353Y10924520D02*
Y10985480D01*
X4446313D01*
Y10924520D01*
X4385353D01*
X4239200Y10904200D02*
Y11005800D01*
X4340800D01*
Y10904200D01*
X4239200D01*
X4259520Y10924520D02*
Y10985480D01*
X4320480D01*
Y10924520D01*
X4259520D01*
X7391500Y10946900D02*
Y11048500D01*
X7493100D01*
Y10946900D01*
X7391500D01*
X7411820Y10967220D02*
Y11028180D01*
X7472780D01*
Y10967220D01*
X7411820D01*
X6971500Y10946900D02*
Y11048500D01*
X7073100D01*
Y10946900D01*
X6971500D01*
X6991820Y10967220D02*
Y11028180D01*
X7052780D01*
Y10967220D01*
X6991820D01*
X6564000Y10946900D02*
Y11048500D01*
X6665600D01*
Y10946900D01*
X6564000D01*
X6584320Y10967220D02*
Y11028180D01*
X6645280D01*
Y10967220D01*
X6584320D01*
X6154000Y10946900D02*
Y11048500D01*
X6255600D01*
Y10946900D01*
X6154000D01*
X6174320Y10967220D02*
Y11028180D01*
X6235280D01*
Y10967220D01*
X6174320D01*
X5746500Y10946900D02*
Y11048500D01*
X5848100D01*
Y10946900D01*
X5746500D01*
X5766820Y10967220D02*
Y11028180D01*
X5827780D01*
Y10967220D01*
X5766820D01*
X5181500Y9684400D02*
Y9786000D01*
X5283100D01*
Y9684400D01*
X5181500D01*
X5201820Y9704720D02*
Y9765680D01*
X5262780D01*
Y9704720D01*
X5201820D01*
X5159000Y9144400D02*
Y9246000D01*
X5260600D01*
Y9144400D01*
X5159000D01*
X5179320Y9164720D02*
Y9225680D01*
X5240280D01*
Y9164720D01*
X5179320D01*
X5146500Y8351900D02*
Y8453500D01*
X5248100D01*
Y8351900D01*
X5146500D01*
X5166820Y8372220D02*
Y8433180D01*
X5227780D01*
Y8372220D01*
X5166820D01*
X4766500Y8349400D02*
Y8451000D01*
X4868100D01*
Y8349400D01*
X4766500D01*
X4786820Y8369720D02*
Y8430680D01*
X4847780D01*
Y8369720D01*
X4786820D01*
X4751500Y9949400D02*
Y10051000D01*
X4853100D01*
Y9949400D01*
X4751500D01*
X4771820Y9969720D02*
Y10030680D01*
X4832780D01*
Y9969720D01*
X4771820D01*
X4756500Y9146900D02*
Y9248500D01*
X4858100D01*
Y9146900D01*
X4756500D01*
X4776820Y9167220D02*
Y9228180D01*
X4837780D01*
Y9167220D01*
X4776820D01*
X9949199Y11149199D02*
Y11250799D01*
X10050799D01*
Y11149199D01*
X9949199D01*
X9969519Y11169519D02*
Y11230479D01*
X10030479D01*
Y11169519D01*
X9969519D01*
X9949199Y10349199D02*
Y10450799D01*
X10050799D01*
Y10349199D01*
X9949199D01*
X9969519Y10369519D02*
Y10430479D01*
X10030479D01*
Y10369519D01*
X9969519D01*
X10149199Y9149199D02*
Y9250799D01*
X10250799D01*
Y9149199D01*
X10149199D01*
X10169519Y9169519D02*
Y9230479D01*
X10230479D01*
Y9169519D01*
X10169519D01*
X10149199Y8349199D02*
Y8450799D01*
X10250799D01*
Y8349199D01*
X10149199D01*
X10169519Y8369519D02*
Y8430479D01*
X10230479D01*
Y8369519D01*
X10169519D01*
X10149199Y7549199D02*
Y7650799D01*
X10250799D01*
Y7549199D01*
X10149199D01*
X10169519Y7569519D02*
Y7630479D01*
X10230479D01*
Y7569519D01*
X10169519D01*
X9949199Y7149199D02*
Y7250799D01*
X10050799D01*
Y7149199D01*
X9949199D01*
X9969519Y7169519D02*
Y7230479D01*
X10030479D01*
Y7169519D01*
X9969519D01*
X10149199Y5949199D02*
Y6050799D01*
X10250799D01*
Y5949199D01*
X10149199D01*
X10169519Y5969519D02*
Y6030479D01*
X10230479D01*
Y5969519D01*
X10169519D01*
X9949199Y5549199D02*
Y5650799D01*
X10050799D01*
Y5549199D01*
X9949199D01*
X9969519Y5569519D02*
Y5630479D01*
X10030479D01*
Y5569519D01*
X9969519D01*
X10149199Y5149200D02*
Y5250800D01*
X10250799D01*
Y5149200D01*
X10149199D01*
X10169519Y5169520D02*
Y5230480D01*
X10230479D01*
Y5169520D01*
X10169519D01*
X9949199Y4749200D02*
Y4850800D01*
X10050799D01*
Y4749200D01*
X9949199D01*
X9969519Y4769520D02*
Y4830480D01*
X10030479D01*
Y4769520D01*
X9969519D01*
X10149199Y4349200D02*
Y4450800D01*
X10250799D01*
Y4349200D01*
X10149199D01*
X10169519Y4369520D02*
Y4430480D01*
X10230479D01*
Y4369520D01*
X10169519D01*
X9949199Y3949200D02*
Y4050800D01*
X10050799D01*
Y3949200D01*
X9949199D01*
X9969519Y3969520D02*
Y4030480D01*
X10030479D01*
Y3969520D01*
X9969519D01*
X9549199Y11149199D02*
Y11250799D01*
X9650799D01*
Y11149199D01*
X9549199D01*
X9569519Y11169519D02*
Y11230479D01*
X9630479D01*
Y11169519D01*
X9569519D01*
X9549199Y10349199D02*
Y10450799D01*
X9650799D01*
Y10349199D01*
X9549199D01*
X9569519Y10369519D02*
Y10430479D01*
X9630479D01*
Y10369519D01*
X9569519D01*
X9749199Y9949199D02*
Y10050799D01*
X9850799D01*
Y9949199D01*
X9749199D01*
X9769519Y9969519D02*
Y10030479D01*
X9830479D01*
Y9969519D01*
X9769519D01*
X9549199Y8749199D02*
Y8850799D01*
X9650799D01*
Y8749199D01*
X9549199D01*
X9569519Y8769519D02*
Y8830479D01*
X9630479D01*
Y8769519D01*
X9569519D01*
X9749199Y8349199D02*
Y8450799D01*
X9850799D01*
Y8349199D01*
X9749199D01*
X9769519Y8369519D02*
Y8430479D01*
X9830479D01*
Y8369519D01*
X9769519D01*
X9549199Y7949199D02*
Y8050799D01*
X9650799D01*
Y7949199D01*
X9549199D01*
X9569519Y7969519D02*
Y8030479D01*
X9630479D01*
Y7969519D01*
X9569519D01*
X9749199Y7549199D02*
Y7650799D01*
X9850799D01*
Y7549199D01*
X9749199D01*
X9769519Y7569519D02*
Y7630479D01*
X9830479D01*
Y7569519D01*
X9769519D01*
X9549199Y7149199D02*
Y7250799D01*
X9650799D01*
Y7149199D01*
X9549199D01*
X9569519Y7169519D02*
Y7230479D01*
X9630479D01*
Y7169519D01*
X9569519D01*
X9549199Y4749200D02*
Y4850800D01*
X9650799D01*
Y4749200D01*
X9549199D01*
X9569519Y4769520D02*
Y4830480D01*
X9630479D01*
Y4769520D01*
X9569519D01*
X9749199Y4349200D02*
Y4450800D01*
X9850799D01*
Y4349200D01*
X9749199D01*
X9769519Y4369520D02*
Y4430480D01*
X9830479D01*
Y4369520D01*
X9769519D01*
X9549199Y3949200D02*
Y4050800D01*
X9650799D01*
Y3949200D01*
X9549199D01*
X9569519Y3969520D02*
Y4030480D01*
X9630479D01*
Y3969520D01*
X9569519D01*
X9149199Y10349199D02*
Y10450799D01*
X9250799D01*
Y10349199D01*
X9149199D01*
X9169519Y10369519D02*
Y10430479D01*
X9230479D01*
Y10369519D01*
X9169519D01*
X9349199Y9949199D02*
Y10050799D01*
X9450799D01*
Y9949199D01*
X9349199D01*
X9369519Y9969519D02*
Y10030479D01*
X9430479D01*
Y9969519D01*
X9369519D01*
X9349199Y8349199D02*
Y8450799D01*
X9450799D01*
Y8349199D01*
X9349199D01*
X9369519Y8369519D02*
Y8430479D01*
X9430479D01*
Y8369519D01*
X9369519D01*
X9149199Y7949199D02*
Y8050799D01*
X9250799D01*
Y7949199D01*
X9149199D01*
X9169519Y7969519D02*
Y8030479D01*
X9230479D01*
Y7969519D01*
X9169519D01*
X9149199Y7149199D02*
Y7250799D01*
X9250799D01*
Y7149199D01*
X9149199D01*
X9169519Y7169519D02*
Y7230479D01*
X9230479D01*
Y7169519D01*
X9169519D01*
X9349199Y5949199D02*
Y6050799D01*
X9450799D01*
Y5949199D01*
X9349199D01*
X9369519Y5969519D02*
Y6030479D01*
X9430479D01*
Y5969519D01*
X9369519D01*
X9149199Y5549199D02*
Y5650799D01*
X9250799D01*
Y5549199D01*
X9149199D01*
X9169519Y5569519D02*
Y5630479D01*
X9230479D01*
Y5569519D01*
X9169519D01*
X9349199Y5149200D02*
Y5250800D01*
X9450799D01*
Y5149200D01*
X9349199D01*
X9369519Y5169520D02*
Y5230480D01*
X9430479D01*
Y5169520D01*
X9369519D01*
X9149199Y4749200D02*
Y4850800D01*
X9250799D01*
Y4749200D01*
X9149199D01*
X9169519Y4769520D02*
Y4830480D01*
X9230479D01*
Y4769520D01*
X9169519D01*
X9349199Y4349200D02*
Y4450800D01*
X9450799D01*
Y4349200D01*
X9349199D01*
X9369519Y4369520D02*
Y4430480D01*
X9430479D01*
Y4369520D01*
X9369519D01*
X9149199Y3949200D02*
Y4050800D01*
X9250799D01*
Y3949200D01*
X9149199D01*
X9169519Y3969520D02*
Y4030480D01*
X9230479D01*
Y3969520D01*
X9169519D01*
X8749199Y11149199D02*
Y11250799D01*
X8850799D01*
Y11149199D01*
X8749199D01*
X8769519Y11169519D02*
Y11230479D01*
X8830479D01*
Y11169519D01*
X8769519D01*
X8749199Y10349199D02*
Y10450799D01*
X8850799D01*
Y10349199D01*
X8749199D01*
X8769519Y10369519D02*
Y10430479D01*
X8830479D01*
Y10369519D01*
X8769519D01*
X8949199Y9949199D02*
Y10050799D01*
X9050799D01*
Y9949199D01*
X8949199D01*
X8969519Y9969519D02*
Y10030479D01*
X9030479D01*
Y9969519D01*
X8969519D01*
X8749199Y9549199D02*
Y9650799D01*
X8850799D01*
Y9549199D01*
X8749199D01*
X8769519Y9569519D02*
Y9630479D01*
X8830479D01*
Y9569519D01*
X8769519D01*
X8949199Y9149199D02*
Y9250799D01*
X9050799D01*
Y9149199D01*
X8949199D01*
X8969519Y9169519D02*
Y9230479D01*
X9030479D01*
Y9169519D01*
X8969519D01*
X8749199Y8749199D02*
Y8850799D01*
X8850799D01*
Y8749199D01*
X8749199D01*
X8769519Y8769519D02*
Y8830479D01*
X8830479D01*
Y8769519D01*
X8769519D01*
X8949199Y8349199D02*
Y8450799D01*
X9050799D01*
Y8349199D01*
X8949199D01*
X8969519Y8369519D02*
Y8430479D01*
X9030479D01*
Y8369519D01*
X8969519D01*
X8749199Y7949199D02*
Y8050799D01*
X8850799D01*
Y7949199D01*
X8749199D01*
X8769519Y7969519D02*
Y8030479D01*
X8830479D01*
Y7969519D01*
X8769519D01*
X8749199Y7149199D02*
Y7250799D01*
X8850799D01*
Y7149199D01*
X8749199D01*
X8769519Y7169519D02*
Y7230479D01*
X8830479D01*
Y7169519D01*
X8769519D01*
X8749199Y5549199D02*
Y5650799D01*
X8850799D01*
Y5549199D01*
X8749199D01*
X8769519Y5569519D02*
Y5630479D01*
X8830479D01*
Y5569519D01*
X8769519D01*
X8749199Y4749200D02*
Y4850800D01*
X8850799D01*
Y4749200D01*
X8749199D01*
X8769519Y4769520D02*
Y4830480D01*
X8830479D01*
Y4769520D01*
X8769519D01*
X8949199Y4349200D02*
Y4450800D01*
X9050799D01*
Y4349200D01*
X8949199D01*
X8969519Y4369520D02*
Y4430480D01*
X9030479D01*
Y4369520D01*
X8969519D01*
X8749199Y3949200D02*
Y4050800D01*
X8850799D01*
Y3949200D01*
X8749199D01*
X8769519Y3969520D02*
Y4030480D01*
X8830479D01*
Y3969520D01*
X8769519D01*
X8349199Y11149199D02*
Y11250799D01*
X8450799D01*
Y11149199D01*
X8349199D01*
X8369519Y11169519D02*
Y11230479D01*
X8430479D01*
Y11169519D01*
X8369519D01*
X8349199Y10349199D02*
Y10450799D01*
X8450799D01*
Y10349199D01*
X8349199D01*
X8369519Y10369519D02*
Y10430479D01*
X8430479D01*
Y10369519D01*
X8369519D01*
X8549199Y9949199D02*
Y10050799D01*
X8650799D01*
Y9949199D01*
X8549199D01*
X8569519Y9969519D02*
Y10030479D01*
X8630479D01*
Y9969519D01*
X8569519D01*
X8349199Y9549199D02*
Y9650799D01*
X8450799D01*
Y9549199D01*
X8349199D01*
X8369519Y9569519D02*
Y9630479D01*
X8430479D01*
Y9569519D01*
X8369519D01*
X8549199Y9149199D02*
Y9250799D01*
X8650799D01*
Y9149199D01*
X8549199D01*
X8569519Y9169519D02*
Y9230479D01*
X8630479D01*
Y9169519D01*
X8569519D01*
X8349199Y8749199D02*
Y8850799D01*
X8450799D01*
Y8749199D01*
X8349199D01*
X8369519Y8769519D02*
Y8830479D01*
X8430479D01*
Y8769519D01*
X8369519D01*
X8549199Y8349199D02*
Y8450799D01*
X8650799D01*
Y8349199D01*
X8549199D01*
X8569519Y8369519D02*
Y8430479D01*
X8630479D01*
Y8369519D01*
X8569519D01*
X8549199Y7549199D02*
Y7650799D01*
X8650799D01*
Y7549199D01*
X8549199D01*
X8569519Y7569519D02*
Y7630479D01*
X8630479D01*
Y7569519D01*
X8569519D01*
X8349199Y7149199D02*
Y7250799D01*
X8450799D01*
Y7149199D01*
X8349199D01*
X8369519Y7169519D02*
Y7230479D01*
X8430479D01*
Y7169519D01*
X8369519D01*
X8549199Y6749199D02*
Y6850799D01*
X8650799D01*
Y6749199D01*
X8549199D01*
X8569519Y6769519D02*
Y6830479D01*
X8630479D01*
Y6769519D01*
X8569519D01*
X8549199Y5949199D02*
Y6050799D01*
X8650799D01*
Y5949199D01*
X8549199D01*
X8569519Y5969519D02*
Y6030479D01*
X8630479D01*
Y5969519D01*
X8569519D01*
X8549199Y5149200D02*
Y5250800D01*
X8650799D01*
Y5149200D01*
X8549199D01*
X8569519Y5169520D02*
Y5230480D01*
X8630479D01*
Y5169520D01*
X8569519D01*
X8349199Y4749200D02*
Y4850800D01*
X8450799D01*
Y4749200D01*
X8349199D01*
X8369519Y4769520D02*
Y4830480D01*
X8430479D01*
Y4769520D01*
X8369519D01*
X8549199Y4349200D02*
Y4450800D01*
X8650799D01*
Y4349200D01*
X8549199D01*
X8569519Y4369520D02*
Y4430480D01*
X8630479D01*
Y4369520D01*
X8569519D01*
X8349199Y3949200D02*
Y4050800D01*
X8450799D01*
Y3949200D01*
X8349199D01*
X8369519Y3969520D02*
Y4030480D01*
X8430479D01*
Y3969520D01*
X8369519D01*
X7949199Y11149199D02*
Y11250799D01*
X8050799D01*
Y11149199D01*
X7949199D01*
X7969519Y11169519D02*
Y11230479D01*
X8030479D01*
Y11169519D01*
X7969519D01*
X7949199Y10349199D02*
Y10450799D01*
X8050799D01*
Y10349199D01*
X7949199D01*
X7969519Y10369519D02*
Y10430479D01*
X8030479D01*
Y10369519D01*
X7969519D01*
X8149199Y9949199D02*
Y10050799D01*
X8250799D01*
Y9949199D01*
X8149199D01*
X8169519Y9969519D02*
Y10030479D01*
X8230479D01*
Y9969519D01*
X8169519D01*
X7949199Y9549199D02*
Y9650799D01*
X8050799D01*
Y9549199D01*
X7949199D01*
X7969519Y9569519D02*
Y9630479D01*
X8030479D01*
Y9569519D01*
X7969519D01*
X7949199Y8749199D02*
Y8850799D01*
X8050799D01*
Y8749199D01*
X7949199D01*
X7969519Y8769519D02*
Y8830479D01*
X8030479D01*
Y8769519D01*
X7969519D01*
X7949199Y7949199D02*
Y8050799D01*
X8050799D01*
Y7949199D01*
X7949199D01*
X7969519Y7969519D02*
Y8030479D01*
X8030479D01*
Y7969519D01*
X7969519D01*
X8149199Y7549199D02*
Y7650799D01*
X8250799D01*
Y7549199D01*
X8149199D01*
X8169519Y7569519D02*
Y7630479D01*
X8230479D01*
Y7569519D01*
X8169519D01*
X7949199Y7149199D02*
Y7250799D01*
X8050799D01*
Y7149199D01*
X7949199D01*
X7969519Y7169519D02*
Y7230479D01*
X8030479D01*
Y7169519D01*
X7969519D01*
X8149199Y6749199D02*
Y6850799D01*
X8250799D01*
Y6749199D01*
X8149199D01*
X8169519Y6769519D02*
Y6830479D01*
X8230479D01*
Y6769519D01*
X8169519D01*
X8149199Y5949199D02*
Y6050799D01*
X8250799D01*
Y5949199D01*
X8149199D01*
X8169519Y5969519D02*
Y6030479D01*
X8230479D01*
Y5969519D01*
X8169519D01*
X7949199Y5549199D02*
Y5650799D01*
X8050799D01*
Y5549199D01*
X7949199D01*
X7969519Y5569519D02*
Y5630479D01*
X8030479D01*
Y5569519D01*
X7969519D01*
X7949199Y3949200D02*
Y4050800D01*
X8050799D01*
Y3949200D01*
X7949199D01*
X7969519Y3969520D02*
Y4030480D01*
X8030479D01*
Y3969520D01*
X7969519D01*
X7549199Y11149199D02*
Y11250799D01*
X7650799D01*
Y11149199D01*
X7549199D01*
X7569519Y11169519D02*
Y11230479D01*
X7630479D01*
Y11169519D01*
X7569519D01*
X7749199Y10749199D02*
Y10850799D01*
X7850799D01*
Y10749199D01*
X7749199D01*
X7769519Y10769519D02*
Y10830479D01*
X7830479D01*
Y10769519D01*
X7769519D01*
X7549199Y10349199D02*
Y10450799D01*
X7650799D01*
Y10349199D01*
X7549199D01*
X7569519Y10369519D02*
Y10430479D01*
X7630479D01*
Y10369519D01*
X7569519D01*
X7749199Y9949199D02*
Y10050799D01*
X7850799D01*
Y9949199D01*
X7749199D01*
X7769519Y9969519D02*
Y10030479D01*
X7830479D01*
Y9969519D01*
X7769519D01*
X7749199Y9149199D02*
Y9250799D01*
X7850799D01*
Y9149199D01*
X7749199D01*
X7769519Y9169519D02*
Y9230479D01*
X7830479D01*
Y9169519D01*
X7769519D01*
X7749199Y8349199D02*
Y8450799D01*
X7850799D01*
Y8349199D01*
X7749199D01*
X7769519Y8369519D02*
Y8430479D01*
X7830479D01*
Y8369519D01*
X7769519D01*
X7749199Y7549199D02*
Y7650799D01*
X7850799D01*
Y7549199D01*
X7749199D01*
X7769519Y7569519D02*
Y7630479D01*
X7830479D01*
Y7569519D01*
X7769519D01*
X7749199Y6749199D02*
Y6850799D01*
X7850799D01*
Y6749199D01*
X7749199D01*
X7769519Y6769519D02*
Y6830479D01*
X7830479D01*
Y6769519D01*
X7769519D01*
X7749199Y5949199D02*
Y6050799D01*
X7850799D01*
Y5949199D01*
X7749199D01*
X7769519Y5969519D02*
Y6030479D01*
X7830479D01*
Y5969519D01*
X7769519D01*
X7549199Y4749200D02*
Y4850800D01*
X7650799D01*
Y4749200D01*
X7549199D01*
X7569519Y4769520D02*
Y4830480D01*
X7630479D01*
Y4769520D01*
X7569519D01*
X7749199Y4349200D02*
Y4450800D01*
X7850799D01*
Y4349200D01*
X7749199D01*
X7769519Y4369520D02*
Y4430480D01*
X7830479D01*
Y4369520D01*
X7769519D01*
X7549199Y3949200D02*
Y4050800D01*
X7650799D01*
Y3949200D01*
X7549199D01*
X7569519Y3969520D02*
Y4030480D01*
X7630479D01*
Y3969520D01*
X7569519D01*
X7149199Y11149199D02*
Y11250799D01*
X7250799D01*
Y11149199D01*
X7149199D01*
X7169519Y11169519D02*
Y11230479D01*
X7230479D01*
Y11169519D01*
X7169519D01*
X7149199Y10349199D02*
Y10450799D01*
X7250799D01*
Y10349199D01*
X7149199D01*
X7169519Y10369519D02*
Y10430479D01*
X7230479D01*
Y10369519D01*
X7169519D01*
X7349199Y9149199D02*
Y9250799D01*
X7450799D01*
Y9149199D01*
X7349199D01*
X7369519Y9169519D02*
Y9230479D01*
X7430479D01*
Y9169519D01*
X7369519D01*
X7349199Y8349199D02*
Y8450799D01*
X7450799D01*
Y8349199D01*
X7349199D01*
X7369519Y8369519D02*
Y8430479D01*
X7430479D01*
Y8369519D01*
X7369519D01*
X7149199Y7949199D02*
Y8050799D01*
X7250799D01*
Y7949199D01*
X7149199D01*
X7169519Y7969519D02*
Y8030479D01*
X7230479D01*
Y7969519D01*
X7169519D01*
X7349199Y7549199D02*
Y7650799D01*
X7450799D01*
Y7549199D01*
X7349199D01*
X7369519Y7569519D02*
Y7630479D01*
X7430479D01*
Y7569519D01*
X7369519D01*
X7349199Y6749199D02*
Y6850799D01*
X7450799D01*
Y6749199D01*
X7349199D01*
X7369519Y6769519D02*
Y6830479D01*
X7430479D01*
Y6769519D01*
X7369519D01*
X7149199Y6349199D02*
Y6450799D01*
X7250799D01*
Y6349199D01*
X7149199D01*
X7169519Y6369519D02*
Y6430479D01*
X7230479D01*
Y6369519D01*
X7169519D01*
X7349199Y5949199D02*
Y6050799D01*
X7450799D01*
Y5949199D01*
X7349199D01*
X7369519Y5969519D02*
Y6030479D01*
X7430479D01*
Y5969519D01*
X7369519D01*
X7349199Y4349200D02*
Y4450800D01*
X7450799D01*
Y4349200D01*
X7349199D01*
X7369519Y4369520D02*
Y4430480D01*
X7430479D01*
Y4369520D01*
X7369519D01*
X7149199Y3949200D02*
Y4050800D01*
X7250799D01*
Y3949200D01*
X7149199D01*
X7169519Y3969520D02*
Y4030480D01*
X7230479D01*
Y3969520D01*
X7169519D01*
X6749199Y11149199D02*
Y11250799D01*
X6850799D01*
Y11149199D01*
X6749199D01*
X6769519Y11169519D02*
Y11230479D01*
X6830479D01*
Y11169519D01*
X6769519D01*
X6749199Y10349199D02*
Y10450799D01*
X6850799D01*
Y10349199D01*
X6749199D01*
X6769519Y10369519D02*
Y10430479D01*
X6830479D01*
Y10369519D01*
X6769519D01*
X6949199Y9949199D02*
Y10050799D01*
X7050799D01*
Y9949199D01*
X6949199D01*
X6969519Y9969519D02*
Y10030479D01*
X7030479D01*
Y9969519D01*
X6969519D01*
X6749199Y9549199D02*
Y9650799D01*
X6850799D01*
Y9549199D01*
X6749199D01*
X6769519Y9569519D02*
Y9630479D01*
X6830479D01*
Y9569519D01*
X6769519D01*
X6949199Y9149199D02*
Y9250799D01*
X7050799D01*
Y9149199D01*
X6949199D01*
X6969519Y9169519D02*
Y9230479D01*
X7030479D01*
Y9169519D01*
X6969519D01*
X6749199Y8749199D02*
Y8850799D01*
X6850799D01*
Y8749199D01*
X6749199D01*
X6769519Y8769519D02*
Y8830479D01*
X6830479D01*
Y8769519D01*
X6769519D01*
X6749199Y7949199D02*
Y8050799D01*
X6850799D01*
Y7949199D01*
X6749199D01*
X6769519Y7969519D02*
Y8030479D01*
X6830479D01*
Y7969519D01*
X6769519D01*
X6749199Y7149199D02*
Y7250799D01*
X6850799D01*
Y7149199D01*
X6749199D01*
X6769519Y7169519D02*
Y7230479D01*
X6830479D01*
Y7169519D01*
X6769519D01*
X6949199Y6749199D02*
Y6850799D01*
X7050799D01*
Y6749199D01*
X6949199D01*
X6969519Y6769519D02*
Y6830479D01*
X7030479D01*
Y6769519D01*
X6969519D01*
X6749199Y6349199D02*
Y6450799D01*
X6850799D01*
Y6349199D01*
X6749199D01*
X6769519Y6369519D02*
Y6430479D01*
X6830479D01*
Y6369519D01*
X6769519D01*
X6949199Y5949199D02*
Y6050799D01*
X7050799D01*
Y5949199D01*
X6949199D01*
X6969519Y5969519D02*
Y6030479D01*
X7030479D01*
Y5969519D01*
X6969519D01*
X6749199Y4749200D02*
Y4850800D01*
X6850799D01*
Y4749200D01*
X6749199D01*
X6769519Y4769520D02*
Y4830480D01*
X6830479D01*
Y4769520D01*
X6769519D01*
X6749199Y3949200D02*
Y4050800D01*
X6850799D01*
Y3949200D01*
X6749199D01*
X6769519Y3969520D02*
Y4030480D01*
X6830479D01*
Y3969520D01*
X6769519D01*
X6349199Y11149199D02*
Y11250799D01*
X6450799D01*
Y11149199D01*
X6349199D01*
X6369519Y11169519D02*
Y11230479D01*
X6430479D01*
Y11169519D01*
X6369519D01*
X6349199Y10349199D02*
Y10450799D01*
X6450799D01*
Y10349199D01*
X6349199D01*
X6369519Y10369519D02*
Y10430479D01*
X6430479D01*
Y10369519D01*
X6369519D01*
X6549199Y9949199D02*
Y10050799D01*
X6650799D01*
Y9949199D01*
X6549199D01*
X6569519Y9969519D02*
Y10030479D01*
X6630479D01*
Y9969519D01*
X6569519D01*
X6349199Y9549199D02*
Y9650799D01*
X6450799D01*
Y9549199D01*
X6349199D01*
X6369519Y9569519D02*
Y9630479D01*
X6430479D01*
Y9569519D01*
X6369519D01*
X6549199Y9149199D02*
Y9250799D01*
X6650799D01*
Y9149199D01*
X6549199D01*
X6569519Y9169519D02*
Y9230479D01*
X6630479D01*
Y9169519D01*
X6569519D01*
X6349199Y8749199D02*
Y8850799D01*
X6450799D01*
Y8749199D01*
X6349199D01*
X6369519Y8769519D02*
Y8830479D01*
X6430479D01*
Y8769519D01*
X6369519D01*
X6349199Y7949199D02*
Y8050799D01*
X6450799D01*
Y7949199D01*
X6349199D01*
X6369519Y7969519D02*
Y8030479D01*
X6430479D01*
Y7969519D01*
X6369519D01*
X6349199Y7149199D02*
Y7250799D01*
X6450799D01*
Y7149199D01*
X6349199D01*
X6369519Y7169519D02*
Y7230479D01*
X6430479D01*
Y7169519D01*
X6369519D01*
X6549199Y5949199D02*
Y6050799D01*
X6650799D01*
Y5949199D01*
X6549199D01*
X6569519Y5969519D02*
Y6030479D01*
X6630479D01*
Y5969519D01*
X6569519D01*
X6349199Y4749200D02*
Y4850800D01*
X6450799D01*
Y4749200D01*
X6349199D01*
X6369519Y4769520D02*
Y4830480D01*
X6430479D01*
Y4769520D01*
X6369519D01*
X6349199Y3949200D02*
Y4050800D01*
X6450799D01*
Y3949200D01*
X6349199D01*
X6369519Y3969520D02*
Y4030480D01*
X6430479D01*
Y3969520D01*
X6369519D01*
X5949199Y11149199D02*
Y11250799D01*
X6050799D01*
Y11149199D01*
X5949199D01*
X5969519Y11169519D02*
Y11230479D01*
X6030479D01*
Y11169519D01*
X5969519D01*
X5949199Y10349199D02*
Y10450799D01*
X6050799D01*
Y10349199D01*
X5949199D01*
X5969519Y10369519D02*
Y10430479D01*
X6030479D01*
Y10369519D01*
X5969519D01*
X6149199Y9949199D02*
Y10050799D01*
X6250799D01*
Y9949199D01*
X6149199D01*
X6169519Y9969519D02*
Y10030479D01*
X6230479D01*
Y9969519D01*
X6169519D01*
X5949199Y9549199D02*
Y9650799D01*
X6050799D01*
Y9549199D01*
X5949199D01*
X5969519Y9569519D02*
Y9630479D01*
X6030479D01*
Y9569519D01*
X5969519D01*
X6149199Y9149199D02*
Y9250799D01*
X6250799D01*
Y9149199D01*
X6149199D01*
X6169519Y9169519D02*
Y9230479D01*
X6230479D01*
Y9169519D01*
X6169519D01*
X5949199Y8749199D02*
Y8850799D01*
X6050799D01*
Y8749199D01*
X5949199D01*
X5969519Y8769519D02*
Y8830479D01*
X6030479D01*
Y8769519D01*
X5969519D01*
X5949199Y7949199D02*
Y8050799D01*
X6050799D01*
Y7949199D01*
X5949199D01*
X5969519Y7969519D02*
Y8030479D01*
X6030479D01*
Y7969519D01*
X5969519D01*
X5949199Y7149199D02*
Y7250799D01*
X6050799D01*
Y7149199D01*
X5949199D01*
X5969519Y7169519D02*
Y7230479D01*
X6030479D01*
Y7169519D01*
X5969519D01*
X6149199Y6749199D02*
Y6850799D01*
X6250799D01*
Y6749199D01*
X6149199D01*
X6169519Y6769519D02*
Y6830479D01*
X6230479D01*
Y6769519D01*
X6169519D01*
X6149199Y5949199D02*
Y6050799D01*
X6250799D01*
Y5949199D01*
X6149199D01*
X6169519Y5969519D02*
Y6030479D01*
X6230479D01*
Y5969519D01*
X6169519D01*
X5949199Y3949200D02*
Y4050800D01*
X6050799D01*
Y3949200D01*
X5949199D01*
X5969519Y3969520D02*
Y4030480D01*
X6030479D01*
Y3969520D01*
X5969519D01*
X5549199Y11149199D02*
Y11250799D01*
X5650799D01*
Y11149199D01*
X5549199D01*
X5569519Y11169519D02*
Y11230479D01*
X5630479D01*
Y11169519D01*
X5569519D01*
X5549199Y10349199D02*
Y10450799D01*
X5650799D01*
Y10349199D01*
X5549199D01*
X5569519Y10369519D02*
Y10430479D01*
X5630479D01*
Y10369519D01*
X5569519D01*
X5749199Y9949199D02*
Y10050799D01*
X5850799D01*
Y9949199D01*
X5749199D01*
X5769519Y9969519D02*
Y10030479D01*
X5830479D01*
Y9969519D01*
X5769519D01*
X5549199Y9549199D02*
Y9650799D01*
X5650799D01*
Y9549199D01*
X5549199D01*
X5569519Y9569519D02*
Y9630479D01*
X5630479D01*
Y9569519D01*
X5569519D01*
X5749199Y9149199D02*
Y9250799D01*
X5850799D01*
Y9149199D01*
X5749199D01*
X5769519Y9169519D02*
Y9230479D01*
X5830479D01*
Y9169519D01*
X5769519D01*
X5549199Y8749199D02*
Y8850799D01*
X5650799D01*
Y8749199D01*
X5549199D01*
X5569519Y8769519D02*
Y8830479D01*
X5630479D01*
Y8769519D01*
X5569519D01*
X5549199Y7949199D02*
Y8050799D01*
X5650799D01*
Y7949199D01*
X5549199D01*
X5569519Y7969519D02*
Y8030479D01*
X5630479D01*
Y7969519D01*
X5569519D01*
X5549199Y7149199D02*
Y7250799D01*
X5650799D01*
Y7149199D01*
X5549199D01*
X5569519Y7169519D02*
Y7230479D01*
X5630479D01*
Y7169519D01*
X5569519D01*
X5749199Y6749199D02*
Y6850799D01*
X5850799D01*
Y6749199D01*
X5749199D01*
X5769519Y6769519D02*
Y6830479D01*
X5830479D01*
Y6769519D01*
X5769519D01*
X5549199Y6349199D02*
Y6450799D01*
X5650799D01*
Y6349199D01*
X5549199D01*
X5569519Y6369519D02*
Y6430479D01*
X5630479D01*
Y6369519D01*
X5569519D01*
X5749199Y5149200D02*
Y5250800D01*
X5850799D01*
Y5149200D01*
X5749199D01*
X5769519Y5169520D02*
Y5230480D01*
X5830479D01*
Y5169520D01*
X5769519D01*
X5549199Y4749200D02*
Y4850800D01*
X5650799D01*
Y4749200D01*
X5549199D01*
X5569519Y4769520D02*
Y4830480D01*
X5630479D01*
Y4769520D01*
X5569519D01*
X5749199Y4349200D02*
Y4450800D01*
X5850799D01*
Y4349200D01*
X5749199D01*
X5769519Y4369520D02*
Y4430480D01*
X5830479D01*
Y4369520D01*
X5769519D01*
X5549199Y3949200D02*
Y4050800D01*
X5650799D01*
Y3949200D01*
X5549199D01*
X5569519Y3969520D02*
Y4030480D01*
X5630479D01*
Y3969520D01*
X5569519D01*
X5349199Y9949199D02*
Y10050799D01*
X5450799D01*
Y9949199D01*
X5349199D01*
X5369519Y9969519D02*
Y10030479D01*
X5430479D01*
Y9969519D01*
X5369519D01*
X5349199Y9149199D02*
Y9250799D01*
X5450799D01*
Y9149199D01*
X5349199D01*
X5369519Y9169519D02*
Y9230479D01*
X5430479D01*
Y9169519D01*
X5369519D01*
X5149200Y8749199D02*
Y8850799D01*
X5250800D01*
Y8749199D01*
X5149200D01*
X5169520Y8769519D02*
Y8830479D01*
X5230480D01*
Y8769519D01*
X5169520D01*
X5349199Y8349199D02*
Y8450799D01*
X5450799D01*
Y8349199D01*
X5349199D01*
X5369519Y8369519D02*
Y8430479D01*
X5430479D01*
Y8369519D01*
X5369519D01*
X5149200Y7949199D02*
Y8050799D01*
X5250800D01*
Y7949199D01*
X5149200D01*
X5169520Y7969519D02*
Y8030479D01*
X5230480D01*
Y7969519D01*
X5169520D01*
X5149200Y7149199D02*
Y7250799D01*
X5250800D01*
Y7149199D01*
X5149200D01*
X5169520Y7169519D02*
Y7230479D01*
X5230480D01*
Y7169519D01*
X5169520D01*
X5349199Y6749199D02*
Y6850799D01*
X5450799D01*
Y6749199D01*
X5349199D01*
X5369519Y6769519D02*
Y6830479D01*
X5430479D01*
Y6769519D01*
X5369519D01*
X5349199Y5949199D02*
Y6050799D01*
X5450799D01*
Y5949199D01*
X5349199D01*
X5369519Y5969519D02*
Y6030479D01*
X5430479D01*
Y5969519D01*
X5369519D01*
X5149200Y5549199D02*
Y5650799D01*
X5250800D01*
Y5549199D01*
X5149200D01*
X5169520Y5569519D02*
Y5630479D01*
X5230480D01*
Y5569519D01*
X5169520D01*
X5349199Y5149200D02*
Y5250800D01*
X5450799D01*
Y5149200D01*
X5349199D01*
X5369519Y5169520D02*
Y5230480D01*
X5430479D01*
Y5169520D01*
X5369519D01*
X5349199Y4349200D02*
Y4450800D01*
X5450799D01*
Y4349200D01*
X5349199D01*
X5369519Y4369520D02*
Y4430480D01*
X5430479D01*
Y4369520D01*
X5369519D01*
X5149200Y3949200D02*
Y4050800D01*
X5250800D01*
Y3949200D01*
X5149200D01*
X5169520Y3969520D02*
Y4030480D01*
X5230480D01*
Y3969520D01*
X5169520D01*
X4749200Y9549199D02*
Y9650799D01*
X4850800D01*
Y9549199D01*
X4749200D01*
X4769520Y9569519D02*
Y9630479D01*
X4830480D01*
Y9569519D01*
X4769520D01*
X4749200Y8749199D02*
Y8850799D01*
X4850800D01*
Y8749199D01*
X4749200D01*
X4769520Y8769519D02*
Y8830479D01*
X4830480D01*
Y8769519D01*
X4769520D01*
X4749200Y7949199D02*
Y8050799D01*
X4850800D01*
Y7949199D01*
X4749200D01*
X4769520Y7969519D02*
Y8030479D01*
X4830480D01*
Y7969519D01*
X4769520D01*
X4749200Y7149199D02*
Y7250799D01*
X4850800D01*
Y7149199D01*
X4749200D01*
X4769520Y7169519D02*
Y7230479D01*
X4830480D01*
Y7169519D01*
X4769520D01*
X4949199Y6749199D02*
Y6850799D01*
X5050799D01*
Y6749199D01*
X4949199D01*
X4969519Y6769519D02*
Y6830479D01*
X5030479D01*
Y6769519D01*
X4969519D01*
X4949199Y5949199D02*
Y6050799D01*
X5050799D01*
Y5949199D01*
X4949199D01*
X4969519Y5969519D02*
Y6030479D01*
X5030479D01*
Y5969519D01*
X4969519D01*
X4749200Y5549199D02*
Y5650799D01*
X4850800D01*
Y5549199D01*
X4749200D01*
X4769520Y5569519D02*
Y5630479D01*
X4830480D01*
Y5569519D01*
X4769520D01*
X4749200Y4749200D02*
Y4850800D01*
X4850800D01*
Y4749200D01*
X4749200D01*
X4769520Y4769520D02*
Y4830480D01*
X4830480D01*
Y4769520D01*
X4769520D01*
X4949199Y4349200D02*
Y4450800D01*
X5050799D01*
Y4349200D01*
X4949199D01*
X4969519Y4369520D02*
Y4430480D01*
X5030479D01*
Y4369520D01*
X4969519D01*
X4749200Y3949200D02*
Y4050800D01*
X4850800D01*
Y3949200D01*
X4749200D01*
X4769520Y3969520D02*
Y4030480D01*
X4830480D01*
Y3969520D01*
X4769520D01*
X4349200Y10349199D02*
Y10450799D01*
X4450800D01*
Y10349199D01*
X4349200D01*
X4369520Y10369519D02*
Y10430479D01*
X4430480D01*
Y10369519D01*
X4369520D01*
X4549199Y9949199D02*
Y10050799D01*
X4650799D01*
Y9949199D01*
X4549199D01*
X4569519Y9969519D02*
Y10030479D01*
X4630479D01*
Y9969519D01*
X4569519D01*
X4349200Y9549199D02*
Y9650799D01*
X4450800D01*
Y9549199D01*
X4349200D01*
X4369520Y9569519D02*
Y9630479D01*
X4430480D01*
Y9569519D01*
X4369520D01*
X4549199Y9149199D02*
Y9250799D01*
X4650799D01*
Y9149199D01*
X4549199D01*
X4569519Y9169519D02*
Y9230479D01*
X4630479D01*
Y9169519D01*
X4569519D01*
X4349200Y8749199D02*
Y8850799D01*
X4450800D01*
Y8749199D01*
X4349200D01*
X4369520Y8769519D02*
Y8830479D01*
X4430480D01*
Y8769519D01*
X4369520D01*
X4549199Y8349199D02*
Y8450799D01*
X4650799D01*
Y8349199D01*
X4549199D01*
X4569519Y8369519D02*
Y8430479D01*
X4630479D01*
Y8369519D01*
X4569519D01*
X4349200Y7949199D02*
Y8050799D01*
X4450800D01*
Y7949199D01*
X4349200D01*
X4369520Y7969519D02*
Y8030479D01*
X4430480D01*
Y7969519D01*
X4369520D01*
X4549199Y7549199D02*
Y7650799D01*
X4650799D01*
Y7549199D01*
X4549199D01*
X4569519Y7569519D02*
Y7630479D01*
X4630479D01*
Y7569519D01*
X4569519D01*
X4349200Y7149199D02*
Y7250799D01*
X4450800D01*
Y7149199D01*
X4349200D01*
X4369520Y7169519D02*
Y7230479D01*
X4430480D01*
Y7169519D01*
X4369520D01*
X4549199Y6749199D02*
Y6850799D01*
X4650799D01*
Y6749199D01*
X4549199D01*
X4569519Y6769519D02*
Y6830479D01*
X4630479D01*
Y6769519D01*
X4569519D01*
X4349200Y6349199D02*
Y6450799D01*
X4450800D01*
Y6349199D01*
X4349200D01*
X4369520Y6369519D02*
Y6430479D01*
X4430480D01*
Y6369519D01*
X4369520D01*
X4549199Y5949199D02*
Y6050799D01*
X4650799D01*
Y5949199D01*
X4549199D01*
X4569519Y5969519D02*
Y6030479D01*
X4630479D01*
Y5969519D01*
X4569519D01*
X4349200Y5549199D02*
Y5650799D01*
X4450800D01*
Y5549199D01*
X4349200D01*
X4369520Y5569519D02*
Y5630479D01*
X4430480D01*
Y5569519D01*
X4369520D01*
X4549199Y5149200D02*
Y5250800D01*
X4650799D01*
Y5149200D01*
X4549199D01*
X4569519Y5169520D02*
Y5230480D01*
X4630479D01*
Y5169520D01*
X4569519D01*
X4349200Y4749200D02*
Y4850800D01*
X4450800D01*
Y4749200D01*
X4349200D01*
X4369520Y4769520D02*
Y4830480D01*
X4430480D01*
Y4769520D01*
X4369520D01*
X4549199Y4349200D02*
Y4450800D01*
X4650799D01*
Y4349200D01*
X4549199D01*
X4569519Y4369520D02*
Y4430480D01*
X4630479D01*
Y4369520D01*
X4569519D01*
X4349200Y3949200D02*
Y4050800D01*
X4450800D01*
Y3949200D01*
X4349200D01*
X4369520Y3969520D02*
Y4030480D01*
X4430480D01*
Y3969520D01*
X4369520D01*
X7141700Y5237500D02*
X7192500Y5288300D01*
X7243300Y5237500D01*
X7192500Y5186700D01*
X7141700Y5237500D01*
X7304200Y9302500D02*
X7355000Y9353300D01*
X7405800Y9302500D01*
X7355000Y9251700D01*
X7304200Y9302500D01*
X8099200Y10892500D02*
X8150000Y10943300D01*
X8200800Y10892500D01*
X8150000Y10841700D01*
X8099200Y10892500D01*
X5319200Y6367500D02*
X5370000Y6418300D01*
X5420800Y6367500D01*
X5370000Y6316700D01*
X5319200Y6367500D01*
D105*
X9130800Y4987000D02*
G03*
X9130800Y4987000I-50800J0D01*
G01*
Y5241000D02*
G03*
X9130800Y5241000I-50800J0D01*
G01*
Y5495000D02*
G03*
X9130800Y5495000I-50800J0D01*
G01*
Y5749000D02*
G03*
X9130800Y5749000I-50800J0D01*
G01*
Y6003000D02*
G03*
X9130800Y6003000I-50800J0D01*
G01*
Y6257000D02*
G03*
X9130800Y6257000I-50800J0D01*
G01*
Y6511000D02*
G03*
X9130800Y6511000I-50800J0D01*
G01*
Y6765000D02*
G03*
X9130800Y6765000I-50800J0D01*
G01*
Y7019000D02*
G03*
X9130800Y7019000I-50800J0D01*
G01*
Y7273000D02*
G03*
X9130800Y7273000I-50800J0D01*
G01*
Y7527000D02*
G03*
X9130800Y7527000I-50800J0D01*
G01*
Y7781000D02*
G03*
X9130800Y7781000I-50800J0D01*
G01*
Y8035000D02*
G03*
X9130800Y8035000I-50800J0D01*
G01*
Y8289000D02*
G03*
X9130800Y8289000I-50800J0D01*
G01*
Y8543000D02*
G03*
X9130800Y8543000I-50800J0D01*
G01*
Y8797000D02*
G03*
X9130800Y8797000I-50800J0D01*
G01*
Y9051000D02*
G03*
X9130800Y9051000I-50800J0D01*
G01*
Y9305000D02*
G03*
X9130800Y9305000I-50800J0D01*
G01*
Y9559000D02*
G03*
X9130800Y9559000I-50800J0D01*
G01*
Y9813000D02*
G03*
X9130800Y9813000I-50800J0D01*
G01*
X7606800Y4987000D02*
G03*
X7606800Y4987000I-50800J0D01*
G01*
Y5241000D02*
G03*
X7606800Y5241000I-50800J0D01*
G01*
Y5495000D02*
G03*
X7606800Y5495000I-50800J0D01*
G01*
Y5749000D02*
G03*
X7606800Y5749000I-50800J0D01*
G01*
Y6003000D02*
G03*
X7606800Y6003000I-50800J0D01*
G01*
Y6257000D02*
G03*
X7606800Y6257000I-50800J0D01*
G01*
Y6511000D02*
G03*
X7606800Y6511000I-50800J0D01*
G01*
Y6765000D02*
G03*
X7606800Y6765000I-50800J0D01*
G01*
Y7019000D02*
G03*
X7606800Y7019000I-50800J0D01*
G01*
Y7273000D02*
G03*
X7606800Y7273000I-50800J0D01*
G01*
Y7527000D02*
G03*
X7606800Y7527000I-50800J0D01*
G01*
Y7781000D02*
G03*
X7606800Y7781000I-50800J0D01*
G01*
Y8035000D02*
G03*
X7606800Y8035000I-50800J0D01*
G01*
Y8289000D02*
G03*
X7606800Y8289000I-50800J0D01*
G01*
Y8543000D02*
G03*
X7606800Y8543000I-50800J0D01*
G01*
Y8797000D02*
G03*
X7606800Y8797000I-50800J0D01*
G01*
Y9051000D02*
G03*
X7606800Y9051000I-50800J0D01*
G01*
Y9305000D02*
G03*
X7606800Y9305000I-50800J0D01*
G01*
Y9559000D02*
G03*
X7606800Y9559000I-50800J0D01*
G01*
Y9813000D02*
G03*
X7606800Y9813000I-50800J0D01*
G01*
%TF.MD5,3ab0141467296f39bd67c35562657979*%
M02*
