%TF.GenerationSoftware,Altium Limited,Altium Designer,25.3.3 (18)*%
G04 Layer_Color=32768*
%FSLAX45Y45*%
%MOMM*%
%TF.SameCoordinates,5E11F917-F8F9-4F0F-A2E6-9E88ADDE2E03*%
%TF.FilePolarity,Positive*%
%TF.FileFunction,Other,Top_Courtyard*%
%TF.Part,Single*%
G01*
G75*
%TA.AperFunction,NonConductor*%
%ADD63C,0.20000*%
D63*
X7005000Y6215000D02*
X7115000D01*
Y6515000D01*
X7005000D02*
X7115000D01*
X7005000Y6215000D02*
Y6515000D01*
X5837710Y10583150D02*
Y10786050D01*
X5926290D01*
Y10583150D02*
Y10786050D01*
X5837710Y10583150D02*
X5926290D01*
X6004999Y10702501D02*
X6129999D01*
X6004999D02*
Y10787501D01*
X6129999D01*
Y10702501D02*
Y10787501D01*
X8292502Y10834999D02*
X8512498D01*
Y10725000D02*
Y10834999D01*
X8292502Y10725000D02*
X8512498D01*
X8292502D02*
Y10834999D01*
X3177000Y10513000D02*
Y11178000D01*
X4653000D01*
Y10513000D02*
Y11178000D01*
X3177000Y10513000D02*
X4653000D01*
X4832000Y11232000D02*
Y12708000D01*
Y11232000D02*
X5497000D01*
Y12708000D01*
X4832000D02*
X5497000D01*
X5213953Y9983214D02*
Y10071794D01*
X5011053D02*
X5213953D01*
X5011053Y9983214D02*
Y10071794D01*
Y9983214D02*
X5213953D01*
X9770000Y10547065D02*
Y10768278D01*
X9879999D01*
Y10547065D02*
Y10768278D01*
X9770000Y10547065D02*
X9879999D01*
X8984393Y11357500D02*
X9205606D01*
Y11247500D02*
Y11357500D01*
X8984393Y11247500D02*
X9205606D01*
X8984393D02*
Y11357500D01*
X6895000Y7356893D02*
X7005000D01*
Y7578106D01*
X6895000D02*
X7005000D01*
X6895000Y7356893D02*
Y7578106D01*
X6311898Y6204393D02*
Y6495607D01*
X6453112D01*
Y6204393D02*
Y6495607D01*
X6311898Y6204393D02*
X6453112D01*
X6580000Y5625000D02*
X7090000D01*
Y5260000D02*
Y5625000D01*
X6580000Y5260000D02*
X7090000D01*
X6580000D02*
Y5625000D01*
X4553000Y4669998D02*
X5547000D01*
Y3914998D02*
Y4669998D01*
X4553000Y3914998D02*
X5547000D01*
X4553000D02*
Y4669998D01*
X5156893Y5197669D02*
Y5484251D01*
X5303106D01*
Y5197669D02*
Y5484251D01*
X5156893Y5197669D02*
X5303106D01*
X4846894D02*
Y5484251D01*
X4993107D01*
Y5197669D02*
Y5484251D01*
X4846894Y5197669D02*
X4993107D01*
X6109397Y8182489D02*
X6330610D01*
Y8072489D02*
Y8182489D01*
X6109397Y8072489D02*
X6330610D01*
X6109397D02*
Y8182489D01*
X5420002Y7647500D02*
X5639998D01*
Y7537500D02*
Y7647500D01*
X5420002Y7537500D02*
X5639998D01*
X5420002D02*
Y7647500D01*
X10095000Y4057496D02*
Y5197496D01*
X9445000Y4057496D02*
X10095000D01*
X9445000D02*
Y5197496D01*
X10095000D01*
X6855505Y6201200D02*
Y7103800D01*
X6644505Y6201200D02*
X6855505D01*
X6644505D02*
Y7103800D01*
X6855505D01*
X9409393Y6394393D02*
Y6685606D01*
X9550607D01*
Y6394393D02*
Y6685606D01*
X9409393Y6394393D02*
X9550607D01*
X5010004Y7552500D02*
X5230001D01*
Y7442500D02*
Y7552500D01*
X5010004Y7442500D02*
X5230001D01*
X5010004D02*
Y7552500D01*
X5420002Y7455000D02*
X5639998D01*
Y7345000D02*
Y7455000D01*
X5420002Y7345000D02*
X5639998D01*
X5420002D02*
Y7455000D01*
X8292504Y10645000D02*
X8512500D01*
Y10535000D02*
Y10645000D01*
X8292504Y10535000D02*
X8512500D01*
X8292504D02*
Y10645000D01*
X7890001Y10575002D02*
Y10794998D01*
X8000001D01*
Y10575002D02*
Y10794998D01*
X7890001Y10575002D02*
X8000001D01*
X6457500Y10566894D02*
Y10788107D01*
X6567500D01*
Y10566894D02*
Y10788107D01*
X6457500Y10566894D02*
X6567500D01*
X5001893Y9367501D02*
X5223107D01*
X5001893D02*
Y9477500D01*
X5223107D01*
Y9367501D02*
Y9477500D01*
X5007499Y9790005D02*
Y9915005D01*
X5092499D01*
Y9790005D02*
Y9915005D01*
X5007499Y9790005D02*
X5092499D01*
%TF.MD5,025c82accfb80f4217ad34339a06a624*%
M02*
